<svg width="118" height="118" viewBox="0 0 118 118" fill="none" xmlns="http://www.w3.org/2000/svg">
<path id="path0" fill-rule="evenodd" clip-rule="evenodd" d="M55.5797 0.557805C52.8152 1.57919 50.8017 3.40542 49.493 6.07834L48.7526 7.59053L48.6904 28.1272L48.6279 48.6639L28.0806 48.7263L7.53322 48.7885L5.92121 49.5757C-0.541577 52.732 -2.02684 61.3653 3.02436 66.4139C3.81195 67.2014 4.9329 68.0027 5.92121 68.4855L7.53322 69.2727L28.0806 69.3349L48.6279 69.3973L48.6904 89.934L48.7526 110.471L49.5401 112.082C50.0233 113.07 50.825 114.19 51.6129 114.977C56.6641 120.026 65.3018 118.541 68.4598 112.082L69.2474 110.471L69.3096 89.934L69.3721 69.3973L89.9194 69.3349L110.467 69.2727L112.079 68.4855C113.067 68.0027 114.188 67.2014 114.976 66.4139C120.027 61.3653 118.542 52.732 112.079 49.5757L110.467 48.7885L89.9194 48.7263L69.3721 48.6639L69.3096 28.1272L69.2474 7.59053L68.4598 5.97936C66.1684 1.29225 60.2898 -1.18211 55.5797 0.557805Z" fill="#B2B2B2"/>
</svg>
