<svg width="49" height="49" viewBox="0 0 49 49" fill="none" xmlns="http://www.w3.org/2000/svg">
<path fill-rule="evenodd" clip-rule="evenodd" d="M17.4644 0.168774C0.996623 2.37182 -5.80743 22.3178 5.79567 34.376C12.0283 40.853 22.8961 42.217 30.4919 37.4753L31.0111 37.1513L36.2031 42.319C39.5378 45.6379 41.5609 47.5819 41.8581 47.7529C45.5403 49.8706 49.7034 46.1625 47.9574 42.3201C47.6443 41.6308 47.4967 41.4724 42.3922 36.3458L37.1487 31.0795L37.4137 30.6344C41.2448 24.1992 41.2552 16.1282 37.4406 9.79575L37.1021 9.23399L37.8676 8.46464L38.6329 7.69529L39.0594 7.88391C40.581 8.55696 42.6085 7.74556 43.2457 6.20855L43.4597 5.69222H45.8967H48.3338V4.84264V3.99305H45.8923H43.4507L43.1507 3.38332C41.3574 -0.25922 35.5841 2.42958 37.2812 6.11708L37.4549 6.49468L36.7935 7.16966L36.1322 7.84464L35.6569 7.26403C31.3941 2.0556 24.2344 -0.736878 17.4644 0.168774ZM22.0906 1.77224C37.5486 3.59768 44.1295 22.2551 33.1783 33.2063C22.5253 43.8593 4.2322 37.8798 1.85515 22.9678C-0.0384434 11.0877 10.1961 0.367546 22.0906 1.77224ZM18.5028 3.29814C18.3731 3.31723 17.9482 3.37849 17.5589 3.43444C6.35042 5.04383 -0.12037 17.5249 4.97134 27.7138C10.12 38.0167 23.8471 40.3128 32.0358 32.2407C40.8238 23.578 37.6785 8.72311 26.1225 4.31314C23.9466 3.48277 20.4332 3.01478 18.5028 3.29814ZM41.1337 3.5821C42.1237 4.32124 42.0117 5.73174 40.9209 6.25978C39.6451 6.87736 38.2743 5.50831 38.8917 4.23303C39.2966 3.39662 40.4405 3.06456 41.1337 3.5821ZM23.0484 5.20937C26.6214 5.9374 29.748 7.84706 32.0789 10.7253L32.6001 11.3688L31.6288 12.3434L30.6575 13.3179L30.2605 13.1423C27.6691 11.996 24.7831 14.914 26.0164 17.4333L26.1955 17.799L23.5808 20.3759L20.966 22.9529L20.4667 22.7632C19.6753 22.4624 18.7617 22.5132 17.842 22.9088C17.7431 22.9513 17.1623 22.431 15.9193 21.1867L14.1382 19.4036L14.338 18.8693C15.754 15.0849 10.1751 12.6963 8.38986 16.3226L8.09273 16.9261H6.68211H5.27161L5.3342 16.6193C6.54375 10.6925 11.9093 5.9728 18.5501 4.99416C19.2553 4.89025 22.1653 5.02945 23.0484 5.20937ZM33.7999 13.4412C40.3603 26.437 26.0739 40.4148 13.122 33.6725C7.79838 30.9012 4.10061 24.2366 4.96953 18.9793L5.02813 18.6252H6.61311H8.19809L8.25827 18.8996C8.58778 20.3998 11.1606 21.5184 12.5453 20.7635L12.8654 20.589L14.6823 22.4041L16.4992 24.2191L16.3049 24.6554C15.7642 25.8696 16.2804 27.6165 17.422 28.4362C20.0839 30.3479 23.5954 27.5485 22.331 24.5225L22.1775 24.1552L24.773 21.5597L27.3686 18.964L27.7266 19.1395C30.2333 20.3673 33.1786 17.4489 32.0088 14.8964L31.8358 14.5188L32.6486 13.6928C33.6135 12.7123 33.45 12.7481 33.7999 13.4412ZM29.3651 14.6285C30.2558 14.8067 30.8029 15.9468 30.3986 16.7821C29.7104 18.2036 27.6441 17.8442 27.4934 16.2767C27.3931 15.2318 28.3164 14.4187 29.3651 14.6285ZM11.7202 16.2676C12.1586 16.3893 12.7132 16.9946 12.7973 17.443C13.1605 19.3786 10.3713 20.0374 9.80567 18.1496C9.47072 17.032 10.5726 15.9489 11.7202 16.2676ZM20.1073 24.4893C20.622 24.7786 20.8953 25.313 20.8441 25.9304C20.682 27.8853 17.8202 27.7546 17.8202 25.7921C17.8202 24.6202 19.0717 23.9072 20.1073 24.4893ZM36.463 36.4899L34.6468 38.3062L33.5712 37.2337L32.4958 36.1613L33.1222 35.6214C33.9225 34.9319 36.0616 32.7071 36.0616 32.5645C36.0616 32.5048 36.5605 32.9551 37.1704 33.5649L38.2791 34.6737L36.463 36.4899ZM46.4525 43.1156C47.2744 44.974 45.6706 46.9997 43.6636 46.6381C42.9013 46.5006 42.6945 46.3251 39.1993 42.8493L35.8706 39.5391L37.6889 37.7183L39.5072 35.8976L42.877 39.2741C45.567 41.9697 46.2883 42.7444 46.4525 43.1156Z" fill="#FFFDFC"/>
</svg>
