<svg width="49" height="50" viewBox="0 0 49 50" fill="none" xmlns="http://www.w3.org/2000/svg">
<path fill-rule="evenodd" clip-rule="evenodd" d="M21.8714 0.930264C10.6773 2.25954 2.24764 10.2588 0.384425 21.3199C0.136181 22.7943 0.136181 27.2687 0.384425 28.743C2.20874 39.5732 10.6125 47.7302 21.3023 49.0464C38.195 51.1266 51.8752 35.6863 47.8037 19.1355C47.3229 17.1812 46.4283 16.5486 45.2008 17.295C44.4793 17.7338 44.3767 18.34 44.765 19.8709C48.1246 33.1198 38.0157 46.0843 24.3251 46.0843C11.523 46.0843 1.60837 34.6501 3.46554 22.0275C5.28804 9.63955 17.3856 1.55419 29.5328 4.60571C31.1232 5.00532 31.6974 4.86362 32.1452 3.96112C33.094 2.04838 30.4791 0.986436 24.6553 0.919271C23.3059 0.903809 22.053 0.908641 21.8714 0.930264ZM38.906 1.04986C38.1337 1.5345 32.8402 7.04731 32.7792 7.43061C32.7461 7.63826 32.5533 9.46125 32.3509 11.4817L31.9827 15.1554L27.5031 19.6451C22.6477 24.5117 22.815 24.3189 22.8155 25.0489C22.8161 25.9701 23.3865 26.5405 24.3077 26.5411C25.0377 26.5416 24.8449 26.7089 29.7114 21.8535L34.2012 17.3739L37.8748 17.0057C39.8953 16.8032 41.7183 16.6104 41.9259 16.5774C42.3185 16.5149 48.0126 11.0263 48.3508 10.3845C48.5638 9.9802 48.5237 9.16734 48.2724 8.79444C47.8635 8.18778 47.7385 8.15746 44.6188 7.9074C43.0493 7.78153 41.7455 7.65904 41.7214 7.63512C41.6975 7.61108 41.575 6.30729 41.4492 4.73775C41.1991 1.6181 41.1688 1.49307 40.5621 1.08416C40.151 0.807169 39.3202 0.790016 38.906 1.04986ZM38.5703 7.85534C38.7621 10.5844 38.8163 10.6305 42.0675 10.8311C42.6644 10.868 43.2052 10.9262 43.2692 10.9604C43.3441 11.0004 42.9322 11.4755 42.1128 12.2938L40.84 13.5649L38.0306 13.8501L35.2212 14.1353L35.5064 11.3259L35.7916 8.5166L37.0628 7.24373C37.8711 6.43437 38.3558 6.01327 38.394 6.08732C38.427 6.15134 38.5064 6.94693 38.5703 7.85534ZM22.4376 8.433C7.06633 10.1992 2.19835 30.316 15.0608 38.917C27.4941 47.2309 43.6901 36.1784 40.6379 21.4626C40.2862 19.767 39.5228 19.148 38.3401 19.5997C37.4265 19.9487 37.2509 20.5578 37.5975 22.1767C39.7729 32.3401 30.098 41.0966 20.176 37.9443C13.0824 35.6907 9.13394 28.0019 11.4144 20.883C13.5275 14.2861 20.4147 10.2996 27.1798 11.7574C28.1202 11.96 28.4546 11.997 28.7107 11.9262C30.0433 11.5582 30.308 9.90168 29.1594 9.11939C28.3216 8.54885 24.6725 8.17618 22.4376 8.433ZM22.4376 16.1146C16.0686 17.5152 13.1605 24.8952 16.8656 30.2547C20.0145 34.8098 26.6334 35.4362 30.6685 31.561C33.1123 29.214 34.2874 24.6766 32.7017 23.7097C31.5354 22.9985 30.4528 23.7605 30.2845 25.411C29.7949 30.212 24.5387 32.6538 20.7888 29.8223C16.059 26.2507 18.55 19.1839 24.5818 19.0618C25.5743 19.0417 25.7628 19.0123 25.9936 18.8412C26.9304 18.1465 26.9305 16.9112 25.9937 16.2161C25.6492 15.9605 23.4272 15.8971 22.4376 16.1146Z" fill="#FFFDFC"/>
</svg>
