<svg width="13" height="22" viewBox="0 0 13 22" fill="none" xmlns="http://www.w3.org/2000/svg">
<g id="svgg">
<path id="path0" fill-rule="evenodd" clip-rule="evenodd" d="M3.57051 0.0995405C3.35066 0.240445 3.33703 0.288672 2.01218 5.62551C0.696312 10.9261 0.661387 11.0913 0.810064 11.3168C0.98781 11.5864 0.944509 11.5797 2.67707 11.6032L4.26014 11.6245L2.49555 16.3503C0.600515 21.4252 0.626188 21.3447 0.811597 21.6259C0.994214 21.9029 1.43236 22.0054 1.71647 21.8375C1.81085 21.7818 9.35984 11.4382 11.9887 7.76256C12.3153 7.30591 12.3735 7.02388 12.1963 6.75516C12.0078 6.46935 12.0229 6.47176 10.4232 6.47143C9.28249 6.47121 8.97961 6.45983 8.99581 6.41768C9.00709 6.38828 9.74982 5.13257 10.6463 3.62718C12.2606 0.916391 12.2763 0.887816 12.2766 0.654891C12.2769 0.39175 12.1933 0.226321 11.9934 0.094559C11.7974 -0.0346853 3.77256 -0.0299228 3.57051 0.0995405Z" fill="#FFFDFC"/>
</g>
</svg>
