<svg width="58" height="49" viewBox="0 0 58 49" fill="none" xmlns="http://www.w3.org/2000/svg">
<path fill-rule="evenodd" clip-rule="evenodd" d="M11.43 0.124092C9.55342 0.443943 8.26393 1.62086 7.42892 3.77592C6.79542 5.41107 6.57574 5.54065 4.27913 5.63405C2.04479 5.72501 1.16092 6.18381 0.32994 7.68389L0 8.27934V26.8601C0 44.8335 0.0069188 45.461 0.214195 46.0566C0.502766 46.8858 1.35046 47.7335 2.25567 48.0981L2.92781 48.3687H23.4792C46.4197 48.3687 44.4707 48.4352 46.0572 47.5986C48.2314 46.452 48.0535 46.8371 53.2173 32.0966C58.0231 18.3773 57.9084 18.7804 57.4246 17.3242C56.8041 15.456 55.6135 14.9798 51.5638 14.9798H48.704V11.8308C48.704 7.73477 48.3986 6.89414 46.5873 6.00464L45.9452 5.68926L36.249 5.63304L26.5531 5.57668L25.7784 5.18231C25.0759 4.82455 24.9217 4.67753 24.1238 3.60569C22.6279 1.59607 21.8643 0.966024 20.195 0.364521C19.2962 0.0407785 12.9418 -0.133489 11.43 0.124092ZM19.0486 3.43604C19.9198 3.69477 20.4637 4.1677 21.4997 5.56789C22.507 6.92931 23.2192 7.58126 24.289 8.12136C25.6389 8.80272 25.3561 8.78614 35.5961 8.78614C44.6483 8.78614 44.9719 8.79335 45.2288 9.0012C45.494 9.21583 45.4947 9.2239 45.5283 12.0979L45.5618 14.9798H29.6456C11.9873 14.9798 13.1564 14.9306 11.6232 15.7362C9.49115 16.8566 9.42672 16.9826 6.03536 26.6616C4.49967 31.0444 3.21422 34.7063 3.1789 34.7992C3.14344 34.8921 3.11058 29.2094 3.10568 22.1711C3.09501 6.98408 2.80067 8.86758 5.19789 8.78441C8.06588 8.68496 9.45195 7.71157 10.4197 5.11745C11.1103 3.26653 11.1054 3.2684 15.2665 3.26826C17.789 3.26826 18.6055 3.30444 19.0486 3.43604ZM54.3348 18.4145C54.499 18.6124 46.1163 42.7864 45.5684 43.6954C45.2333 44.2513 44.4161 44.8634 43.7692 45.0431C43.1895 45.2041 3.72808 45.2038 3.42711 45.0428C3.10265 44.8691 2.90835 45.4745 7.49292 32.3729C12.5088 18.039 12.0141 19.2128 13.3294 18.5277L13.851 18.256L34.0228 18.2506C51.8335 18.246 54.2108 18.2652 54.3348 18.4145Z" fill="#FFFDFC"/>
</svg>
