<svg width="20" height="21" viewBox="0 0 20 21" fill="none" xmlns="http://www.w3.org/2000/svg">
<path fill-rule="evenodd" clip-rule="evenodd" d="M16.0978 0.69021C15.5652 0.805532 15.4162 0.912451 14.444 1.87688L13.5521 2.7617L15.7135 4.91855L17.8749 7.07545L18.7211 6.22994C19.8811 5.07078 20.0294 4.80428 19.9964 3.93891C19.9655 3.13181 19.8311 2.90497 18.7401 1.81972C17.6147 0.700262 17.089 0.47557 16.0978 0.69021ZM6.78628 9.5303L1.24505 15.0716L0.624186 17.5494C-0.0499395 20.2397 -0.0665426 20.3367 0.115291 20.5185C0.297125 20.7003 0.394093 20.6837 3.08439 20.0096L5.5622 19.3887L11.1035 13.8475C14.1512 10.7998 16.6448 8.28862 16.6448 8.26707C16.6448 8.21591 12.4176 3.98902 12.3665 3.98902C12.345 3.98902 9.83395 6.48259 6.78628 9.5303Z" fill="#FFFDFC" fill-opacity="0.5"/>
</svg>
