<svg width="46" height="37" viewBox="0 0 46 37" fill="none" xmlns="http://www.w3.org/2000/svg">
<g id="svgg">
<path id="path0" fill-rule="evenodd" clip-rule="evenodd" d="M21.2435 0.088757C13.9503 0.861953 8.08697 6.74411 7.26952 14.1076L7.21344 14.612L6.56913 14.7666C-1.34629 16.6677 -2.28553 27.7548 5.18935 31.0533C6.65066 31.6981 7.06518 31.7415 11.7699 31.7429L15.9132 31.744V30.266V28.7878H11.9312C7.61065 28.7878 7.38865 28.7683 6.37259 28.2985C0.864476 25.7518 2.43908 18.0397 8.58657 17.4544C9.7501 17.3437 10.094 16.9265 10.1897 15.5097C10.4306 11.9438 11.6594 9.17195 14.0333 6.83997C20.2785 0.70486 30.656 2.45112 34.5168 10.2867C34.9651 11.1967 35.1127 11.6078 35.6146 13.3456C35.8829 14.2746 36.1124 14.4656 37.3077 14.7551C44.7036 16.5463 44.8862 26.7448 37.5556 28.6078C36.9083 28.7722 36.558 28.7878 33.502 28.7878H30.1569V30.266V31.744L33.5387 31.7433C38.0584 31.7424 39.2538 31.512 41.2278 30.2604C48.3489 25.7456 47.132 14.8894 39.2041 12.2058L38.3064 11.9019L38.0747 11.1402C35.8906 3.95841 28.7801 -0.710239 21.2435 0.088757ZM22.8559 17.3873C22.7574 17.4041 22.576 17.4394 22.4528 17.4658C22.2232 17.5151 16.2715 23.3663 16.2715 23.5427C16.2715 23.593 16.7246 24.0882 17.2782 24.6434L18.2848 25.653L19.9209 24.0187L21.557 22.3844V29.2143V36.044H23.0351H24.5132V29.2591V22.4741L26.126 24.0849L27.7386 25.6958L28.7906 24.6439L29.8424 23.5921L26.8867 20.6302C25.261 19.0012 23.8512 17.6242 23.7539 17.5703C23.5174 17.4395 23.0772 17.3497 22.8559 17.3873Z" fill="#B2B2B2"/>
</g>
</svg>
