<svg width="49" height="49" viewBox="0 0 49 49" fill="none" xmlns="http://www.w3.org/2000/svg">
<path fill-rule="evenodd" clip-rule="evenodd" d="M26.4765 1.45924C22.6569 2.01338 19.447 2.51623 19.343 2.5767C18.744 2.92512 1.08019 20.8203 0.803239 21.3594C-0.0782714 23.0747 0.0106174 25.2673 1.02347 26.7922C1.43477 27.4114 16.1887 42.2247 16.9055 42.7382L17.3971 43.0903L17.4016 43.8126C17.415 45.9535 18.8469 47.8594 20.991 48.5904L21.6106 48.8016H32.9957H44.3807L45.0004 48.5904C46.6622 48.0238 47.8941 46.7718 48.3997 45.1353C48.5803 44.5508 48.5852 44.1872 48.5852 31.4139V18.2928L46.0151 14.8658C44.6015 12.9809 43.4488 11.375 43.4535 11.2971C43.4584 11.2191 43.4943 10.7663 43.5335 10.2908C43.6239 9.19244 43.6458 9.22848 41.7431 7.33316L40.2772 5.87308L41.8731 4.25398C43.1975 2.91037 43.4803 2.57501 43.535 2.28307C43.7336 1.22426 43.165 0.431641 42.2067 0.431641C41.4716 0.431641 41.3591 0.510613 39.6578 2.22042L38.1472 3.73854L36.6344 2.23977C35.8023 1.41546 35.0165 0.671459 34.8879 0.586319C34.496 0.326788 33.7425 0.404913 26.4765 1.45924ZM34.8161 4.66129L36.0196 5.8674L35.078 6.80551L34.1365 7.7435L33.5364 7.16735C32.1286 5.8154 30.2571 6.53449 30.7221 8.24865C30.8663 8.78029 35.2634 13.164 35.7662 13.2775C37.5303 13.6753 38.1931 11.8375 36.7962 10.4219L36.2589 9.87743L37.2029 8.9334L38.1469 7.98936L39.3679 9.21313L40.5889 10.4368L39.6819 16.7877L38.7747 23.1385L30.0982 31.8249C20.8507 41.0827 21.0919 40.8642 20.1194 40.8679C19.1369 40.8717 19.3851 41.0927 11.1841 32.9062C2.95665 24.6931 3.14349 24.9022 3.14349 23.9105C3.14349 22.8367 2.79882 23.2211 12.1434 13.8708L20.7604 5.2482L26.9017 4.36161C30.2794 3.87399 33.1711 3.47055 33.3277 3.46511C33.572 3.45652 33.7838 3.62668 34.8161 4.66129ZM24.1616 11.1988C23.5798 11.441 23.5861 11.4243 20.0452 22.0271C16.3504 33.0905 16.4312 32.798 16.8928 33.4348C17.3852 34.1138 18.4278 34.2314 19.057 33.6789C19.4678 33.3182 26.193 13.3434 26.193 12.484C26.193 11.4707 25.1276 10.7966 24.1616 11.1988ZM45.7296 31.7778L45.7036 44.1296L45.4225 44.6371C45.139 45.1489 44.8451 45.4248 44.2391 45.7482C43.9217 45.9177 43.4705 45.9248 32.9957 45.9248H22.083L21.6106 45.6743C21.0577 45.3812 20.809 45.1287 20.5347 44.5821C20.2135 43.942 20.2532 43.8345 20.8359 43.7661C21.5045 43.6875 22.3385 43.3924 22.9258 43.0267C23.5181 42.6577 41.2516 24.9839 41.4406 24.5741C41.5131 24.417 41.8335 22.4389 42.1524 20.1784C42.4714 17.9179 42.7562 15.9497 42.7855 15.8047C42.8344 15.5616 42.9531 15.6934 44.2971 17.4834L45.7556 19.4259L45.7296 31.7778ZM12.0927 18.4663C8.47815 19.6612 8.09708 24.6942 11.494 26.3726C14.5231 27.8694 17.8355 25.6769 17.6732 22.2827C17.5418 19.5318 14.7156 17.5993 12.0927 18.4663ZM28.1771 18.4666C23.5497 19.9598 24.5543 26.7938 29.4053 26.8218C33.249 26.8439 35.169 22.3993 32.5331 19.5813C31.4743 18.4495 29.6651 17.9864 28.1771 18.4666ZM14.0766 21.4061C14.7364 21.8085 14.9496 22.6376 14.5566 23.2735C13.6847 24.6841 11.4683 23.4691 12.2267 21.9963C12.6005 21.2703 13.4233 21.0079 14.0766 21.4061ZM30.1709 21.4321C30.7981 21.8512 30.9935 22.6393 30.61 23.2028C29.9785 24.1308 29.0005 24.1651 28.3413 23.2823C27.7295 22.4628 28.3996 21.2177 29.4526 21.2177C29.7083 21.2177 29.9642 21.2941 30.1709 21.4321Z" fill="#FFFDFC"/>
</svg>
