<svg width="51" height="49" viewBox="0 0 51 49" fill="none" xmlns="http://www.w3.org/2000/svg">
<path fill-rule="evenodd" clip-rule="evenodd" d="M13.2217 0.374268C2.98842 3.03851 1.42855 17.1693 10.8502 21.8582C18.6447 25.7373 27.5943 20.2416 27.5943 11.576C27.5943 4.01244 20.4962 -1.51951 13.2217 0.374268ZM36.5771 4.94847C26.3229 7.93116 28.4242 23.0698 39.0923 23.0698C46.1234 23.0698 50.5039 15.787 47.2493 9.50833C45.3252 5.7962 40.6014 3.77788 36.5771 4.94847ZM18.0904 5.0916C23.0098 6.62277 24.5047 12.8409 20.8113 16.4088C16.4796 20.5928 9.34105 17.5851 9.34105 11.576C9.34105 7.02953 13.7703 3.74697 18.0904 5.0916ZM41.0726 9.85805C45.2851 11.963 43.8183 18.333 39.1175 18.3479C35.4913 18.3593 33.3696 14.3658 35.3933 11.3377C36.6051 9.52452 39.1028 8.87382 41.0726 9.85805ZM10.4191 25.5823C5.53179 26.6899 1.76006 30.2442 0.345337 35.0751C-0.0752158 36.5117 -0.12912 46.6695 0.280395 47.329C0.976902 48.4511 -0.276111 48.3686 16.0962 48.3686C32.4685 48.3686 31.2155 48.4511 31.912 47.329C32.3215 46.6695 32.2676 36.5117 31.8471 35.0751C30.5253 30.5616 27.0024 27.0387 22.4921 25.7206C21.3235 25.379 11.7972 25.2699 10.4191 25.5823ZM36.5859 26.042C33.9193 26.6136 31.4935 28.1707 31.2503 29.4668C30.8481 31.6109 33.1494 33.072 35.0296 31.8663C38.0005 29.9607 41.3274 30.1467 43.6827 32.3501C45.1626 33.7341 45.7754 35.1784 45.9358 37.66L46.0335 39.1713L41.0179 39.1719C36.2666 39.1724 35.9776 39.1875 35.5338 39.4579C34.1158 40.3226 34.1158 42.6193 35.5338 43.4839C36.2618 43.9276 48.8217 43.9276 49.5497 43.4839C51.0775 42.5523 51.1048 35.6923 49.5935 32.4625C47.3053 27.5724 41.8979 24.9034 36.5859 26.042ZM21.12 30.3143C23.5021 30.9917 25.5414 32.659 26.5994 34.7941C27.3524 36.3141 27.4611 36.9648 27.5516 40.5008L27.6353 43.7705H16.1168H4.59815L4.60072 41.435C4.60771 35.0189 6.21211 32.0173 10.4289 30.5314C12.1074 29.9399 19.2905 29.794 21.12 30.3143Z" fill="#FFFDFC"/>
</svg>
