<svg width="47" height="49" viewBox="0 0 47 49" fill="none" xmlns="http://www.w3.org/2000/svg">
<path fill-rule="evenodd" clip-rule="evenodd" d="M13.0451 0.631779C11.4961 1.04547 10.211 2.69504 10.211 4.26933V4.70427L8.00935 4.74456C3.85536 4.82074 1.45809 6.37509 0.314071 9.73447L0.0383652 10.5442L0.011546 26.534C-0.0147549 42.1562 -0.0107384 42.5419 0.184121 43.3124C0.823893 45.8426 2.59706 47.6993 5.20059 48.5655C6.1916 48.8951 18.3951 48.9973 19.015 48.6812C20.0317 48.1627 20.1096 46.6796 19.153 46.0525C18.8943 45.8828 18.427 45.8662 12.5941 45.8192L6.31391 45.7686L5.72246 45.53C4.59243 45.0743 3.71258 44.1565 3.2082 42.9079L2.9737 42.3271L2.94468 27.3973C2.91034 9.77684 2.86111 10.5878 4.0488 9.23838C5.10731 8.0358 5.91227 7.76061 8.37108 7.76061H10.1817L10.244 8.4285C10.3661 9.73603 11.1638 10.8939 12.3871 11.5395L12.9945 11.8601H21.0436H29.0925L29.7672 11.528C30.9657 10.938 31.7066 9.89059 31.9063 8.50364L32.0156 7.74597L33.9934 7.77862L35.9713 7.81127L36.6518 8.13362C38.9295 9.2126 39.1597 9.94423 39.1598 16.1072C39.16 20.2474 39.1763 20.6981 39.3369 21.0131C39.8881 22.0939 41.5169 22.0673 42.038 20.969C42.2918 20.4341 42.2269 11.0713 41.963 10.1394C40.9465 6.55012 38.2209 4.72642 33.871 4.72474L31.9731 4.72409V4.39112C31.9731 2.93511 31.0351 1.49362 29.6653 0.844777L28.9871 0.523466L21.2944 0.503254C14.8027 0.486282 13.5149 0.506234 13.0451 0.631779ZM28.6406 3.80525L28.9366 4.10116V6.12853C28.9366 8.2383 28.8902 8.51867 28.4992 8.77831C28.2683 8.93146 14.8573 9.06555 14.0712 8.92251C13.2879 8.78 13.2475 8.64681 13.2475 6.20536V4.03353L13.559 3.77143L13.8703 3.50946H21.1076H28.3447L28.6406 3.80525ZM10.8167 19.1837C9.77112 19.7401 9.78537 21.3526 10.8401 21.8313C11.4803 22.1219 27.2463 22.1441 27.821 21.8553C28.9046 21.3109 28.9046 19.7177 27.821 19.1733C27.2604 18.8916 11.3472 18.9013 10.8167 19.1837ZM40.7285 25.3746C38.8849 25.5724 38.8836 25.5734 31.1422 33.3326C23.3214 41.1713 24.1396 40.0696 23.5675 43.5314C23.0331 46.7655 23.1656 47.4897 24.4477 48.3389C25.3885 48.962 28.0881 48.8181 31.1633 47.9807C31.8182 47.8025 45.3359 34.4697 46.0404 33.3073C48.3246 29.5384 45.2142 24.8931 40.7285 25.3746ZM10.7115 27.5226C9.78226 28.1434 9.8035 29.3622 10.756 30.0733C11.1623 30.3766 18.7496 30.4004 19.2998 30.0999C20.1443 29.6388 20.2929 28.4235 19.5905 27.721L19.2162 27.3466L15.1382 27.3181L11.0602 27.2895L10.7115 27.5226ZM42.5136 28.5909C44.1889 29.4632 44.1537 31.1688 42.4253 32.8879L41.5352 33.7732L39.9189 32.1546L38.3026 30.536L39.2119 29.6135C40.5669 28.2392 41.3639 27.9922 42.5136 28.5909ZM37.7687 34.3569L39.3614 35.9518L34.7699 40.5425L30.1784 45.1331L28.4694 45.4757C27.5294 45.6641 26.6428 45.8431 26.4993 45.8736L26.2382 45.9289L26.566 43.9351L26.8939 41.9414L31.4827 37.3516C34.0067 34.8272 36.0952 32.7619 36.1238 32.7619C36.1526 32.7619 36.8928 33.4796 37.7687 34.3569Z" fill="#FFFDFC"/>
</svg>
