<svg width="101" height="100" viewBox="0 0 101 100" fill="none" xmlns="http://www.w3.org/2000/svg">
<g id="svgg">
<path id="path0" fill-rule="evenodd" clip-rule="evenodd" d="M44.0945 0.901743C3.57059 5.91975 -13.8783 55.5909 14.5858 84.9038C40.9457 112.05 86.9747 100.933 97.9353 64.7739C108.362 30.3761 79.7904 -3.51836 44.0945 0.901743ZM54.671 10.9015C81.4604 13.9596 97.6805 42.7864 86.2015 66.9382C71.7041 97.44 28.9051 97.44 14.4077 66.9382C1.32377 39.4098 24.2989 7.43403 54.671 10.9015ZM40.2954 32.2337C38.1847 33.0877 38.2016 32.9541 38.1271 49.4106C38.0506 66.2742 38.093 66.7805 39.6838 67.9567C41.605 69.3768 41.561 69.3957 56.8058 60.5925C71.0754 52.3522 70.8692 52.5032 70.8692 50.2882C70.8692 48.0729 71.0751 48.224 56.8058 39.9849C42.1035 31.4959 42.1105 31.4992 40.2954 32.2337Z" fill="black"/>
</g>
</svg>
