<svg width="49" height="36" viewBox="0 0 49 36" fill="none" xmlns="http://www.w3.org/2000/svg">
<path fill-rule="evenodd" clip-rule="evenodd" d="M12.9586 0.38231C10.4549 0.816848 8.18199 2.68924 7.29641 5.04643L7.02258 5.77546L4.1149 5.83359C1.39617 5.88785 1.18597 5.90733 0.879575 6.13448C-0.270325 6.98735 -0.289502 8.64954 0.842409 9.35479C1.22402 9.59265 1.42516 9.61168 4.13646 9.66624L7.02392 9.72422L7.29329 10.4684C7.88214 12.0954 9.21341 13.5778 10.8304 14.4068C12.4122 15.2179 12.7813 15.2579 18.3253 15.218L23.1997 15.1829L24.1288 14.8557C30.8852 12.4759 30.8238 2.91298 24.0377 0.644103L23.0836 0.325076L18.3218 0.301438C15.7028 0.288504 13.2893 0.324926 12.9586 0.38231ZM23.2947 4.53666C26.14 5.9381 25.9499 10.0502 22.9886 11.1582C22.0089 11.5247 13.9831 11.5461 13.0321 11.1848C10.5554 10.2436 9.85236 7.05604 11.7148 5.21233C12.7817 4.15624 13.085 4.10555 18.2083 4.12948L22.5084 4.1494L23.2947 4.53666ZM33.2528 6.09182C31.9185 6.77536 31.8155 8.4493 33.0512 9.3652C33.3738 9.60425 33.4865 9.60871 40.1733 9.63993L46.9676 9.67159L47.4295 9.41203C48.6555 8.72298 48.6891 7.02021 47.494 6.13448C47.1715 5.89558 47.0572 5.89112 40.4675 5.85961L33.7686 5.82764L33.2528 6.09182ZM25.1742 20.2373C17.7225 21.7278 17.1124 32.2734 24.3362 34.7201L25.2903 35.0433H30.4005H35.5108L36.4387 34.7153C38.6523 33.9331 40.3091 32.3586 41.081 30.3038L41.3513 29.5845L44.2589 29.5266C46.9777 29.4722 47.1879 29.4527 47.4943 29.2255C48.6442 28.3727 48.6633 26.7105 47.5314 26.0052C47.1497 25.7674 46.9488 25.7483 44.2323 25.6938L41.3398 25.6358L41.1305 25.0197C40.3698 22.7804 38.3563 20.9602 35.9626 20.348C35.0088 20.1041 26.2878 20.0146 25.1742 20.2373ZM35.3418 24.1752C37.8778 25.1388 38.5329 28.3434 36.5728 30.1972C35.5065 31.2057 35.4765 31.2106 30.34 31.2106H25.8661L25.0877 30.8274C22.2505 29.4305 22.4143 25.3353 25.3523 24.2074C26.2945 23.8458 34.4058 23.8196 35.3418 24.1752ZM0.923132 25.9624C-0.289353 26.6965 -0.311207 28.3428 0.879872 29.2255C1.33686 29.5642 14.1249 29.6734 14.9846 29.3461C16.4391 28.7922 16.5921 26.8603 15.2531 25.9579L14.8612 25.6938L8.11316 25.6944L1.36496 25.695L0.923132 25.9624Z" fill="#FFFDFC"/>
</svg>
