<svg width="49" height="49" viewBox="0 0 49 49" fill="none" xmlns="http://www.w3.org/2000/svg">
<path fill-rule="evenodd" clip-rule="evenodd" d="M21.1511 0.619118C1.2595 3.07655 -7.10479 27.5155 7.0881 41.7085C21.3161 55.9366 45.783 47.5078 48.1839 27.5513C50.063 11.9331 36.7698 -1.31051 21.1511 0.619118ZM22.6605 8.36431V13.1392L20.9388 13.0728C19.3037 13.0097 15.6094 12.7015 15.5294 12.6216C15.3549 12.4471 17.0304 8.98087 17.9677 7.57724C19.2468 5.6615 21.3991 3.82546 22.6369 3.59386C22.6498 3.59144 22.6605 5.73818 22.6605 8.36431ZM26.3317 3.83826C28.1574 4.58572 30.2652 6.96104 31.6751 9.85971C32.2192 10.9784 32.8922 12.6351 32.8278 12.6978C32.7583 12.7656 29.096 13.0289 27.4481 13.0844L25.585 13.1472V8.36189V3.57671L25.7973 3.64155C25.9139 3.67718 26.1544 3.76569 26.3317 3.83826ZM15.7903 5.54691C14.7362 7.01441 13.6673 9.06395 12.998 10.9006C12.809 11.4195 12.617 11.9334 12.5714 12.0426L12.4884 12.2412L11.1831 11.9845C9.54191 11.6617 7.75514 11.2078 7.75514 11.1136C7.75514 10.9799 10.251 8.52491 10.9154 8.00507C12.3341 6.89511 15.7042 4.91018 16.1701 4.91018C16.2128 4.91018 16.0418 5.19673 15.7903 5.54691ZM33.6093 5.59412C35.6155 6.60144 37.251 7.74629 38.8297 9.24833C39.6753 10.0529 40.7148 11.2265 40.6443 11.297C40.5652 11.3761 38.7289 11.7965 37.2611 12.0714L35.8715 12.3316L35.7153 11.8991C34.7258 9.15837 33.6663 7.04617 32.4662 5.42169C31.99 4.77711 31.9787 4.77542 33.6093 5.59412ZM7.89654 14.2597C8.51926 14.4196 9.61437 14.6687 10.3303 14.8133C11.8939 15.1292 11.7389 14.9687 11.5185 16.0425C11.1325 17.9237 10.9588 19.3225 10.719 22.4806L10.6635 23.2117H6.79685H2.93023L2.99181 22.6693C3.32183 19.7594 3.94238 17.6119 5.17067 15.1284L5.87925 13.6959L6.32181 13.8325C6.56537 13.9076 7.27394 14.0999 7.89654 14.2597ZM43.213 15.2165C44.3841 17.573 44.9981 19.7072 45.3437 22.622L45.4024 23.1174H41.5388H37.6752L37.6258 22.5277C37.5988 22.2035 37.5291 21.3439 37.4711 20.6174C37.3573 19.1911 37.1113 17.4562 36.8257 16.0645L36.6464 15.1906L36.8467 15.1464C36.9568 15.1221 37.7899 14.9535 38.698 14.7718C39.6059 14.5901 40.7946 14.3186 41.3394 14.1688C41.8842 14.0188 42.3783 13.8908 42.4374 13.8841C42.4966 13.8776 42.8456 14.4772 43.213 15.2165ZM17.6112 15.807C18.5439 15.8859 20.0615 15.9776 20.9837 16.0111L22.6605 16.0718V19.5945V23.1174H18.1316H13.6027L13.6543 22.4334C13.8419 19.944 14.0951 17.9757 14.4161 16.5138C14.4901 16.1765 14.5701 15.8124 14.5938 15.7049C14.6345 15.5207 14.6746 15.5137 15.2762 15.5865C15.6277 15.629 16.6785 15.7283 17.6112 15.807ZM33.8157 15.9949C34.2492 18.0862 34.5407 20.229 34.6788 22.3391L34.7298 23.1174H30.2046H25.6793V19.5797V16.042H26.7138C27.9573 16.042 30.5665 15.8867 32.1886 15.7162C33.7648 15.5505 33.7221 15.5433 33.8157 15.9949ZM10.7132 26.6315C10.93 29.2585 10.9971 29.913 11.1576 30.9652C11.3161 32.0052 11.5079 33.047 11.6695 33.7455C11.7128 33.9328 11.6615 33.9583 11.033 34.0606C10.0958 34.2132 7.60203 34.767 6.59966 35.0452L5.77444 35.2743L5.54344 34.8796C4.27397 32.7119 2.94388 28.2357 2.94388 26.1314C2.94388 26.0764 4.43239 26.0419 6.80421 26.0419H10.6646L10.7132 26.6315ZM22.7548 29.5669V32.9976L21.1746 33.0609C20.3056 33.0956 18.703 33.1931 17.6134 33.2775C16.5238 33.3619 15.4025 33.4347 15.1216 33.4392L14.6111 33.4474L14.4898 32.9285C14.1601 31.5179 13.8275 29.0556 13.6584 26.7729L13.6112 26.1362H18.183H22.7548V29.5669ZM34.6819 26.7729C34.4877 29.4175 33.9082 33.3158 33.6745 33.5494C33.6521 33.5719 33.0645 33.528 32.3687 33.452C31.1819 33.3223 29.3669 33.1954 26.7878 33.0617L25.6793 33.0042V29.5703V26.1362H30.204H34.7286L34.6819 26.7729ZM45.3437 26.6315C44.9999 29.5314 44.3968 31.6309 43.2162 34.037C42.8534 34.7764 42.5268 35.381 42.4905 35.3808C42.454 35.3804 41.9997 35.2577 41.4808 35.108C40.459 34.8132 38.4019 34.3411 37.3064 34.1498C36.9303 34.0841 36.6225 34.0206 36.6225 34.0086C36.6225 33.9968 36.7056 33.5831 36.8071 33.0895C37.1836 31.2597 37.5647 28.3712 37.5669 27.3299C37.5675 27.0626 37.5943 26.6845 37.6264 26.49L37.6849 26.1362H41.5436H45.4024L45.3437 26.6315ZM22.6605 40.7114C22.6605 43.3316 22.6383 45.4754 22.6112 45.4754C21.8004 45.4754 19.5801 43.7071 18.3683 42.0965C17.2268 40.5792 15.2807 36.6072 15.5862 36.4184C15.694 36.3517 19.6471 36.0456 20.868 36.0095C21.3091 35.9965 21.8928 35.977 22.1651 35.9665L22.6605 35.9473V40.7114ZM28.4151 36.0893C29.4625 36.1385 32.778 36.4168 32.8247 36.4596C32.937 36.5624 31.5937 39.5072 30.8543 40.7791C29.585 42.962 26.8418 45.4754 25.7286 45.4754C25.7015 45.4754 25.6793 43.3301 25.6793 40.708V35.9406L26.5047 35.9895C26.9588 36.0164 27.8184 36.0613 28.4151 36.0893ZM12.9116 37.9756C13.6886 40.0803 14.8036 42.2131 15.9291 43.7475L16.4263 44.4251L16.1235 44.3201C14.923 43.903 12.3489 42.3805 10.9154 41.2397C9.43964 40.0651 7.43913 37.9556 7.68124 37.829C8.00908 37.6577 12.0654 36.7904 12.3649 36.8275C12.438 36.8367 12.6746 37.3334 12.9116 37.9756ZM37.4279 37.1744C38.8729 37.4647 40.5644 37.8767 40.6458 37.9581C40.781 38.0933 38.6492 40.2648 37.4244 41.2397C35.9908 42.3805 33.4167 43.903 32.2162 44.3201L31.9135 44.4251L32.4097 43.7475C33.5487 42.1914 34.693 40.0069 35.4175 38.0049C35.6392 37.3924 35.8646 36.891 35.9185 36.8909C35.9724 36.8908 36.6516 37.0184 37.4279 37.1744Z" fill="#FFFDFC"/>
</svg>
