<svg width="15" height="16" viewBox="0 0 15 16" fill="none" xmlns="http://www.w3.org/2000/svg">
<path id="path0" fill-rule="evenodd" clip-rule="evenodd" d="M7.17217 0.945461C6.53661 1.16211 6.49883 1.23768 5.87434 3.54113C5.60027 4.55193 5.36307 5.40332 5.34714 5.43314C5.3205 5.483 5.29135 5.48589 4.98105 5.4693C3.29564 5.37924 1.31438 5.33108 1.13341 5.37572C0.173329 5.61267 -0.165086 6.8536 0.546012 7.52972C0.653297 7.63175 1.24863 8.02225 2.31407 8.68949C3.45516 9.40414 3.92279 9.71196 3.92879 9.75241C3.93343 9.78371 3.62154 10.6358 3.23566 11.6461L2.53409 13.4828L2.5326 13.8315C2.52942 14.5789 3.05866 15.1205 3.78895 15.1173C4.25124 15.1152 4.29833 15.0843 6.01386 13.6574C6.84695 12.9644 7.55338 12.3974 7.58375 12.3974C7.61413 12.3974 8.30563 12.9529 9.12046 13.6319C10.709 14.9556 10.7762 15.0061 11.039 15.0736C11.8874 15.2918 12.634 14.7091 12.6306 13.8315L12.6293 13.4828L11.9276 11.6458C11.5416 10.6354 11.2297 9.78353 11.2343 9.75267C11.2402 9.71333 11.7233 9.39543 12.849 8.69015C13.9163 8.02151 14.5096 7.63212 14.6171 7.52987C15.3466 6.83559 14.9683 5.56132 13.9733 5.36149C13.8292 5.33256 11.6095 5.39554 10.1964 5.46867C9.8722 5.48545 9.84238 5.48263 9.81585 5.43292C9.80003 5.40321 9.56286 4.55193 9.28883 3.54113C9.0148 2.53029 8.75841 1.6397 8.71907 1.56194C8.44185 1.0144 7.76332 0.743968 7.17217 0.945461Z" fill="#FFD700"/>
</svg>
