<svg width="321" height="330" viewBox="0 0 321 330" fill="none" xmlns="http://www.w3.org/2000/svg">
<path d="M1.08685 243.798C2.62881 235.917 5.7659 229.339 10.6842 223.684C21.1703 211.618 31.6412 199.176 41.7704 187.144C43.5174 185.07 45.2644 182.993 47.0115 180.919C53.7376 172.936 61.1474 168.006 69.67 165.849C75.2036 164.447 80.8587 163.194 86.3316 161.982C87.376 161.751 88.4204 161.519 89.4649 161.287C89.8409 161.204 89.9966 161.147 90.0611 161.113C90.0725 161.075 90.0991 160.999 90.1181 160.854C90.2928 159.537 91.2727 158.435 91.8386 157.896C92.1994 157.554 92.5564 157.212 92.9134 156.867C94.5313 155.298 96.2062 153.68 98.1279 152.374C99.2597 151.61 100.604 151.352 101.907 151.113C101.436 150.676 100.976 150.224 100.532 149.757C99.1914 148.329 98.0026 146.757 96.8556 145.234C96.5214 144.785 96.172 144.326 95.834 143.885C95.1997 143.061 94.5655 142.237 93.935 141.409C93.3235 140.611 92.7007 139.791 92.074 138.978C90.6118 139.461 89.1534 139.708 87.7178 139.708C83.3502 139.708 79.3054 137.52 75.6897 133.209C70.3422 126.821 68.9446 120.027 71.5424 113.004C71.5918 112.837 71.7247 112.438 72.0969 112.093C73.1679 111.094 73.0502 110.528 72.0323 108.325C71.8918 108.025 71.7475 107.71 71.6069 107.383C68.6825 100.57 66.5367 94.4551 65.0479 88.6898C63.2629 81.7928 62.3817 75.3211 62.3514 68.9026C62.321 63.1259 63.2249 57.372 65.0365 51.7967C66.795 46.3808 69.3738 41.2422 72.7007 36.5214C76.0126 31.8195 79.9852 27.6418 84.5161 24.1059C89.1344 20.4979 94.2312 17.6304 99.6585 15.5947C104.733 13.692 109.693 12.7653 114.831 12.7653C119.301 12.7653 123.753 13.4641 128.435 14.9035C133.882 16.5784 139.575 17.8735 145.086 19.1268L145.283 19.1686C146.043 19.3433 146.912 19.4231 148.018 19.4231C148.777 19.4231 149.556 19.3851 150.308 19.3509C153.266 19.2066 154.634 17.7406 154.615 14.744C154.611 14.1363 154.497 13.4717 154.379 12.7729C154.231 11.8765 154.075 10.9536 154.102 9.95859C154.144 8.29509 154.292 6.13787 155.059 4.20851C155.921 2.04369 157.926 0.699219 160.3 0.699219C160.593 0.699219 160.893 0.718208 161.193 0.763784L161.637 0.824551C163.38 1.06382 165.351 1.33347 167.076 2.1994C173.301 5.30991 178.526 9.08127 182.605 13.3957C187.098 18.1545 190.372 23.7489 192.336 30.0269C193.969 35.2642 194.546 40.2054 194.049 44.7135C193.487 49.7876 191.55 54.497 188.295 58.6975C187.136 60.1939 185.746 61.1966 184.402 62.165C183.414 62.8791 182.48 63.5551 181.762 64.3526C180.27 66.0086 180.798 69.4267 181.185 71.9143L181.219 72.1194L181.238 72.2524C182.298 79.119 183.338 85.8604 184.121 92.5637C184.698 97.5314 185.135 102.48 185.329 107.436C185.708 117.045 185.18 126.692 183.027 136.616C182.438 139.328 181.671 141.948 180.752 144.406C179.206 148.534 177.167 152.358 174.687 155.769C173.433 157.497 172.043 159.119 170.551 160.592C170.494 160.649 170.425 160.737 170.35 160.839C172.97 163.133 176.35 163.661 180.486 163.661H180.752C189.575 163.661 197.493 166.718 204.96 173.004C212.545 179.392 219.947 184.052 227.592 187.254C228.033 187.44 228.606 187.543 229.164 187.543C229.518 187.543 229.844 187.501 230.114 187.421C237.007 185.328 243.566 181.625 250.752 175.769C251.971 174.778 253.3 173.965 254.584 173.183C255.366 172.704 256.107 172.252 256.825 171.762C256.954 171.675 257.079 171.538 257.136 171.451C257.778 163.338 260.649 155.67 265.906 148.002C269.487 142.784 270.87 136.654 270.383 128.12C270.133 123.676 270.269 119.389 270.79 115.378C271.208 112.15 272.632 109.263 273.756 107.414C275.628 104.322 279.119 102.48 283.091 102.48C285.716 102.48 288.37 103.312 290.562 104.82C294.557 107.566 297.018 111.645 298.313 117.66C300.178 126.335 299.445 135.329 296.073 145.154C295.738 146.13 295.393 147.098 295.028 148.112C295.723 148.086 296.441 148.063 297.147 148.063C298.215 148.063 299.092 148.12 299.912 148.241C303.699 148.807 306.707 149.499 309.373 150.425C314.185 152.093 317.808 155.587 319.57 160.266C321.447 165.241 320.961 171.041 318.272 175.78C317.937 176.369 317.93 176.529 318.203 177.091C320.448 181.724 320.102 186.54 317.117 192.256C316.616 193.217 316.502 193.889 316.68 194.823C318.089 202.252 314.884 209.32 308.321 213.274C302.563 216.737 296.483 218.963 290.247 219.886C289.882 219.939 289.328 220.304 289.054 220.664C288.363 221.583 287.763 222.571 287.125 223.615C286.741 224.242 286.346 224.891 285.928 225.526C283.775 228.792 280.839 230.501 277.197 230.611C272.085 230.767 265.336 230.991 258.484 231.359L257.926 231.39C249.434 231.846 240.649 232.32 232.039 233.015C231.181 233.084 230.327 233.118 229.502 233.118C225.693 233.118 222.176 232.389 218.754 230.888C213.585 228.621 208.28 226.407 203.152 224.265C201.025 223.376 198.902 222.487 196.779 221.595C196.776 221.591 196.772 221.591 196.768 221.587C196.772 222.028 196.776 222.465 196.779 222.894C196.802 225.423 196.821 227.812 196.738 230.228C196.639 232.992 196.483 235.795 196.331 238.507C196.069 243.228 195.796 248.112 195.837 252.89C195.921 262.719 196.403 272.723 196.871 282.4L196.981 284.644L197.019 285.438C197.224 289.631 197.44 293.968 196.255 298.294C195.253 301.967 193.616 304.979 191.253 307.504C191.056 307.717 190.836 308.271 190.809 308.833C190.763 309.726 190.87 310.66 190.98 311.648C191.014 311.959 191.048 312.271 191.079 312.582C191.231 314.158 191.705 315.419 192.666 316.786C194.113 318.849 195.108 321.667 195.389 324.508C196.726 337.952 198.853 351.367 201.709 364.375C201.948 365.461 201.827 366.323 201.344 367.014C200.627 368.036 199.392 368.199 198.986 368.252C198.747 368.283 198.504 368.298 198.211 368.298C198.036 368.298 197.858 368.29 197.676 368.286C197.539 368.279 197.402 368.275 197.265 368.275C194.303 368.264 191.341 368.256 188.378 368.245C181.481 368.222 174.349 368.199 167.334 368.157C163.179 368.134 158.96 368.1 154.877 368.062C149.696 368.021 144.341 367.971 139.077 367.952C126.506 367.907 113.722 367.869 101.36 367.831C89.537 367.793 77.3152 367.759 65.291 367.713C63.7908 367.709 61.6374 367.523 60.3119 365.977C58.9712 364.409 59.1269 362.164 59.3586 360.615C60.4562 353.311 61.512 345.879 62.5337 338.689C62.7881 336.889 63.0426 335.092 63.3008 333.296C62.3969 333.615 61.4551 333.771 60.46 333.771C58.5155 333.771 56.6355 333.148 55.0517 332.536C51.6374 331.222 47.4179 329.096 45.0935 324.299C44.0339 322.119 42.9021 319.912 41.8121 317.778C41.4969 317.162 41.1817 316.547 40.8664 315.932C40.1904 316.072 39.6587 316.133 39.1612 316.133C36.7229 316.133 35.4468 314.519 34.0339 312.415C28.0826 303.535 22.4009 293.649 16.6622 282.191C11.6451 272.183 7.34964 264.063 3.14151 256.638C0.824768 252.556 0.171539 248.473 1.08685 243.798ZM309.111 154.387C308.86 154.276 308.613 154.17 308.363 154.064C307.865 153.859 307.368 153.665 306.87 153.486C306.373 153.308 305.879 153.145 305.381 152.993C301.485 151.815 297.592 151.5 293.714 151.982C293.194 152.047 292.673 152.123 292.153 152.218C290.482 152.514 288.811 152.962 287.147 153.551C286.593 153.749 286.038 153.957 285.488 154.185C284.933 154.413 284.379 154.656 283.828 154.914C280.402 156.517 277.398 158.697 275.389 162.001C272.966 165.985 273.501 172.047 276.073 174.413C279.293 172.86 282.184 170.729 285.378 170.057C285.594 170.011 285.814 169.966 286.031 169.924C286.468 169.837 286.904 169.757 287.341 169.677C294.314 168.45 301.177 168.549 307.74 170.889C308.078 171.01 308.412 171.135 308.746 171.265C309.772 171.671 310.786 172.131 311.796 172.647C312.176 172.845 312.559 173.05 312.935 173.262C313.505 173.585 314.075 173.927 314.637 174.288C314.793 174.083 315.002 173.855 315.157 173.593C319.236 166.608 316.494 157.676 309.111 154.387ZM308.526 173.669C306.84 173.012 305.146 172.495 303.441 172.115C303.004 172.013 302.571 171.925 302.134 171.842C302.035 171.823 301.933 171.804 301.834 171.789C301.09 171.656 300.342 171.546 299.593 171.462C297.786 171.257 295.966 171.185 294.147 171.242C293.752 171.253 293.357 171.272 292.962 171.295C292.165 171.341 291.367 171.413 290.573 171.504C290.178 171.549 289.779 171.603 289.384 171.66C288.188 171.83 286.996 172.051 285.799 172.317C280.543 173.483 276.889 176.943 274.656 181.792C272.772 185.883 274.348 190.649 277.561 192.438C280.49 190.756 283.023 188.967 285.811 187.774C285.97 187.706 286.133 187.638 286.293 187.577C286.616 187.448 286.942 187.334 287.269 187.224C287.432 187.17 287.596 187.121 287.763 187.072C287.987 187.007 288.207 186.946 288.431 186.889C288.446 186.886 288.462 186.878 288.481 186.878C288.591 186.851 288.701 186.825 288.811 186.798C288.822 186.798 288.838 186.791 288.853 186.787C288.925 186.768 289.001 186.753 289.077 186.737C289.107 186.726 289.138 186.722 289.172 186.718C289.309 186.688 289.445 186.661 289.586 186.635C289.647 186.62 289.704 186.608 289.764 186.601C289.833 186.585 289.905 186.57 289.977 186.563C290.095 186.544 290.212 186.525 290.326 186.51C290.49 186.483 290.657 186.46 290.824 186.437C290.919 186.422 291.018 186.411 291.113 186.399C291.2 186.388 291.287 186.377 291.375 186.373C291.576 186.35 291.777 186.331 291.978 186.32C292.089 186.312 292.195 186.304 292.305 186.297C292.335 186.293 292.366 186.289 292.392 186.293C292.461 186.285 292.529 186.282 292.594 186.282C292.67 186.274 292.746 186.274 292.822 186.27C293.084 186.255 293.35 186.251 293.615 186.251H293.999C294.2 186.251 294.405 186.251 294.607 186.259C294.781 186.263 294.96 186.27 295.135 186.278C295.662 186.301 296.19 186.342 296.718 186.392C296.752 186.392 296.779 186.392 296.809 186.399C297.117 186.434 297.429 186.468 297.736 186.506C299.081 186.677 300.425 186.851 301.766 187.06C303.274 187.296 304.77 187.581 306.247 187.96C306.574 188.048 306.901 188.135 307.227 188.23C307.554 188.325 307.88 188.424 308.203 188.53C308.526 188.636 308.845 188.75 309.168 188.868C309.65 189.047 310.129 189.24 310.6 189.449C310.919 189.59 311.234 189.738 311.545 189.89C312.172 190.201 312.791 190.543 313.403 190.919C318.313 184.098 316.224 176.669 308.526 173.669ZM261.549 179.628C262.829 183.722 263.145 187.767 262.867 191.948C262.867 193.653 262.822 195.363 262.875 197.064C263.012 201.405 264.303 205.317 267.637 208.249C273.175 213.118 279.563 216.023 287.041 216.168C291.105 216.247 294.861 215.264 298.496 213.843C298.845 213.707 299.195 213.566 299.54 213.422C300.759 212.92 301.963 212.373 303.163 211.808C303.505 211.644 303.851 211.481 304.193 211.318C304.364 211.234 304.534 211.154 304.705 211.071C310.448 208.302 313.163 203.771 313.16 197.448C313.156 193.802 312.389 192.18 308.86 191.287C304.231 190.121 299.495 189.024 294.755 188.712C291.705 188.511 288.743 188.872 286.05 189.966C285.773 190.08 285.495 190.201 285.226 190.33C285.089 190.395 284.952 190.463 284.819 190.532C284.55 190.668 284.284 190.813 284.022 190.968C282.579 191.815 281.238 192.917 280.034 194.303C277.827 196.84 276.836 199.833 278.279 203.088C279.749 206.407 282.533 207.964 286.107 208.15C287.52 208.222 288.857 208.032 290.144 207.653C290.566 207.527 290.983 207.383 291.394 207.223C291.397 207.223 291.397 207.22 291.397 207.22C291.697 207.106 291.99 206.977 292.282 206.844C292.871 206.574 293.452 206.27 294.026 205.944C294.538 205.655 295.351 205.89 296.023 205.883C295.769 206.559 295.7 207.615 295.229 207.846C293.205 208.838 291.128 209.943 288.948 210.353C288.519 210.433 288.097 210.493 287.675 210.535C287.474 210.554 287.277 210.566 287.079 210.577C287.064 210.581 287.049 210.581 287.034 210.581H286.988C286.92 210.581 286.847 210.581 286.779 210.581C286.646 210.588 286.517 210.588 286.384 210.588C286.251 210.588 286.122 210.585 285.993 210.581C285.864 210.581 285.735 210.569 285.606 210.558C285.533 210.554 285.465 210.547 285.397 210.543C285.389 210.539 285.381 210.539 285.374 210.539C285.355 210.539 285.332 210.535 285.313 210.535C285.252 210.528 285.195 210.524 285.135 210.52C285.104 210.516 285.074 210.513 285.043 210.509C284.922 210.497 284.8 210.482 284.679 210.463C284.61 210.452 284.542 210.444 284.474 210.433C284.227 210.391 283.988 210.342 283.745 210.288H283.741C283.661 210.269 283.577 210.25 283.498 210.228C283.369 210.197 283.243 210.163 283.118 210.129C282.989 210.091 282.867 210.053 282.742 210.015C282.343 209.89 281.956 209.742 281.584 209.574C281.318 209.457 281.059 209.328 280.809 209.187C280.695 209.126 280.585 209.065 280.478 209.001C280.235 208.857 280 208.705 279.772 208.545C279.069 208.051 278.431 207.478 277.877 206.84C277.656 206.585 277.448 206.32 277.254 206.046C277.155 205.906 277.064 205.769 276.973 205.625C276.904 205.518 276.84 205.412 276.775 205.302C276.65 205.085 276.528 204.861 276.418 204.637C276.365 204.523 276.312 204.409 276.259 204.291C276.126 203.98 276.004 203.665 275.898 203.342C275.849 203.179 275.799 203.015 275.754 202.848C275.325 201.23 275.29 199.457 275.746 197.63C275.822 197.33 275.909 197.03 276.012 196.73C276.471 195.366 276.244 194.626 275.287 193.646C270.702 188.952 270.197 184.079 273.737 178.557C274.493 177.379 274.519 176.586 273.783 175.382C269.916 169.047 270.995 162.005 276.479 157.011C280.015 153.79 284.219 151.85 288.754 150.482C289.517 150.251 290.478 149.514 290.695 148.811C292.26 143.692 294.014 138.587 295.021 133.35C296.187 127.284 296 121.105 293.786 115.211C292.161 110.885 289.487 107.467 284.648 106.419C283.961 106.27 283.277 106.206 282.609 106.229C282.453 106.236 282.298 106.248 282.142 106.263C281.861 106.289 281.587 106.331 281.314 106.388C281.189 106.415 281.067 106.445 280.945 106.479C280.163 106.688 279.434 107.026 278.781 107.482C278.674 107.558 278.568 107.634 278.465 107.718C277.881 108.181 277.372 108.747 276.954 109.411C276.863 109.56 276.772 109.711 276.692 109.867C276.608 110.027 276.528 110.186 276.456 110.353C275.408 112.75 274.523 115.325 274.197 117.904C273.794 121.071 273.783 124.345 274.06 127.535C274.804 136.137 273.464 144.109 268.306 151.299C265.495 155.215 263.445 159.582 262.237 164.288C260.934 169.35 259.969 174.561 261.549 179.624V179.628ZM106.331 160.011C107.873 161.481 109.529 162.883 111.311 164.056C118.462 168.758 125.788 173.11 134.611 173.885C136.176 174.026 136.837 175.157 137.269 176.491C138.637 180.691 140.004 184.888 141.379 189.085C141.538 189.571 141.751 190.034 142.119 190.968C142.298 190.072 142.382 189.719 142.435 189.362C143.118 184.808 143.825 180.254 144.463 175.693C144.687 174.079 145.389 173.202 147.042 172.674C148.523 172.199 149.932 171.584 151.242 170.828C151.083 170.843 150.923 170.854 150.764 170.866C150.361 170.9 149.939 170.915 149.442 170.915H149.355C148.986 170.915 148.618 170.908 148.264 170.9C148.029 170.896 147.786 170.892 147.55 170.889H147.372C145.162 170.877 142.928 170.733 140.729 170.452C136.582 169.924 132.355 168.895 128.166 167.395C124.307 166.008 120.471 164.242 116.43 161.99L116.423 161.982C114.364 160.835 112.188 159.586 110.152 158.04C109.294 157.387 108.443 156.718 107.6 156.035C107.376 155.853 107.152 155.67 106.932 155.484C106.711 155.302 106.491 155.12 106.271 154.933C106.077 155.872 105.902 156.802 105.792 157.74C105.705 158.485 105.849 159.552 106.331 160.011ZM141.846 166.229C143.684 166.532 145.469 166.684 147.201 166.684C155.788 166.684 163.073 162.966 169.1 156.039C172.655 151.952 175.173 147.262 176.996 142.195C180.627 132.104 181.329 121.584 181.599 108.732C181.329 105.389 181.052 99.7912 180.395 94.2386C180.353 93.874 180.308 93.5094 180.258 93.1448C180.213 92.7802 180.167 92.4156 180.114 92.051C180.076 91.7624 180.034 91.4699 179.992 91.1813C179.928 90.7103 179.856 90.2394 179.784 89.7684C179.73 89.4418 179.677 89.1152 179.624 88.7886C179.567 88.4278 179.506 88.067 179.442 87.7062C179.328 87.0301 179.202 86.3579 179.073 85.6819C179.035 85.4692 178.994 85.2565 178.948 85.0438C178.921 84.8995 178.895 84.759 178.864 84.6146C178.842 84.4893 178.815 84.364 178.789 84.2387C178.781 84.1779 178.77 84.1171 178.754 84.0564C178.671 83.6196 178.583 83.1828 178.488 82.7499C178.382 82.2333 178.268 81.7168 178.154 81.2003C178.04 80.6838 177.919 80.1711 177.797 79.6545C177.68 79.1608 177.558 78.6671 177.436 78.1733C177.433 78.1544 177.425 78.1354 177.421 78.1164C177.3 77.6416 177.178 77.1669 177.053 76.6959C176.772 75.6363 176.476 74.5805 176.164 73.5285C176.05 73.1411 175.932 72.7575 175.815 72.3701C175.621 71.732 175.416 71.094 175.211 70.4521C175.067 70.0154 174.918 69.5786 174.774 69.1419C174.706 68.9444 174.641 68.7469 174.569 68.5494C174.288 67.7214 173.992 66.8973 173.688 66.0769C173.646 65.9554 173.601 65.83 173.551 65.7047C173.403 65.3059 173.251 64.9109 173.099 64.5122C172.909 64.0184 172.719 63.5247 172.518 63.031C172.328 62.5562 172.138 62.0815 171.941 61.6067C171.926 61.565 171.907 61.5232 171.888 61.4814C171.694 61.0143 171.5 60.5471 171.299 60.0838C171.227 59.9167 171.102 59.7344 170.946 59.5634C170.915 59.5293 170.885 59.4951 170.851 59.4647C170.786 59.3963 170.714 59.3318 170.646 59.2786C170.574 59.2178 170.501 59.1609 170.429 59.1153C170.194 58.9596 169.958 58.8646 169.761 58.8722C169.301 58.8912 168.842 58.8988 168.386 58.8988C168.109 58.8988 167.831 58.895 167.554 58.8874C167.455 58.8874 167.361 58.8836 167.262 58.876C166.996 58.8722 166.73 58.8608 166.468 58.8418C166.236 58.8305 166.005 58.8153 165.773 58.7963C165.591 58.7849 165.408 58.7697 165.226 58.7507C163.677 58.6102 162.15 58.3709 160.638 58.0519C160.22 57.9607 159.799 57.8658 159.385 57.767C159.07 57.6911 158.751 57.6113 158.435 57.5278C157.976 57.41 157.52 57.2809 157.064 57.148C156.745 57.0568 156.426 56.9619 156.111 56.8631C155.75 56.753 155.389 56.639 155.029 56.5213C154.618 56.3846 154.212 56.2441 153.802 56.1035C153.597 56.0314 153.392 55.9592 153.187 55.8871C152.78 55.7389 152.374 55.5908 151.967 55.4389C151.155 55.1351 150.342 54.816 149.533 54.4894C149.328 54.4096 149.127 54.3261 148.925 54.2425C148.72 54.1628 148.519 54.0792 148.318 53.9957C147.414 53.6197 146.506 53.2513 145.598 52.8905C144.345 52.3929 143.088 51.9106 141.827 51.4473C141.485 51.3219 141.14 51.1966 140.794 51.0713C140.448 50.9497 140.103 50.8244 139.757 50.7067C138.948 50.4256 138.135 50.1522 137.323 49.8939C136.954 49.7762 136.586 49.6622 136.214 49.5521C136.024 49.4951 135.838 49.4419 135.652 49.3888C135.443 49.328 135.234 49.271 135.021 49.2141C134.922 49.1875 134.82 49.1609 134.717 49.1381C134.429 49.066 134.14 48.9976 133.848 48.933C133.692 48.9026 133.532 48.8685 133.373 48.8381C133.228 48.8115 133.08 48.7849 132.932 48.7583C132.754 48.7317 132.575 48.7014 132.397 48.6786C132.264 48.6596 132.135 48.6444 132.002 48.6292C131.732 48.5988 131.462 48.576 131.193 48.5608C131.083 48.5532 130.976 48.5494 130.87 48.5456C129.677 48.5077 128.473 48.6254 127.266 48.9748C117.706 51.7549 108.933 56.0769 101.109 62.3246C100.98 62.4271 100.855 62.5296 100.733 62.636C100.673 62.6892 100.612 62.7385 100.551 62.7917C100.46 62.8677 100.369 62.9474 100.278 63.0234C100.186 63.0993 100.099 63.1753 100.012 63.2588C99.9244 63.3348 99.8408 63.4108 99.7572 63.4943C99.5863 63.65 99.423 63.8095 99.2711 63.9729C98.6938 64.5691 98.1925 65.1882 97.7747 65.8338C97.7216 65.9136 97.6684 65.9934 97.6228 66.0731C97.5545 66.1795 97.4899 66.2896 97.4291 66.3997C97.3835 66.4757 97.3418 66.5555 97.3 66.6314C97.0455 67.1062 96.8291 67.5961 96.6543 68.0974C96.6202 68.1924 96.5898 68.2911 96.5594 68.3861C96.529 68.4886 96.4986 68.5911 96.4682 68.6937C96.4379 68.7962 96.4113 68.8988 96.3885 69.0013C96.3619 69.1039 96.3391 69.2102 96.3163 69.3128C96.3049 69.3621 96.2935 69.4153 96.2859 69.4647C96.2669 69.5444 96.2556 69.6242 96.2404 69.7039C96.2214 69.8065 96.2062 69.909 96.191 70.0116C96.1758 70.1141 96.1644 70.2167 96.153 70.323C96.0049 71.6371 96.0884 73.0423 96.4113 74.5577C98.1659 82.8372 98.5875 91.0218 94.9946 99.0696C94.2237 100.79 94.3186 103.095 94.6073 105.048C95.0326 107.923 96.0087 110.71 96.7151 113.547C96.7683 113.771 96.8139 113.992 96.8404 114.212C96.867 114.428 96.8822 114.645 96.8822 114.854C96.8822 114.937 96.8784 115.017 96.8746 115.101C96.8708 115.192 96.8632 115.279 96.8518 115.367C96.8442 115.45 96.8328 115.534 96.8177 115.613C96.8025 115.693 96.7873 115.773 96.7683 115.853C96.7531 115.917 96.7379 115.982 96.7151 116.046C96.7037 116.092 96.6885 116.138 96.6733 116.179C96.6543 116.236 96.6354 116.289 96.6126 116.343C96.5708 116.453 96.5252 116.552 96.472 116.65C96.4454 116.7 96.4189 116.745 96.3923 116.791C96.3581 116.848 96.3201 116.905 96.2821 116.958C96.2555 117 96.2252 117.038 96.1948 117.076C96.1492 117.133 96.1036 117.186 96.0543 117.239C96.0125 117.285 95.9707 117.326 95.9251 117.364C95.9175 117.376 95.9062 117.383 95.8948 117.391C95.8568 117.429 95.815 117.463 95.7732 117.49C95.7238 117.531 95.6745 117.569 95.6213 117.604C95.5757 117.63 95.534 117.66 95.4846 117.683C95.4504 117.706 95.4124 117.725 95.3744 117.74C95.3099 117.774 95.2453 117.801 95.1769 117.828C94.7706 117.983 94.3984 118.052 94.0452 118.052C93.9084 118.052 93.7755 118.04 93.6464 118.021C93.6388 118.021 93.635 118.018 93.6312 118.018C93.5742 118.01 93.5172 117.999 93.4641 117.983C93.4261 117.976 93.3919 117.968 93.3577 117.957C93.3236 117.949 93.2932 117.942 93.2628 117.93C93.202 117.911 93.1412 117.888 93.0805 117.866C93.0767 117.866 93.0729 117.866 93.0691 117.866C92.9666 117.824 92.864 117.778 92.7615 117.725C92.7311 117.71 92.7007 117.691 92.6665 117.672C92.4614 117.562 92.2639 117.421 92.0664 117.262C92.0171 117.224 91.9677 117.182 91.9183 117.14C91.6752 116.935 91.436 116.7 91.1929 116.445C89.5902 114.755 87.8925 113.038 85.9366 111.812C85.8416 111.751 85.7467 111.694 85.6517 111.641C85.5644 111.588 85.4732 111.534 85.3858 111.489C85.2871 111.432 85.1846 111.379 85.082 111.329C84.9985 111.284 84.9149 111.246 84.8314 111.208C84.8124 111.196 84.7934 111.189 84.7744 111.181C84.687 111.139 84.6035 111.101 84.5161 111.067C84.425 111.026 84.33 110.988 84.2351 110.953C83.954 110.843 83.673 110.748 83.3957 110.676C83.3767 110.669 83.354 110.665 83.335 110.661C83.1679 110.615 83.0046 110.577 82.8412 110.547C82.7501 110.528 82.6589 110.513 82.5678 110.498C82.4349 110.479 82.3019 110.46 82.169 110.448C82.093 110.441 82.0209 110.433 81.9487 110.429C81.793 110.418 81.6411 110.414 81.4892 110.414C81.3904 110.414 81.2879 110.414 81.1891 110.422C81.1056 110.425 81.0258 110.429 80.9423 110.437C80.9195 110.437 80.8967 110.437 80.8739 110.444C80.8056 110.448 80.741 110.456 80.6726 110.467C80.5891 110.475 80.5055 110.486 80.422 110.501C80.3498 110.513 80.2814 110.528 80.2093 110.543C80.0764 110.57 79.9434 110.6 79.8105 110.638C79.7079 110.665 79.6092 110.695 79.5067 110.729C79.4041 110.763 79.3054 110.798 79.2066 110.836C79.2028 110.836 79.199 110.839 79.199 110.839C79.0965 110.881 78.9939 110.923 78.8952 110.969L78.6103 111.105C78.6103 111.105 78.5951 111.117 78.5838 111.12C78.4888 111.17 78.3977 111.223 78.3103 111.276C78.2154 111.329 78.1204 111.39 78.0293 111.451C77.9343 111.512 77.8432 111.576 77.7558 111.645C77.6647 111.713 77.5773 111.781 77.4899 111.853C77.4026 111.926 77.319 111.998 77.2355 112.078C77.1519 112.153 77.0684 112.233 76.9886 112.317C76.9127 112.397 76.8367 112.476 76.7607 112.56C76.7569 112.564 76.7493 112.571 76.7455 112.579C76.6924 112.64 76.6354 112.704 76.5822 112.769C76.5291 112.837 76.4721 112.905 76.4189 112.978C76.3088 113.118 76.2062 113.262 76.1113 113.414C76.0619 113.49 76.0125 113.566 75.9632 113.646C75.9252 113.711 75.8872 113.775 75.8454 113.84C75.6062 114.258 75.3973 114.71 75.2226 115.192C75.1884 115.275 75.158 115.363 75.1276 115.454C75.0479 115.686 74.9757 115.929 74.9149 116.176C74.896 116.24 74.8808 116.305 74.8656 116.373C74.839 116.476 74.8162 116.578 74.7934 116.684C73.4755 122.966 77.2127 130.661 83.2932 134.106C84.8238 134.971 86.3657 135.473 87.9115 135.473C89.3129 135.473 90.7182 135.063 92.1158 134.147C92.6703 133.783 93.1526 133.593 93.5742 133.593C94.2275 133.593 94.7554 134.052 95.2339 135.063C97.5165 139.878 100.65 144.125 104.455 147.843C114.907 158.063 127.581 163.851 141.846 166.232V166.229ZM67.6229 245.822C67.376 243.71 67.0494 241.599 66.7342 239.559C66.7038 239.365 66.6734 239.172 66.643 238.978L48.4585 248.518C48.9674 249.525 49.5371 250.653 50.0612 251.804C50.9651 253.786 51.8577 255.814 52.7236 257.77C54.4365 261.64 56.2063 265.64 58.1053 269.479C60.3309 273.968 62.8299 278.29 65.9024 283.395C66.0847 283.695 66.305 283.995 66.5405 284.314C66.9051 284.812 67.3381 285.404 67.6495 286.095C67.9495 284.211 68.0825 282.305 68.223 280.296C68.2952 279.236 68.3749 278.142 68.4774 277.056C69.3434 267.953 69.0813 258.321 67.6229 245.822ZM44.5466 314.196C45.667 316.456 46.8064 318.716 47.8091 321.029C49.7498 325.506 53.3389 327.854 57.7976 329.35C59.4232 329.897 60.8436 329.958 62.1197 329.494C62.3096 329.426 62.4957 329.346 62.678 329.251C63.4148 328.883 64.106 328.321 64.763 327.561C64.9491 327.345 65.1315 327.128 65.3176 326.915C65.6898 326.483 66.0582 326.05 66.4303 325.62C66.8026 325.191 67.1786 324.762 67.5546 324.333C67.9305 323.908 68.3103 323.486 68.6939 323.064C68.8876 322.855 69.0813 322.65 69.275 322.442C69.3661 322.347 69.4573 322.252 69.5485 322.16C70.0118 321.705 70.4904 321.325 70.9917 321.017C71.1892 320.896 71.3943 320.782 71.5993 320.683C71.8044 320.584 72.0133 320.497 72.226 320.425C72.3286 320.387 72.4387 320.353 72.545 320.322C72.7577 320.258 72.9742 320.208 73.1945 320.17C74.3946 319.965 75.6745 320.129 77.0342 320.687C78.4318 321.26 79.7725 321.974 81.1512 322.597C81.3031 322.666 81.455 322.726 81.6069 322.78C81.6753 322.802 81.7436 322.825 81.8082 322.844C81.8386 322.852 81.869 322.859 81.8993 322.867C81.9145 322.871 81.9259 322.874 81.9411 322.878C81.9525 322.878 81.9601 322.886 81.9715 322.886C82.0057 322.897 82.0437 322.905 82.0779 322.912C82.188 322.943 82.2981 322.962 82.4045 322.973C82.4501 322.981 82.4956 322.985 82.5374 322.988C82.5488 322.992 82.5602 322.992 82.5716 322.992C82.5792 322.992 82.5868 322.996 82.5944 322.996C82.64 323 82.6817 323 82.7235 323.004C82.7653 323.007 82.8071 323.007 82.8488 323.007H82.902C82.9286 323.007 82.9552 323.007 82.9818 323.004C83.0084 323.004 83.0349 323.004 83.0615 323.004C83.1223 323 83.1831 322.996 83.24 322.988H83.259C83.259 322.988 83.2704 322.985 83.2742 322.985C83.335 322.977 83.3958 322.966 83.4565 322.954C83.5135 322.939 83.5667 322.928 83.6198 322.912C83.7376 322.882 83.8553 322.84 83.9654 322.795C84.0794 322.745 84.1857 322.692 84.2883 322.628C84.5655 322.457 84.8124 322.233 85.0289 321.955C85.1162 321.841 85.1998 321.72 85.2719 321.591C85.4808 321.241 85.6441 320.831 85.7581 320.364C86.3164 318.112 85.3707 315.75 83.2742 314.754C82.507 314.39 81.7322 314.048 80.9499 313.74C80.5587 313.585 80.1637 313.44 79.7687 313.304C79.3168 313.148 78.8648 313.004 78.4053 312.878C78.0596 312.78 77.7102 312.692 77.357 312.612C76.1341 312.339 74.8846 312.179 73.6009 312.179C73.2439 312.179 72.8831 312.191 72.5185 312.217C71.3639 312.301 70.2245 312.59 68.8648 312.818C69.1193 312.423 69.2104 312.176 69.3852 312.028C69.9283 311.564 70.5549 311.173 71.2385 310.85C71.474 310.74 71.7171 310.638 71.9639 310.546C72.1463 310.474 72.3323 310.406 72.5222 310.349C72.6703 310.303 72.8185 310.258 72.9704 310.216C73.1071 310.178 73.2514 310.14 73.392 310.11C73.4717 310.091 73.5553 310.075 73.6351 310.06C73.8515 310.015 74.068 309.969 74.2883 309.935C74.3832 309.92 74.4782 309.908 74.5769 309.897C74.6833 309.882 74.7858 309.867 74.8884 309.855C74.9947 309.84 75.0972 309.832 75.2036 309.825C75.3023 309.817 75.3973 309.81 75.496 309.806C75.5986 309.798 75.7049 309.794 75.8075 309.787C75.9138 309.779 76.0239 309.779 76.1341 309.779H76.4569C76.6088 309.779 76.7569 309.787 76.9051 309.794C77.019 309.798 77.1329 309.806 77.2469 309.817C77.3988 309.825 77.5507 309.84 77.6988 309.859C77.8128 309.874 77.9267 309.893 78.0406 309.908C78.1812 309.931 78.3255 309.95 78.466 309.977C78.4774 309.977 78.485 309.977 78.4926 309.98C78.7319 310.026 78.9711 310.079 79.2028 310.14C79.9244 310.33 80.6081 310.596 81.2271 310.941C81.888 311.31 82.6096 311.564 83.3008 311.868C84.292 312.297 85.082 312.445 85.7619 312.282C85.8834 312.252 85.9973 312.214 86.1113 312.164C86.3999 312.043 86.6696 311.857 86.9278 311.606C87.0835 311.458 87.2354 311.283 87.3836 311.086C87.5317 310.892 87.6798 310.672 87.8279 310.425C88.9445 308.568 88.8875 306.418 87.3114 304.815C86.7531 304.249 86.1682 303.725 85.5454 303.262C85.3935 303.144 85.2339 303.03 85.0782 302.924C84.9187 302.814 84.7592 302.707 84.5959 302.609C84.4326 302.506 84.2693 302.407 84.1022 302.316C83.8553 302.176 83.6008 302.047 83.3464 301.925C83.0881 301.807 82.8298 301.697 82.564 301.598C82.4766 301.564 82.3893 301.534 82.2981 301.503C82.1196 301.439 81.9373 301.386 81.755 301.333C81.4816 301.257 81.2043 301.192 80.9271 301.139C80.741 301.105 80.5511 301.074 80.3612 301.052C79.7687 300.976 79.161 300.96 78.5382 301.002C75.4239 301.222 72.3551 302.145 69.2674 302.753C68.9066 302.825 68.5458 302.878 68.185 302.939C68.1622 302.764 68.1394 302.59 68.1204 302.415C68.9142 301.971 69.708 301.534 70.5055 301.12C70.7106 301.014 70.9157 300.907 71.1208 300.805L71.2575 300.736C71.4247 300.653 71.5917 300.573 71.7626 300.493C72.3703 300.197 72.9818 299.927 73.5971 299.684C73.8287 299.593 74.0566 299.506 74.2883 299.422C76.7266 298.545 79.2104 298.154 81.793 298.773C82.0816 298.841 82.3741 298.925 82.6665 299.016C82.9552 299.111 83.2476 299.221 83.5439 299.342C84.4288 299.707 85.3213 300.201 86.2328 300.839C87.4254 298.363 87.1785 295.928 85.3707 294.849C85.1618 294.724 84.9529 294.603 84.744 294.481C84.5351 294.363 84.3224 294.246 84.1135 294.132C83.9388 294.037 83.7641 293.946 83.5894 293.854C83.5097 293.813 83.4337 293.771 83.354 293.733C82.9742 293.543 82.5944 293.361 82.2146 293.19C82.2146 293.19 82.2133 293.189 82.2108 293.186C82.0247 293.102 81.8386 293.023 81.6563 292.947C80.7562 292.567 79.8485 292.252 78.9446 292.016C78.5648 291.914 78.1812 291.826 77.7976 291.758C77.7634 291.75 77.7292 291.743 77.6912 291.739C77.4824 291.701 77.2735 291.667 77.0646 291.64H77.0608C77.0608 291.64 77.0342 291.633 77.019 291.633C76.943 291.625 76.8671 291.617 76.7949 291.606C76.7645 291.602 76.7303 291.598 76.7 291.595C76.6582 291.591 76.6202 291.587 76.5784 291.583C76.5063 291.572 76.4341 291.564 76.362 291.56C76.2556 291.553 76.1493 291.545 76.0391 291.538C75.9328 291.53 75.8227 291.523 75.7163 291.519C75.5872 291.515 75.4619 291.511 75.3327 291.511C75.2833 291.511 75.2378 291.507 75.1884 291.507H75.1732C75.1086 291.507 75.0479 291.507 74.9871 291.511C74.9263 291.511 74.8618 291.511 74.7972 291.515C74.6985 291.519 74.5997 291.522 74.4972 291.526C74.4592 291.526 74.425 291.526 74.387 291.526C74.2655 291.534 74.144 291.545 74.0224 291.557C74.0224 291.557 74.0148 291.56 74.0072 291.557C73.9047 291.568 73.8022 291.579 73.6996 291.591C73.6692 291.591 73.6426 291.595 73.6122 291.598C73.4907 291.614 73.373 291.629 73.2553 291.652C73.1337 291.671 73.0122 291.69 72.8945 291.712C72.8679 291.72 72.8413 291.724 72.8109 291.728C72.5564 291.777 72.2982 291.834 72.0399 291.902C71.5196 292.043 70.9993 292.218 70.4789 292.43C69.9586 292.643 69.4421 292.897 68.9256 293.194C68.2382 293.585 67.5507 294.052 66.8709 294.603C62.5374 298.093 58.2458 301.636 53.9124 305.127C51.0107 307.459 48.1053 309.791 45.1201 312.009C44.201 312.692 44.0681 313.247 44.5428 314.196H44.5466Z" fill="#F40009"/>
</svg>
