<svg width="57" height="56" viewBox="0 0 57 56" fill="none" xmlns="http://www.w3.org/2000/svg">
<g id="svgg">
<path id="path0" fill-rule="evenodd" clip-rule="evenodd" d="M24.3675 0.236713C3.24511 2.94191 -7.21427 27.7393 5.56932 44.8039C19.2824 63.1092 48.2214 58.0699 54.8263 36.2265C60.7234 16.7235 44.5795 -2.35184 24.3675 0.236713ZM31.9653 4.36681C48.9845 7.25816 57.5703 26.7719 48.1228 41.0888C37.8254 56.6936 14.742 55.2999 6.49716 38.5757C-0.690723 23.9955 8.57326 6.52683 24.6883 4.27339C27.1807 3.92471 29.5422 3.95506 31.9653 4.36681ZM25.6939 14.102C22.7072 14.6687 20.5732 16.523 20.3982 18.7038C20.2156 20.9797 22.911 21.9482 24.1892 20.0659C26.0863 17.2725 30.8064 17.7511 30.781 20.7343C30.7709 21.9121 30.2636 22.619 28.2818 24.2172C25.8535 26.1752 25.1454 27.5484 25.132 30.326C25.1219 32.4021 25.4237 32.8392 26.927 32.9255C28.8347 33.0349 29.2491 32.6611 29.4061 30.6898C29.5696 28.6389 29.8253 28.195 31.7789 26.5685C35.3228 23.6181 36.4391 20.3278 34.8849 17.4119C33.54 14.8886 29.4022 13.3985 25.6939 14.102ZM26.6362 35.4682C24.4939 35.8837 23.6222 38.548 25.0836 40.2127C26.527 41.8565 29.328 41.2197 29.9418 39.1083C30.5499 37.0163 28.7684 35.0545 26.6362 35.4682Z" fill="#F40009"/>
</g>
</svg>
