<svg width="54" height="54" viewBox="0 0 54 54" fill="none" xmlns="http://www.w3.org/2000/svg">
<g clip-path="url(#clip0_19219_62296)">
<rect x="26.6465" width="38" height="37" rx="18.5" transform="rotate(45 26.6465 0)" fill="#F40009"/>
<path d="M-59.121 -50.4131L-60.2948 -51.5869C-60.4928 -51.7848 -60.4928 -51.9828 -60.2948 -52.1808L-51.7954 -60.6803C-51.5974 -60.8782 -51.3994 -60.8782 -51.2014 -60.6803L-50.1408 -59.6196C-49.9428 -59.4216 -49.8768 -59.2236 -49.9428 -59.0256L-52.4459 -50.809L-52.3894 -50.7525L-47.1285 -56.0133C-46.9305 -56.2113 -46.7325 -56.2113 -46.5345 -56.0133L-45.3607 -54.8396C-45.1627 -54.6416 -45.1627 -54.4436 -45.3607 -54.2456L-53.8601 -45.7462C-54.0581 -45.5482 -54.2561 -45.5482 -54.4541 -45.7462L-55.4865 -46.7785C-55.6939 -46.986 -55.7505 -47.2311 -55.6562 -47.5139L-53.2237 -55.6032L-53.2803 -55.6598L-58.527 -50.4131C-58.725 -50.2151 -58.923 -50.2151 -59.121 -50.4131ZM-47.3977 -38.6898L-52.0222 -43.3143C-52.2202 -43.5123 -52.2202 -43.7102 -52.0222 -43.9082L-43.5228 -52.4077C-43.3248 -52.6056 -43.1268 -52.6056 -42.9288 -52.4077L-38.3043 -47.7832C-38.1158 -47.5946 -38.1205 -47.4013 -38.3185 -47.2034L-39.2801 -46.2417C-39.4781 -46.0437 -39.6714 -46.039 -39.86 -46.2275L-42.8157 -49.1832C-42.9288 -49.2964 -43.0372 -49.3011 -43.1409 -49.1974L-44.9794 -47.3589C-45.0831 -47.2552 -45.0784 -47.1468 -44.9653 -47.0336L-42.547 -44.6153C-42.349 -44.4173 -42.349 -44.2194 -42.547 -44.0214L-43.5086 -43.0597C-43.7066 -42.8617 -43.9046 -42.8617 -44.1026 -43.0597L-46.5209 -45.478C-46.6341 -45.5911 -46.7425 -45.5959 -46.8462 -45.4922L-48.8119 -43.5264C-48.9157 -43.4227 -48.9109 -43.3143 -48.7978 -43.2011L-45.8421 -40.2454C-45.6535 -40.0569 -45.6582 -39.8636 -45.8562 -39.6656L-46.8179 -38.7039C-47.0159 -38.5059 -47.2092 -38.5012 -47.3977 -38.6898ZM-42.4124 -33.7045L-44.3923 -35.6844C-44.5997 -35.8918 -44.6186 -36.1086 -44.4489 -36.3349L-37.4627 -46.3475C-37.293 -46.5738 -37.095 -46.5738 -36.8687 -46.3475L-35.3979 -44.8767C-35.1811 -44.6599 -35.1669 -44.4478 -35.3555 -44.2404L-41.5073 -36.448L-41.4083 -36.349L-33.0362 -42.0059C-32.8382 -42.1473 -32.6543 -42.1332 -32.4846 -41.9635L-30.9007 -40.3795C-30.7216 -40.2004 -30.698 -40.0166 -30.83 -39.828L-36.4727 -31.4134L-36.3596 -31.3003L-28.5955 -37.4521C-28.3787 -37.6501 -28.1618 -37.6407 -27.945 -37.4238L-26.4742 -35.9531C-26.2479 -35.7268 -26.2527 -35.5241 -26.4884 -35.3449L-36.501 -28.387C-36.7273 -28.2173 -36.9347 -28.2267 -37.1232 -28.4153L-39.1173 -30.4093C-39.3153 -30.6073 -39.3294 -30.8195 -39.1597 -31.0457L-33.7998 -38.9512L-33.8564 -39.0078L-41.776 -33.662C-42.0117 -33.5018 -42.2238 -33.5159 -42.4124 -33.7045ZM-28.2227 -19.5147L-29.4106 -20.7026C-29.618 -20.9101 -29.6227 -21.1128 -29.4247 -21.3108L-22.3395 -28.396C-22.2358 -28.4997 -22.2358 -28.6034 -22.3395 -28.7071L-23.9517 -30.3193C-24.1497 -30.5173 -24.1497 -30.7153 -23.9517 -30.9133L-22.9901 -31.8749C-22.7921 -32.0729 -22.5941 -32.0729 -22.3961 -31.8749L-17.0504 -26.5292C-16.8524 -26.3312 -16.8524 -26.1332 -17.0504 -25.9352L-18.012 -24.9736C-18.21 -24.7756 -18.408 -24.7756 -18.606 -24.9736L-20.2182 -26.5858C-20.3313 -26.6989 -20.4398 -26.7036 -20.5435 -26.5999L-27.6287 -19.5147C-27.8267 -19.3167 -28.0247 -19.3167 -28.2227 -19.5147ZM-14.1037 -22.9886L-22.6031 -14.4892C-22.8011 -14.2912 -22.9991 -14.2912 -23.1971 -14.4892L-24.3992 -15.6912C-24.5972 -15.8892 -24.5972 -16.0872 -24.3992 -16.2852L-15.8998 -24.7846C-15.7018 -24.9826 -15.5038 -24.9826 -15.3058 -24.7846L-14.1037 -23.5826C-13.9057 -23.3846 -13.9057 -23.1866 -14.1037 -22.9886ZM-17.2631 -8.5551L-18.8045 -10.0966C-19.5494 -10.8414 -19.9265 -11.6145 -19.9359 -12.4159C-19.9453 -13.2173 -19.5776 -13.9904 -18.8328 -14.7352L-14.3498 -19.2183C-13.605 -19.9631 -12.8318 -20.3308 -12.0305 -20.3214C-11.2291 -20.3119 -10.456 -19.9348 -9.71115 -19.19L-8.16966 -17.6485C-7.43427 -16.9131 -7.06657 -16.14 -7.06657 -15.3292C-7.04772 -14.5184 -7.40598 -13.7453 -8.14137 -13.0099L-8.80605 -12.3452C-9.01347 -12.1378 -9.22089 -12.1378 -9.42831 -12.3452L-10.6162 -13.5331C-10.8142 -13.7311 -10.8095 -13.9338 -10.6021 -14.1412L-10.0223 -14.7211C-9.72058 -15.0228 -9.57444 -15.3009 -9.58387 -15.5555C-9.57444 -15.81 -9.72058 -16.0881 -10.0223 -16.3898L-10.9839 -17.3515C-11.2762 -17.6438 -11.5543 -17.7899 -11.8183 -17.7899C-12.0635 -17.7899 -12.3369 -17.6391 -12.6386 -17.3374L-16.9519 -13.024C-17.2536 -12.7223 -17.4092 -12.4442 -17.4186 -12.1896C-17.4092 -11.9351 -17.2583 -11.6617 -16.9661 -11.3694L-16.0044 -10.4077C-15.7027 -10.106 -15.4293 -9.95517 -15.1842 -9.95517C-14.9202 -9.95517 -14.6373 -10.106 -14.3356 -10.4077L-13.7558 -10.9876C-13.5484 -11.195 -13.3457 -11.1997 -13.1477 -11.0017L-11.9598 -9.81375C-11.7523 -9.60634 -11.7523 -9.39892 -11.9598 -9.1915L-12.6244 -8.52682C-13.3598 -7.79143 -14.1376 -7.42845 -14.9579 -7.43787C-15.7593 -7.4473 -16.5277 -7.81971 -17.2631 -8.5551ZM-11.8878 -3.17988L-13.0899 -4.38196C-13.2879 -4.57995 -13.2879 -4.77794 -13.0899 -4.97593L-4.59048 -13.4754C-4.39249 -13.6733 -4.1945 -13.6733 -3.99651 -13.4754L-2.79443 -12.2733C-2.59644 -12.0753 -2.59644 -11.8773 -2.79443 -11.6793L-6.82494 -7.64879L-6.79666 -7.62051C-6.49496 -7.77136 -6.05655 -7.91749 -5.48144 -8.05891L-0.178136 -9.06301C0.142419 -9.13843 0.425262 -9.05358 0.670392 -8.80845L2.05632 -7.42252C2.16003 -7.31881 2.18831 -7.22453 2.14117 -7.13968C2.11289 -7.05482 2.0139 -7.00297 1.84419 -6.98411L-4.5622 -5.95174L-6.25925 1.74159C-6.3064 1.92072 -6.38653 2.01971 -6.49967 2.03857C-6.59395 2.05743 -6.70709 2.00086 -6.83908 1.86887L-7.87146 0.83649C-8.20144 0.506507 -8.32401 0.185952 -8.23915 -0.125175L-6.93808 -5.75375L-8.87555 -5.59818L-11.2939 -3.17988C-11.4918 -2.98189 -11.6898 -2.98189 -11.8878 -3.17988ZM-0.57953 8.12842L-5.20401 3.50394C-5.402 3.30595 -5.402 3.10796 -5.20401 2.90997L3.29542 -5.58945C3.49341 -5.78744 3.69139 -5.78744 3.88938 -5.58945L8.51386 -0.964975C8.70243 -0.776413 8.69771 -0.583138 8.49972 -0.385148L7.53806 0.576518C7.34007 0.774507 7.14679 0.779221 6.95823 0.590659L4.00252 -2.36505C3.88939 -2.47818 3.78096 -2.4829 3.67725 -2.37919L1.83878 -0.540712C1.73507 -0.437002 1.73978 -0.328579 1.85292 -0.215442L4.27122 2.20286C4.46921 2.40085 4.46921 2.59884 4.27122 2.79683L3.30956 3.7585C3.11157 3.95649 2.91358 3.95649 2.71559 3.7585L0.297283 1.34019C0.184146 1.22706 0.0757225 1.22234 -0.0279865 1.32605L-1.99374 3.29181C-2.09745 3.39552 -2.09274 3.50394 -1.9796 3.61708L0.976105 6.57278C1.16467 6.76134 1.15995 6.95462 0.961963 7.15261L0.000297851 8.11428C-0.197692 8.31227 -0.390968 8.31698 -0.57953 8.12842ZM4.08052 12.7885L2.89259 11.6005C2.68517 11.3931 2.68045 11.1904 2.87844 10.9924L9.96365 3.90721C10.0674 3.8035 10.0674 3.69979 9.96365 3.59608L8.35145 1.98388C8.15346 1.78589 8.15346 1.5879 8.35145 1.38991L9.31312 0.428245C9.5111 0.230256 9.70909 0.230256 9.90708 0.428246L15.2528 5.77397C15.4508 5.97196 15.4508 6.16995 15.2528 6.36794L14.2911 7.32961C14.0932 7.5276 13.8952 7.5276 13.6972 7.32961L12.085 5.7174C11.9718 5.60427 11.8634 5.59955 11.7597 5.70326L4.67449 12.7885C4.4765 12.9865 4.27851 12.9865 4.08052 12.7885Z" fill="#FFFDFC"/>
<path fill-rule="evenodd" clip-rule="evenodd" d="M34.0528 18.8576C33.587 18.6432 33.1145 18.6203 32.6245 18.7883L32.3472 18.8834L29.8117 21.4036L27.2762 23.9238L24.7406 21.4036L22.2051 18.8834L21.9099 18.7819C20.7262 18.3754 19.4808 19.2553 19.4808 20.4982C19.4808 20.692 19.5201 20.9286 19.5822 21.1096L19.6836 21.4048L22.2039 23.9403L24.7241 26.4759L22.2039 29.0114L19.6836 31.547L19.5822 31.8422C19.5201 32.0232 19.4808 32.2598 19.4808 32.4536C19.4808 33.6964 20.7262 34.5764 21.9099 34.1698L22.2051 34.0684L24.7406 31.5482L27.2762 29.028L29.8117 31.5482L32.3472 34.0684L32.6425 34.1698C32.8235 34.232 33.06 34.2712 33.2539 34.2712C34.4967 34.2712 35.3767 33.0258 34.9701 31.8422L34.8687 31.547L32.3484 29.0114L29.8283 26.4759L32.3484 23.9403L34.8687 21.4048L34.9701 21.1096C35.2651 20.2507 34.8465 19.2229 34.0528 18.8576Z" fill="#FFFDFC"/>
</g>
<defs>
<clipPath id="clip0_19219_62296">
<rect width="38" height="37" fill="white" transform="translate(26.6465) rotate(45)"/>
</clipPath>
</defs>
</svg>
