<svg width="59" height="59" viewBox="0 0 59 59" fill="none" xmlns="http://www.w3.org/2000/svg">
<g id="Group 127">
<rect id="Rectangle 89" width="59" height="59" rx="29.5" fill="#F40009"/>
<g id="svgg">
<path id="path0" fill-rule="evenodd" clip-rule="evenodd" d="M40.5686 16.0878C40.4397 16.1294 34.4347 18.0642 27.224 20.3874C20.0134 22.7105 14.013 24.6627 13.8899 24.7255C12.8476 25.2572 12.674 26.785 13.5636 27.598L13.8771 27.8845L19.2263 29.6677L24.5756 31.4509L27.3572 29.519C28.8872 28.4565 31.0774 26.9356 32.2243 26.1394L34.3097 24.6916L31.9885 28.0072C30.7118 29.8308 29.1875 32.0109 28.6012 32.8519L27.5352 34.3812L29.3258 39.7525L31.1163 45.1237L31.4028 45.4372C32.2179 46.3291 33.7436 46.1531 34.2779 45.1057C34.6345 44.4068 43.0003 18.1517 43.0003 17.7316C43.0003 16.4938 41.8077 15.6876 40.5686 16.0878Z" fill="#FFFDFC"/>
</g>
</g>
</svg>
