<svg width="42" height="41" viewBox="0 0 42 41" fill="none" xmlns="http://www.w3.org/2000/svg">
<g id="svgg">
<path id="path0" fill-rule="evenodd" clip-rule="evenodd" d="M10.6258 0.0745654C10.0507 0.246639 9.89335 0.551927 9.73791 1.79664L9.64841 2.51263L9.00249 2.73287C8.64729 2.85399 8.09179 3.08704 7.76811 3.25074L7.17955 3.54849L6.59739 3.07598C5.30844 2.03 5.09338 2.06473 3.57551 3.56533C1.94552 5.17662 1.90645 5.37092 2.94716 6.69211C3.17463 6.98076 3.38525 7.25814 3.41522 7.30858C3.44529 7.35901 3.34773 7.66781 3.1985 7.99491C3.04927 8.3219 2.84691 8.83481 2.74884 9.13452C2.65076 9.43423 2.52809 9.68071 2.4762 9.68205C1.3985 9.7113 0.519528 9.96254 0.210519 10.3298L0 10.58V12.3224C0 14.6548 0.0147786 14.6776 1.67382 14.8943C2.76465 15.0368 2.66502 14.9754 2.90747 15.6543C3.01061 15.9429 3.19912 16.3894 3.32644 16.6464L3.55794 17.1137L3.0813 17.6971C1.88702 19.1586 1.93084 19.4421 3.60259 21.0733C5.08263 22.5175 5.3289 22.5414 6.75293 21.3778L7.33137 20.9051L8.08621 21.2601C8.50136 21.4553 8.99195 21.6593 9.17643 21.7132L9.51169 21.8114L9.60739 22.6286C9.74566 23.8106 9.80995 24.0063 10.1533 24.2893L10.4523 24.5358H12.1775C14.0757 24.5358 14.2112 24.5063 14.4907 24.0333C14.606 23.8381 14.8436 22.5249 14.8536 22.0273C14.8553 21.9443 15.0161 21.852 15.3204 21.7591C15.5758 21.6812 16.0997 21.4701 16.4845 21.29L17.1844 20.9626L18.0019 21.5785C19.2747 22.5372 19.4652 22.4916 21.0908 20.8372C22.1519 19.7574 22.3554 19.4531 22.2484 19.1068C22.2312 19.0508 22.1964 18.9105 22.1713 18.7949C22.1462 18.6794 21.8767 18.2735 21.5723 17.8931L21.019 17.2014L21.3236 16.5691C21.4911 16.2214 21.7062 15.6964 21.8015 15.4024L21.9748 14.8679L22.5938 14.8123C24.4212 14.6482 24.545 14.484 24.545 12.2229C24.545 9.96254 24.4341 9.81806 22.5596 9.63606L21.9872 9.58046L21.8026 9.0043C21.701 8.68734 21.4932 8.17928 21.3406 7.87533L21.0633 7.32263L21.396 6.90645C22.5997 5.40037 22.58 5.24783 20.9726 3.64398C19.4627 2.13738 19.2139 2.06741 18.1913 2.86143C17.2979 3.5552 17.436 3.52399 16.729 3.19225C16.3857 3.03123 15.8512 2.8141 15.5411 2.70972L14.9773 2.52008L14.9105 2.0022C14.7299 0.605151 14.5503 0.23186 13.983 0.0742553C13.6259 -0.0249582 10.9574 -0.0246482 10.6258 0.0745654ZM13.5677 8.06725C14.6333 8.37667 15.6965 9.30494 16.2007 10.3658C18.2494 14.676 12.6657 18.6145 9.29094 15.2397C6.10783 12.0567 9.23668 6.80931 13.5677 8.06725ZM29.9402 12.6681C28.8513 12.7721 28.5702 13.0633 28.5166 14.1426L28.4813 14.8512L27.906 15.1179C27.5894 15.2647 27.1521 15.4962 26.9339 15.6325L26.5374 15.8804L25.9931 15.5185C24.9633 14.8337 24.5516 14.9598 23.4596 16.2942C22.4814 17.4896 22.4593 17.8457 23.3047 18.7898L23.7627 19.3012L23.5803 19.8179C23.4799 20.1021 23.3561 20.5227 23.3051 20.7527L23.2121 21.1711L22.4533 21.3572C21.2941 21.6415 21.0997 21.9175 21.1938 23.1453C21.3545 25.2437 21.4925 25.4392 22.8898 25.547L23.6165 25.6031L24.0439 26.4136L24.4713 27.224L24.1975 27.6364C23.3377 28.9313 23.412 29.2639 24.8215 30.4288C26.0456 31.4405 26.5476 31.4272 27.5677 30.3559C27.847 30.0626 27.8758 30.0594 28.3896 30.2634C28.6065 30.3495 28.9875 30.4762 29.2364 30.5448L29.6889 30.6696L29.8197 31.3216C30.0892 32.6651 30.2896 32.8104 31.7713 32.7364C33.7153 32.6395 34.0708 32.3544 34.0719 30.8911L34.0724 30.3433L34.4558 30.1805C34.8642 30.0073 35.2466 29.8148 35.657 29.5759L35.9095 29.429L36.4364 29.7722C37.6852 30.5858 38.0367 30.4341 39.6315 28.3933C40.0172 27.8999 39.8748 27.2623 39.2288 26.5896L38.7495 26.0904L38.9244 25.6563C39.0206 25.4174 39.1599 24.9883 39.2339 24.7027C39.3825 24.1287 39.3668 24.1402 40.248 23.9659C40.6355 23.8893 40.7942 23.8077 41.0473 23.5545L41.3633 23.2387L41.3073 22.0541C41.2195 20.1968 41.0202 19.915 39.7219 19.8123L39.0097 19.7558L38.8395 19.3366C38.7459 19.1059 38.5469 18.7141 38.3974 18.4658L38.1255 18.0143L38.3638 17.6619C39.1939 16.4348 39.1341 16.1343 37.8378 15.0216C36.5892 13.9498 36.1871 13.9021 35.3025 14.7212L34.8355 15.1535L34.3925 14.9732C34.1488 14.8741 33.6922 14.73 33.3779 14.653L32.8064 14.5129L32.707 13.9737C32.4556 12.6091 32.1356 12.4581 29.9402 12.6681ZM31.9893 19.137C35.1343 19.81 35.8332 23.9909 33.0734 25.6215C30.957 26.8719 28.2542 25.5892 27.8337 23.1347C27.4326 20.7932 29.6703 18.6406 31.9893 19.137ZM15.5828 24.5903C15.061 24.6956 14.6139 25.3634 14.6139 26.0376C14.6139 26.1842 14.5339 26.2445 14.1901 26.3571C13.957 26.4333 13.5895 26.5843 13.3734 26.6925L12.9806 26.8893L12.6871 26.6541C11.8784 26.0061 11.396 26.058 10.5342 26.8856C9.58661 27.7955 9.5429 28.2136 10.2867 29.2552C10.4395 29.4694 10.4392 29.4734 10.2285 29.93C10.1118 30.1827 9.96476 30.5208 9.90162 30.6814C9.79279 30.9581 9.76396 30.9755 9.35429 31.0099C8.32619 31.0964 8.07402 31.445 8.07402 32.7798V33.7333L8.37755 34.0523C8.58828 34.2739 8.77337 34.386 8.98306 34.4191C9.14925 34.4453 9.40989 34.4862 9.56233 34.5097C9.79641 34.5461 9.85459 34.5994 9.93665 34.8529C9.99008 35.018 10.1185 35.3221 10.2221 35.5287L10.4103 35.9044L10.1628 36.2151C9.73833 36.7477 9.65648 36.9748 9.67994 37.5549C9.69089 37.828 10.728 38.9565 11.1194 39.1211C11.6359 39.3384 11.9377 39.2673 12.5834 38.7763L12.9346 38.5092L13.348 38.7188C13.5755 38.834 13.8888 38.9723 14.0442 39.0261C14.3209 39.1219 14.3288 39.1371 14.4239 39.7517C14.5847 40.7919 14.9897 41.0516 16.3584 40.992C17.4301 40.9453 17.6849 40.7373 17.8646 39.7634L17.9647 39.2209L18.4895 39.0347C18.7781 38.9323 19.1312 38.7997 19.274 38.7402C19.5098 38.6419 19.5505 38.6475 19.7181 38.8016C20.5666 39.5822 21.2066 39.506 22.1437 38.5126C22.8995 37.7113 22.9511 37.3148 22.399 36.5463C22.0674 36.0847 22.071 36.1732 22.3589 35.5683C22.4888 35.2955 22.6197 34.9733 22.6497 34.8524C22.7062 34.6257 22.6908 34.6317 23.5477 34.5013C24.2046 34.4012 24.4643 33.9171 24.4643 32.7927C24.4643 31.5968 24.1729 31.198 23.2276 31.1004L22.7918 31.0554L22.6495 30.6013C22.5713 30.3515 22.4362 30.0071 22.3494 29.8358C22.1926 29.5266 22.1926 29.5233 22.3505 29.3513C23.1385 28.4938 23.0281 27.8207 21.9362 26.824C21.2619 26.2083 20.3809 26.2117 19.8665 26.8315C19.7885 26.9255 19.6787 26.8999 19.1907 26.6745C18.8702 26.5264 18.5087 26.3803 18.3873 26.3499C18.2658 26.3194 18.1663 26.2712 18.1661 26.2427C18.1601 25.5854 17.8786 24.9224 17.5289 24.7422C17.3079 24.6284 15.9281 24.5207 15.5828 24.5903ZM17.5383 30.1703C19.532 31.152 19.7034 33.8579 17.8503 35.0954C16.6879 35.8715 15.1211 35.6775 14.2015 34.6433C12.1173 32.2995 14.7352 28.7902 17.5383 30.1703Z" fill="white"/>
</g>
</svg>
