<svg width="31" height="31" viewBox="0 0 31 31" fill="none" xmlns="http://www.w3.org/2000/svg">
<g id="svgg">
<path id="path0" fill-rule="evenodd" clip-rule="evenodd" d="M5.5003 0.101647C4.80559 0.349423 4.60482 0.780765 4.57049 2.09983L4.54514 3.07496L2.85703 3.07626C0.783651 3.07788 0.501619 3.16781 0.140862 3.94256L0 4.24502V15.3759V26.5067L0.140862 26.8092C0.296087 27.1426 0.561989 27.3975 0.92889 27.5647C1.17275 27.6759 10.9197 27.7469 10.9197 27.6376C10.9197 27.616 10.8279 27.4337 10.7157 27.2326C8.15041 22.6312 9.03806 16.7148 12.8685 12.8844C17.2064 8.54638 23.7226 8.06964 28.7451 11.7228C28.9666 11.8838 29.1651 12.0156 29.1862 12.0156C29.2072 12.0156 29.217 10.2672 29.2077 8.13032L29.1911 4.24502L29.0566 3.9934C28.6702 3.2705 28.2469 3.07496 27.0686 3.07496H26.1749L26.1496 2.09983C26.1094 0.558566 25.7867 0.0906642 24.7207 0.0279906C23.4475 -0.046972 23.0415 0.461022 23.0409 2.12986L23.0406 3.07496H15.36H7.67944L7.67913 2.12986C7.67867 0.983456 7.63228 0.791134 7.2676 0.426536C6.86552 0.0243807 6.10753 -0.114945 5.5003 0.101647ZM20.7304 12.3193C13.9282 12.8584 10.0582 20.5024 13.63 26.3438C16.87 31.6422 24.4069 32.273 28.4613 27.5851C33.8762 21.3241 28.9848 11.6651 20.7304 12.3193ZM22.2318 15.5697C22.9271 15.9341 23.0395 16.3472 23.0401 18.5411L23.0406 19.9962H23.8177C25.7029 19.9962 26.5478 20.909 25.8959 22.2413C25.5468 22.9549 25.2867 23.0264 23.0406 23.0264C20.7847 23.0264 20.5362 22.9571 20.1778 22.2273L20.0104 21.8864V19.2162C20.0104 16.248 20.0138 16.2209 20.4418 15.8182C20.8493 15.4349 21.7389 15.3114 22.2318 15.5697Z" fill="black"/>
</g>
</svg>
