<svg width="22" height="21" viewBox="0 0 22 21" fill="none" xmlns="http://www.w3.org/2000/svg">
<g id="svgg">
<path id="path0" fill-rule="evenodd" clip-rule="evenodd" d="M10.5715 0.0971009C10.0905 0.2749 9.74017 0.592805 9.51247 1.0581L9.38365 1.32133L9.37283 4.89629L9.36195 8.47124L5.787 8.48212L2.21204 8.49294L1.93158 8.62997C0.80714 9.17942 0.548724 10.6823 1.42756 11.5611C1.56459 11.6982 1.75962 11.8377 1.93158 11.9217L2.21204 12.0588L5.787 12.0696L9.36195 12.0805L9.37283 15.6554L9.38365 19.2304L9.52068 19.5108C9.60473 19.6828 9.74422 19.8778 9.8813 20.0148C10.7601 20.8937 12.263 20.6353 12.8124 19.5108L12.9495 19.2304L12.9603 15.6554L12.9712 12.0805L16.5461 12.0696L20.1211 12.0588L20.4015 11.9217C20.5735 11.8377 20.7685 11.6982 20.9056 11.5611C21.7844 10.6823 21.526 9.17942 20.4015 8.62997L20.1211 8.49294L16.5461 8.48212L12.9712 8.47124L12.9603 4.89629L12.9495 1.32133L12.8124 1.04087C12.4138 0.22495 11.391 -0.205778 10.5715 0.0971009Z" fill="#FFFDFC"/>
</g>
</svg>
