<svg width="18" height="17" viewBox="0 0 18 17" fill="none" xmlns="http://www.w3.org/2000/svg">
<path id="path0" fill-rule="evenodd" clip-rule="evenodd" d="M8.56539 0.367615C7.83857 0.615368 7.79536 0.701794 7.0812 3.33599C6.76778 4.49193 6.49652 5.46558 6.4783 5.49968C6.44784 5.5567 6.4145 5.56001 6.05965 5.54103C4.13223 5.43804 1.86648 5.38296 1.65953 5.43401C0.561586 5.70498 0.174578 7.1241 0.987782 7.89731C1.11047 8.01398 1.79129 8.46056 3.00972 9.2236C4.31466 10.0409 4.84943 10.3929 4.8563 10.4392C4.86159 10.475 4.50492 11.4494 4.06364 12.6047L3.26132 14.7051L3.25963 15.104C3.25599 15.9586 3.86122 16.578 4.69637 16.5743C5.22505 16.572 5.27889 16.5367 7.24075 14.9048C8.19347 14.1123 9.00133 13.464 9.03607 13.464C9.07081 13.464 9.86161 14.0992 10.7934 14.8757C12.6101 16.3895 12.6869 16.4472 12.9874 16.5244C13.9576 16.7739 14.8115 16.1076 14.8076 15.104L14.8061 14.7051L14.0036 12.6044C13.5623 11.4489 13.2055 10.4747 13.2108 10.4394C13.2175 10.3945 13.77 10.0309 15.0574 9.22436C16.2779 8.45971 16.9564 8.01441 17.0793 7.89748C17.9136 7.10351 17.4809 5.64626 16.3431 5.41775C16.1783 5.38466 13.6398 5.45668 12.0238 5.54031C11.6531 5.5595 11.619 5.55628 11.5887 5.49943C11.5706 5.46545 11.2994 4.49193 10.986 3.33599C10.6726 2.18001 10.3794 1.16154 10.3344 1.07262C10.0174 0.446457 9.24142 0.13719 8.56539 0.367615Z" fill="#FFD700"/>
</svg>
