<svg width="20" height="20" viewBox="0 0 20 20" fill="none" xmlns="http://www.w3.org/2000/svg">
<g id="edit">
<path id="path0" fill-rule="evenodd" clip-rule="evenodd" d="M16.0812 0.0730226C15.5486 0.188344 15.3996 0.295264 14.4274 1.25969L13.5355 2.14451L15.6969 4.30136L17.8583 6.45826L18.7045 5.61275C19.8645 4.45359 20.0128 4.18709 19.9798 3.32173C19.9489 2.51463 19.8145 2.28778 18.7235 1.20253C17.5981 0.0830745 17.0724 -0.141617 16.0812 0.0730226ZM6.76968 8.91312L1.22845 14.4544L0.607584 16.9322C-0.0665411 19.6225 -0.0831442 19.7195 0.0986896 19.9013C0.280523 20.0831 0.377491 20.0665 3.06779 19.3924L5.5456 18.7716L11.0869 13.2303C14.1346 10.1827 16.6282 7.67144 16.6282 7.64988C16.6282 7.59872 12.401 3.37184 12.3499 3.37184C12.3284 3.37184 9.81735 5.8654 6.76968 8.91312Z" fill="#FFFDFC" fill-opacity="0.5"/>
</g>
</svg>
