<svg width="16" height="20" viewBox="0 0 16 20" fill="none" xmlns="http://www.w3.org/2000/svg">
<g id="delete">
<path id="path0" fill-rule="evenodd" clip-rule="evenodd" d="M4.43164 0.546609L3.88604 1.09327H1.94304H0V2.22557V3.35792H7.80905H15.6181V2.22557V1.09327H13.6751H11.7321L11.1865 0.546609L10.6409 0H7.80905H4.9772L4.43164 0.546609ZM1.1323 11.2236C1.1323 15.9873 1.14509 18.0973 1.17488 18.242C1.33481 19.0195 1.97323 19.6948 2.76953 19.9289C3.09224 20.0237 12.5259 20.0237 12.8486 19.9289C13.6449 19.6948 14.2833 19.0195 14.4432 18.242C14.473 18.0973 14.4858 15.9873 14.4858 11.2236V4.4121H7.80905H1.1323V11.2236Z" fill="#FFFDFC" fill-opacity="0.5"/>
</g>
</svg>
