<svg width="20" height="20" viewBox="0 0 20 20" fill="none" xmlns="http://www.w3.org/2000/svg">
<g id="svgg">
<path id="path0" fill-rule="evenodd" clip-rule="evenodd" d="M8.79898 0.0775219C1.98531 0.901917 -1.99724 8.24615 1.02394 14.4154C4.21865 20.939 13.2154 21.9683 17.76 16.3302C23.3882 9.3476 17.6842 -0.997563 8.79898 0.0775219ZM11.1303 1.95304C17.3334 2.78816 20.2831 10.1942 16.3595 15.0821C12.4438 19.9602 4.74437 18.8104 2.43381 13.0025C0.138932 7.23403 4.95018 1.12107 11.1303 1.95304ZM9.73742 3.66925C9.51271 3.74169 9.32013 3.89391 9.20461 4.09047L9.08795 4.28887V7.28854C9.08795 10.1292 9.09215 10.2961 9.16698 10.4372C9.29546 10.6793 12.1211 13.4842 12.3199 13.5668C12.9454 13.8268 13.6176 13.4142 13.6304 12.7623C13.6391 12.3247 13.6249 12.3058 12.232 10.9044L10.9413 9.60575L10.9294 6.94734L10.9176 4.28887L10.7994 4.08791C10.5987 3.74643 10.1035 3.55123 9.73742 3.66925Z" fill="#FFFDFC"/>
</g>
</svg>
