<svg width="21" height="20" viewBox="0 0 21 20" fill="none" xmlns="http://www.w3.org/2000/svg">
<g id="READY">
<path id="path0" fill-rule="evenodd" clip-rule="evenodd" d="M9.0182 0.0183556C2.87296 0.679086 -1.21415 6.56667 0.325919 12.5397C1.69437 17.847 7.20323 21.0612 12.5627 19.6793C17.87 18.3109 21.0842 12.802 19.7023 7.44251C18.726 3.65615 15.5679 0.782667 11.6371 0.10439C11.1793 0.0254043 9.47381 -0.0306356 9.0182 0.0183556ZM15.3715 6.06951C16.0176 6.39685 16.3136 7.19241 16.0316 7.84304C15.9037 8.13829 9.41787 14.6575 9.09328 14.8171C8.7096 15.0058 8.25583 15.0104 7.87135 14.8295C7.56926 14.6874 4.19022 11.2984 4.03245 10.9794C3.4813 9.86473 4.5975 8.65845 5.77658 9.09442C5.99489 9.17515 6.09383 9.26349 7.22302 10.3867C7.88965 11.0498 8.4518 11.5924 8.47215 11.5924C8.49254 11.5924 9.73977 10.3646 11.2437 8.86401C13.3817 6.73089 14.0192 6.11645 14.1659 6.04752C14.5332 5.87495 15.0046 5.88355 15.3715 6.06951Z" fill="#32CD32"/>
</g>
</svg>
