<svg width="40" height="41" viewBox="0 0 40 41" fill="none" xmlns="http://www.w3.org/2000/svg">
<path fill-rule="evenodd" clip-rule="evenodd" d="M12.8313 0.187229C12.486 0.557181 12.5569 0.914472 13.1616 1.85307C18.6517 10.373 19.9488 20.838 16.7394 30.7176C16.087 32.7256 16.5038 33.0081 18.6661 32.0243C23.935 29.6267 30.1564 28.9774 35.5968 30.2573C37.6101 30.7309 37.7384 30.5558 37.3469 27.87C35.5839 15.777 26.7154 4.86636 15.0772 0.47243C13.6779 -0.0558879 13.1239 -0.126221 12.8313 0.187229ZM12.1955 4.23735C11.8132 4.40638 11.7423 4.70038 11.6749 6.3947C11.3543 14.462 8.29062 22.8068 3.08821 29.7823C2.19498 30.9799 2.09464 31.2887 2.48276 31.6441C2.82376 31.9561 3.02561 31.9615 3.93268 31.6826C6.78561 30.805 9.8451 30.9482 12.5985 32.0879C13.876 32.6168 14.0743 32.522 14.5259 31.1669C17.2911 22.8688 16.9576 13.8733 13.5686 5.34146C13.1104 4.18788 12.8256 3.95883 12.1955 4.23735ZM31.4905 33.6834C22.9349 34.0405 21.3499 34.1047 13.2663 34.4224C-1.22566 34.992 0.486126 34.897 0.220854 35.1462C-0.18696 35.5293 -0.114869 35.7722 1.16718 38.3336C1.81624 39.6302 2.42814 40.7639 2.52695 40.8529C2.69763 41.0066 3.47586 41.0135 17.7626 40.9897L32.8184 40.9646L33.5053 40.7548C36.5139 39.8357 39.3596 36.6635 39.3656 34.222C39.3678 33.3179 39.7014 33.3407 31.4905 33.6834Z" fill="#FFFDFC"/>
</svg>
