<svg width="42" height="41" viewBox="0 0 42 41" fill="none" xmlns="http://www.w3.org/2000/svg">
<path fill-rule="evenodd" clip-rule="evenodd" d="M6.64813 0.0826584C2.93889 0.626784 0.297272 3.5086 0.0503093 7.28037L0 8.04767L3.22547 12.4318C4.99938 14.843 6.45082 16.833 6.45082 16.854C6.45082 16.875 6.16305 16.994 5.81143 17.1185C4.26046 17.6676 3.04289 18.7337 2.35722 20.1433L1.95791 20.9643H0.985886H0.0138596V30.9821V41H20.5184H41.0231V30.9821V20.9643L40.0639 20.9614L39.1048 20.9587L38.7476 20.2155C38.0159 18.6929 36.8255 17.6541 35.1739 17.097L34.6169 16.9091L37.82 12.5055L41.0231 8.10202V7.46426C41.0231 3.80303 38.0885 0.543626 34.3752 0.0808032C33.5019 -0.0281092 7.39087 -0.0263631 6.64813 0.0826584ZM34.9338 2.73944C36.5588 3.29045 37.8813 4.63319 38.3357 6.19332L38.3916 6.38506H20.528L2.66443 6.38517L2.78709 6.03737C3.43434 4.203 5.07534 2.83635 6.96647 2.55698C7.24551 2.51573 13.4974 2.48735 20.8595 2.4939L34.2451 2.5059L34.9338 2.73944ZM22.0488 14.0499C22.4219 14.2335 22.7781 14.4986 23.0631 14.8047C23.9467 15.7534 24.1818 15.9613 24.5617 16.1293C25.1184 16.3755 25.9739 16.4161 26.7507 16.2332C28.4616 15.8303 29.8011 16.3969 30.9166 17.9951C31.5184 18.8573 32.0891 19.1296 33.7119 19.3284C34.5859 19.4355 35.2193 19.7522 35.8649 20.4046L36.3765 20.9217L20.6111 20.9432C11.9401 20.9551 4.82892 20.9481 4.80862 20.9278C4.604 20.7232 5.96214 19.7046 6.81183 19.4254C8.17891 18.9762 8.82234 18.3231 9.31867 16.8807C10.0801 14.6673 12.4537 13.8177 14.4346 15.0494C15.5805 15.7619 17.0334 15.6265 18.0703 14.7105C19.2586 13.6608 20.7541 13.4125 22.0488 14.0499ZM22.5221 25.7814V28.126H20.5611H18.6001V25.7814V23.4368H20.5611H22.5221V25.7814Z" fill="#FFFDFC"/>
</svg>
