<svg width="41" height="41" viewBox="0 0 41 41" fill="none" xmlns="http://www.w3.org/2000/svg">
<path fill-rule="evenodd" clip-rule="evenodd" d="M34.0257 0.943792C30.9301 4.10289 27.6056 4.82147 19.7109 4.03809C11.4357 3.21695 8.15386 3.80522 5.11135 6.65529L4.53218 7.19781L4.70077 7.71453C4.79351 7.99879 6.09853 12.6398 7.60079 18.0277C9.10306 23.4158 10.3436 27.8365 10.3574 27.8516C10.3713 27.8667 10.7073 27.5967 11.1039 27.2518C14.0914 24.6536 17.7018 23.9714 24.6692 24.6886C30.8746 25.3274 33.6066 25.2072 36.197 24.1814C38.3774 23.318 40.7585 21.2924 40.9124 20.17C41.0028 19.5106 40.9681 19.4685 39.8454 18.8702C37.3572 17.5443 33.2107 14.514 33.0594 13.9111C33.034 13.8103 33.1932 12.9991 33.4147 12.0995C34.4356 7.95406 35.5579 1.66923 35.4889 0.483572C35.4451 -0.268892 35.1109 -0.163766 34.0257 0.943792ZM1.21555 7.02942C0.441079 7.2712 0.00327585 7.8605 2.67847e-07 8.66568C-0.00173989 9.10184 8.47619 39.6968 8.77274 40.3243C9.38404 41.618 12.1538 40.9032 12.1538 39.4518C12.1538 39.1692 3.48993 8.12592 3.31858 7.79458C2.96174 7.10445 2.04427 6.77065 1.21555 7.02942Z" fill="#FFFDFC"/>
</svg>
