<svg width="41" height="29" viewBox="0 0 41 29" fill="none" xmlns="http://www.w3.org/2000/svg">
<path fill-rule="evenodd" clip-rule="evenodd" d="M11.0871 0.457961C10.8916 0.668905 10.8907 0.677412 10.8907 2.35123V4.03274L11.6515 5.05077L12.4122 6.06869V17.4112V28.7538H20.5001H28.5879V17.4112V6.06869L29.3486 5.05077L30.1094 4.03274V2.35123C30.1094 0.180084 30.1494 0.244864 28.812 0.248554C27.5968 0.252039 27.4669 0.362943 27.4669 1.39614C27.4669 2.16274 27.3917 2.24802 26.7164 2.24802C26.084 2.24802 26.0254 2.18529 26.0254 1.50868C26.0254 0.412758 25.8376 0.246094 24.6032 0.246094C23.4524 0.246094 23.3702 0.317434 23.3064 1.37267C23.2553 2.21675 23.2302 2.24504 22.5318 2.24679C21.9148 2.24832 21.8887 2.21368 21.8445 1.33474C21.7936 0.320406 21.6997 0.246094 20.4695 0.246094C19.284 0.246094 19.2065 0.311899 19.1423 1.37267C19.0917 2.20835 19.0609 2.24556 18.4181 2.24556C17.7752 2.24556 17.7443 2.20835 17.6937 1.37267C17.6299 0.317434 17.5478 0.246094 16.3969 0.246094C15.1625 0.246094 14.9747 0.412758 14.9747 1.50868C14.9747 2.18395 14.9154 2.24802 14.2904 2.24802C13.6263 2.24802 13.5332 2.1408 13.5332 1.37554C13.5332 0.365096 13.3984 0.252039 12.1881 0.248554C11.3112 0.246094 11.2774 0.252551 11.0871 0.457961ZM21.2666 9.33556C22.2563 9.73531 22.4526 10.259 22.489 12.598L22.5187 14.4999H20.5084H18.4981V12.8692C18.4981 11.9724 18.5344 11.0444 18.5788 10.8073C18.8101 9.56967 20.099 8.86396 21.2666 9.33556ZM0.426814 9.96747C-0.0183418 10.1693 0.000108106 9.75305 0.000108106 19.5796V28.7538H5.49717H10.9942L10.9364 19.5648C10.8723 9.34899 10.9207 10.0948 10.3103 9.92975C9.01291 9.57921 8.31837 9.95968 8.25195 11.0575C8.2006 11.9067 8.1761 11.9344 7.47716 11.9362C6.86134 11.9377 6.83397 11.902 6.79061 11.0388C6.73875 10.0047 6.47399 9.80655 5.23118 9.87174C4.27896 9.92176 4.14848 10.0571 4.0879 11.0575C4.03706 11.8983 4.00672 11.935 3.36343 11.935C2.72004 11.935 2.6897 11.8983 2.63886 11.0575C2.57685 10.0335 2.45252 9.91274 1.42342 9.87768C0.901593 9.85985 0.605267 9.8865 0.426814 9.96747ZM30.6199 9.90628C30.5263 9.92699 30.364 10.035 30.2595 10.1463L30.0693 10.3488L30.0483 19.5513L30.0273 28.7538H35.5137H41V19.6197C41 12.8289 40.9761 10.4406 40.9068 10.3105C40.7318 9.98193 40.5947 9.94062 39.6697 9.93806C38.4902 9.93468 38.3575 10.039 38.3575 10.9696C38.3575 11.8208 38.2657 11.9374 37.5967 11.9374C36.9251 11.9374 36.8359 11.8223 36.8359 10.9551C36.8359 10.0057 36.4823 9.7719 35.2019 9.87461C34.3627 9.94195 34.1934 10.1468 34.1934 11.0947C34.1934 11.8526 34.1173 11.9374 33.4367 11.9374C32.8044 11.9374 32.7794 11.9051 32.7355 11.0324C32.683 9.98552 31.9711 9.60647 30.6199 9.90628Z" fill="#FFFDFC"/>
</svg>
