<svg width="68" height="67" viewBox="0 0 68 67" fill="none" xmlns="http://www.w3.org/2000/svg">
<g clip-path="url(#clip0_23284_2877)">
<circle cx="34.0742" cy="33.5" r="33.5" fill="#333333"/>
<path fill-rule="evenodd" clip-rule="evenodd" d="M32.8312 19.081C30.0527 19.3939 27.3343 20.5399 25.0914 22.3441C24.5451 22.7835 22.9741 24.3484 22.9741 24.4532C22.9741 24.5078 22.9939 24.5029 24.27 24.131C24.9552 23.9313 25.4775 23.827 26.4835 23.6889L27.8003 23.508L28.422 23.1722L29.0438 22.8364L29.709 23.0307L30.3743 23.2248L31.5148 23.1618C32.1421 23.1271 32.6575 23.0942 32.6601 23.0887C32.7511 22.8999 33.3718 21.9762 33.4202 21.9576C33.4578 21.9432 33.7093 21.9694 33.9789 22.0158C34.4285 22.0932 34.581 22.0897 35.8148 21.9732L37.1603 21.8461L37.482 21.5065C37.659 21.3197 37.8116 21.1455 37.8213 21.1194C37.831 21.0934 38.0874 20.9082 38.3912 20.7079L38.9435 20.3437L39.5545 20.4389C40.7629 20.627 41.2019 20.5404 40.5485 20.2427C38.3992 19.2635 35.3229 18.8004 32.8312 19.081ZM37.1672 19.9606C37.6945 20.2606 37.7142 20.1801 36.9759 20.7387C36.1945 21.3298 36.3274 21.2713 35.5905 21.3498L34.9568 21.4175L34.6667 21.2313L34.3765 21.0452L34.7154 20.8369C35.0794 20.6132 36.678 19.7161 36.7139 19.7154C36.7258 19.7152 36.9298 19.8255 37.1672 19.9606ZM32.4211 21.0502C32.54 21.2538 32.6283 21.4278 32.6172 21.4369C32.5855 21.4634 30.7654 21.938 30.6955 21.938C30.6609 21.938 30.4349 21.8223 30.1934 21.6808L29.7541 21.4237L29.9472 21.2898C30.0534 21.2161 30.2663 21.0521 30.4203 20.9253L30.7004 20.6949L31.021 20.8176L31.3414 20.9402L31.7646 20.8052C31.9973 20.7309 32.1916 20.6723 32.1964 20.6752C32.2011 20.6779 32.3023 20.8467 32.4211 21.0502ZM37.8106 22.324L37.7721 22.6515L38.7678 23.6727C39.8987 24.8324 39.8708 24.7775 39.4419 25.0016C39.0642 25.199 38.9544 25.1847 38.0986 24.8264L37.5844 24.6112L37.6139 24.2434L37.6435 23.8757L37.0391 23.6328C36.3683 23.3632 36.3424 23.3648 36.2849 23.6777C36.2626 23.7987 36.1796 24.176 36.1003 24.5161L35.9561 25.1345L35.3443 25.2702C35.0079 25.345 34.7325 25.4267 34.7325 25.452C34.7325 25.5437 34.86 26.4137 34.8758 26.4296C34.9157 26.47 36.399 26.7365 36.4578 26.714C36.4941 26.7001 36.5734 26.383 36.6341 26.0093C36.6948 25.6357 36.7632 25.2997 36.786 25.2628C36.8639 25.1367 38.0367 25.3608 38.3689 25.5652C38.6265 25.7237 38.7011 25.7405 39.1496 25.7405H39.6455L39.974 26.3986C40.2881 27.0277 40.3412 27.096 41.1817 27.9499L42.0608 28.8431L42.0218 29.1754C42.0003 29.3581 41.9765 29.514 41.9687 29.5217C41.9611 29.5293 41.6421 29.4936 41.2599 29.4423L40.565 29.349L39.3014 29.9808L38.0377 30.6127L37.1496 31.6802C36.4984 32.463 36.2447 32.812 36.199 32.9882C36.1646 33.1203 36.1092 33.3337 36.0757 33.4625C35.9869 33.8047 35.6588 33.7969 34.8495 33.4332C34.5273 33.2884 34.2394 33.1699 34.2098 33.1699C34.0979 33.1699 33.036 33.6921 33.036 33.7471C33.036 33.8711 33.2858 34.8985 33.3269 34.943C33.3508 34.969 33.4819 34.8571 33.6182 34.6943L33.8659 34.3985H34.2735H34.6811L34.6692 34.9382L34.6573 35.478L35.0177 35.5841C35.3773 35.69 35.4792 35.772 35.973 36.3532L36.1178 36.5238L36.7262 36.3569L37.3346 36.19L38.0079 36.2881C38.3783 36.342 39.0204 36.4794 39.4349 36.5932C39.8494 36.7071 40.3891 36.8271 40.6342 36.8599C40.928 36.8993 41.1096 36.9543 41.1675 37.0216C41.2158 37.0777 41.5228 37.4252 41.8499 37.7939L42.4445 38.4642L43.705 39.1954C44.3982 39.5976 44.9665 39.9485 44.9677 39.975C44.9689 40.0017 44.6029 40.7244 44.1543 41.5811L43.3387 43.1388L42.4508 43.5509L41.563 43.9631L41.2315 44.8699L40.8999 45.7766L39.615 46.6393L38.3303 47.5019L38.1887 47.9993C38.014 48.6135 37.9772 48.5888 38.7422 48.3712C47.3777 45.9148 51.881 36.3423 48.3154 28.022C47.8465 26.9279 47.0685 25.5913 46.9311 25.644C46.6685 25.7449 46.3103 25.8027 45.6134 25.8568C45.1791 25.8906 44.6702 25.9345 44.4825 25.9544L44.1412 25.9907L43.8175 26.4945C43.6395 26.7715 43.4856 27.0075 43.4753 27.0187C43.2842 27.2294 41.2001 25.4002 41.0318 24.8739C40.9733 24.691 40.8315 24.2839 40.7168 23.9694L40.5082 23.3976L39.9095 22.8432L39.3109 22.2888L38.5932 22.1427C38.1984 22.0622 37.8695 21.9965 37.8623 21.9965C37.855 21.9965 37.8318 22.1439 37.8106 22.324ZM22.1294 26.2899L21.6064 26.4164L21.2686 27.0583C18.9154 31.5305 19.0202 37.0896 21.5401 41.4542C24.4877 46.5596 30.3264 49.5685 36.0082 48.9102C36.5333 48.8494 36.4846 48.974 36.3903 47.9327L36.3101 47.0468L36.6594 45.6401L37.0087 44.2334L36.6641 43.0262C36.3423 41.8987 36.2845 41.7536 35.7893 40.8309C35.1559 39.6508 35.1644 39.9328 35.727 38.7567C36.2919 37.576 36.2932 37.709 35.7143 37.5312C35.2492 37.3884 35.215 37.3652 34.6688 36.821L34.1041 36.2585L32.9705 36.0017C32.3469 35.8605 31.7818 35.7321 31.7146 35.7165C31.6241 35.6954 31.4895 35.4689 31.1929 34.8384C30.7261 33.8464 30.6961 33.8253 30.6961 34.4901V34.9912L30.5387 34.9727C30.4081 34.9574 30.1984 34.706 29.3102 33.5003L28.239 32.0463V30.8501V29.6539L27.4699 28.3992C27.0469 27.7091 26.6693 27.1445 26.6307 27.1445C26.5921 27.1445 26.0498 27.2365 25.4254 27.349C24.4446 27.5257 24.167 27.5533 23.3835 27.5525L22.4768 27.5515L22.0881 27.2996L21.6993 27.0477L22.2173 26.6427C22.6844 26.2774 22.8225 26.1373 22.6962 26.1567C22.672 26.1604 22.417 26.2203 22.1294 26.2899Z" fill="#FFFDFC"/>
</g>
<defs>
<clipPath id="clip0_23284_2877">
<rect width="67" height="67" fill="white" transform="translate(0.574219)"/>
</clipPath>
</defs>
</svg>
