<svg width="85" height="85" viewBox="0 0 85 85" fill="none" xmlns="http://www.w3.org/2000/svg">
<g id="Group">
<path id="Vector" d="M68.4049 21.6623C67.5583 18.9518 66.1439 16.5358 64.2019 14.4801C62.4864 12.6653 60.3214 11.0981 57.7693 9.82204C56.6773 9.27436 55.6054 9.12713 54.8234 9.02005L54.6818 9.00108C54.4275 8.96427 54.1653 8.94531 53.9043 8.94531C51.7404 8.94531 49.8297 10.2359 49.0355 12.2325C48.5737 13.3936 48.4878 14.5303 48.4655 15.3925C48.4655 15.4025 48.4655 15.4126 48.4655 15.4226C46.7946 15.04 45.0936 14.6373 43.5018 14.1488C41.5231 13.5398 39.6269 13.2442 37.705 13.2442C35.4797 13.2442 33.3403 13.6413 31.1641 14.4578C28.9221 15.2999 26.8195 16.4811 24.9155 17.9691C23.0516 19.4247 21.4153 21.1436 20.0533 23.0778C18.6803 25.0253 17.6161 27.1468 16.89 29.3844C16.1382 31.7 15.7634 34.0926 15.7757 36.493C15.788 39.0507 16.136 41.6162 16.8387 44.3356C17.3908 46.4716 18.1694 48.7136 19.2134 51.1743C17.9474 54.7057 18.6814 58.3565 21.2837 61.4641C23.6885 64.333 26.2886 64.9342 28.0454 64.9342C28.0967 64.9342 28.1469 64.9342 28.1982 64.9331C28.2551 65.0078 28.312 65.0814 28.3689 65.155C28.4849 65.3067 28.6042 65.464 28.7213 65.6202C29.1608 66.2024 29.6583 66.8627 30.2617 67.503C30.7347 68.0038 31.2277 68.4344 31.6214 68.7779L31.8456 68.9742C32.5684 69.6123 33.3213 70.2291 34.0832 70.808C34.9766 71.4873 35.8645 71.9982 36.6966 72.4622L36.7256 72.4778C38.3095 73.3601 39.8276 74.0573 41.3658 74.6094C43.0769 75.2229 44.8125 75.6445 46.5258 75.862C47.4382 75.978 48.3673 76.0394 49.2998 76.0438C49.3556 76.0438 49.4125 76.0449 49.4683 76.0461L49.6612 76.0494C49.7739 76.0516 49.8899 76.0527 50.0048 76.0527C50.2714 76.0527 50.5045 76.0449 50.7443 76.0271C51.273 75.9881 51.9021 75.9278 52.5535 75.7784C52.9384 75.6913 53.3087 75.5787 53.6556 75.4448C53.669 75.4404 53.7292 75.4236 53.7292 75.4236C53.8329 75.3935 53.9735 75.3512 54.1363 75.2954L54.2367 75.2597C54.5067 75.1626 54.7766 75.0544 55.032 74.9384C56.0437 74.4856 56.8814 73.9401 57.6377 73.417C58.0347 73.1426 58.4631 72.8347 58.907 72.4455C59.1859 72.2001 59.4313 71.9569 59.6599 71.7004C59.8094 71.5319 59.9243 71.3791 60.0068 71.2653C60.598 70.663 61.149 70.0116 61.6465 69.3267C62.6995 67.8778 63.565 66.2582 64.2198 64.5114C64.6024 63.4886 64.9203 62.4044 65.1623 61.2878C66.986 52.882 65.8082 45.2513 64.5611 37.1734L64.541 37.0485C64.5154 36.8856 64.4964 36.7473 64.4808 36.6302C65.0407 36.2253 65.7747 35.6754 66.4361 34.821C67.9654 32.8467 68.8767 30.6236 69.1433 28.2143C69.3708 26.1608 69.1221 23.9567 68.406 21.6634L68.4049 21.6623Z" fill="white"/>
<path id="Vector_2" d="M72.1179 0H12.8821C5.7675 0 0 5.7675 0 12.8821V72.1179C0 79.2325 5.7675 85 12.8821 85H72.1179C79.2325 85 85 79.2325 85 72.1179V12.8821C85 5.7675 79.2325 0 72.1179 0Z" fill="#EC2227"/>
<g id="Group_2">
<g id="Group_3">
<path id="Vector_3" d="M50.2713 75.0107C50.1642 75.0107 50.056 75.0085 49.9512 75.0074L49.7671 75.004C49.6913 75.0029 49.6166 75.0007 49.5407 75.0007C48.674 74.9962 47.804 74.9393 46.9496 74.8311C45.3367 74.6259 43.6981 74.2266 42.0785 73.6465C40.6006 73.1156 39.1349 72.4419 37.6 71.5863L37.58 71.5752C36.788 71.1335 35.947 70.6505 35.1361 70.0348C34.391 69.4681 33.6537 68.8647 32.9454 68.2389L32.7078 68.0304C32.3152 67.6879 31.8668 67.2953 31.4507 66.8558C30.9131 66.2847 30.4569 65.6802 30.0163 65.0957C29.8913 64.9295 29.7642 64.7622 29.6404 64.6004C29.4117 64.3048 29.1797 64.0014 28.9488 63.698C28.9488 63.698 28.7201 63.3991 28.7068 63.3813C28.3141 63.4593 27.9215 63.4995 27.5356 63.4995C25.5802 63.4995 23.7989 62.5592 22.244 60.7031C20.0332 58.064 19.4353 55.1171 20.5117 52.1768C20.5864 51.9403 20.7024 51.7284 20.8575 51.5443C20.8263 51.4707 20.7861 51.3815 20.737 51.2755L20.7192 51.2376C20.669 51.1283 20.6166 51.0145 20.5664 50.8963C19.4666 48.3342 18.6568 46.0263 18.0923 43.8423C17.4119 41.2077 17.0751 38.7314 17.0628 36.2697C17.0505 34.021 17.4019 31.7801 18.1069 29.6095C18.7895 27.5058 19.7911 25.5103 21.0839 23.6765C22.3678 21.8528 23.9104 20.2321 25.6672 18.8601C27.4608 17.458 29.4396 16.3459 31.5489 15.554C33.5466 14.8044 35.5053 14.4397 37.5376 14.4397C39.3011 14.4397 41.0501 14.7141 42.8838 15.2785C44.8492 15.8819 46.925 16.3537 48.9317 16.8111L49.0142 16.83C49.2172 16.8758 49.4604 16.897 49.7805 16.897C50.0248 16.897 50.288 16.8847 50.5435 16.8724H50.5714C51.0421 16.8479 51.1023 16.8144 51.099 16.2935C51.099 16.1597 51.0655 15.9622 51.0298 15.7525L51.0265 15.7313C50.9662 15.3711 50.8982 14.9617 50.9104 14.4921C50.9294 13.786 50.9952 12.8625 51.3432 11.988C51.8329 10.7565 52.9706 9.99023 54.3114 9.99023C54.4776 9.99023 54.6427 10.0025 54.8033 10.0259L54.9583 10.0471C55.6521 10.1419 56.511 10.2602 57.3119 10.6617C59.7223 11.8675 61.7546 13.3343 63.3508 15.023C65.1266 16.9025 66.4205 19.1133 67.1946 21.5918C67.8437 23.6698 68.0713 25.6464 67.8705 27.4645C67.6396 29.5448 66.8499 31.4689 65.5214 33.1844C64.9949 33.8648 64.3904 34.301 63.8561 34.6858C63.5427 34.9122 63.2471 35.1264 63.0586 35.335C62.8712 35.6038 63.0508 36.7683 63.1188 37.2055L63.1389 37.3282C64.3982 45.4842 65.5872 53.1851 63.7858 61.4828C63.5583 62.5335 63.2605 63.553 62.9013 64.5112C62.2945 66.1308 61.4936 67.6299 60.5221 68.9673C60.038 69.6343 59.4981 70.2668 58.9181 70.8446C58.9081 70.8591 58.8791 70.9004 58.8791 70.9004C58.8121 70.994 58.7218 71.1223 58.6002 71.2595C58.4273 71.4547 58.2366 71.6421 58.0168 71.8362C57.6465 72.1608 57.265 72.4341 56.9081 72.6817C56.2143 73.1613 55.4513 73.6599 54.569 74.0548C54.3538 74.1518 54.1296 74.2422 53.9043 74.3236L53.8239 74.3526C53.7035 74.3939 53.5942 74.4262 53.4982 74.4552L53.4659 74.4653C53.4057 74.4831 53.332 74.5043 53.303 74.5166C53.032 74.6248 52.7342 74.7162 52.4218 74.7865C51.8898 74.9092 51.3655 74.9594 50.8792 74.9951C50.6885 75.0085 50.4977 75.0152 50.278 75.0152L50.2713 75.0107ZM29.695 59.011C30.178 59.011 30.8517 59.2151 31.3146 60.1911C32.0731 61.7918 33.1417 63.2697 34.488 64.5859C37.9893 68.0092 42.4287 70.1898 47.6846 71.0666C48.297 71.1681 48.8993 71.2205 49.4771 71.2205C52.2713 71.2205 54.6382 70.0616 56.714 67.6757C57.8562 66.3617 58.7407 64.8079 59.4189 62.9228C60.6414 59.5241 60.9448 55.9704 61.0508 50.9889C61.0251 50.6576 60.9984 50.2705 60.9682 49.8422C60.8868 48.6643 60.7864 47.1975 60.6135 45.7408C60.1272 41.6349 59.0664 37.6182 57.458 33.799C57.4056 33.799 57.352 33.799 57.2996 33.799C54.5055 33.799 51.9389 32.9145 49.582 31.9597C48.1855 31.393 46.8191 30.8487 45.4471 30.4048C44.6016 30.1304 43.9 29.9486 43.2252 29.9486C42.9206 29.9486 42.6396 29.9865 42.3674 30.0646C38.9051 31.064 35.7841 32.6479 33.0926 34.7728C31.9091 35.7075 31.531 36.7081 31.8299 38.118C32.3921 40.7682 32.8327 44.2695 31.2343 47.8467C31.1529 48.0308 31.0358 48.4825 31.1774 49.434C31.2722 50.0764 31.4552 50.7234 31.6481 51.4072C31.7452 51.7496 31.8444 52.1043 31.9348 52.4635C32.2549 53.744 31.7262 54.9598 30.6799 55.3558C30.41 55.4584 30.1367 55.5108 29.8679 55.5108C29.009 55.5108 28.4223 55.0078 28.0063 54.5694C27.4731 54.0061 26.9009 53.4238 26.284 53.0379C25.9238 52.8115 25.5612 52.6921 25.2355 52.6921C24.5596 52.6921 24.0454 53.2253 23.858 54.1176C23.4687 55.9704 24.6321 58.315 26.4514 59.3456C26.8719 59.5843 27.26 59.7048 27.6047 59.7048C27.9226 59.7048 28.2305 59.6044 28.545 59.3981C28.9443 59.1371 29.3202 59.011 29.6939 59.011H29.695Z" fill="white"/>
<path id="Vector_4" d="M66.1269 21.9219C65.403 19.6052 64.1961 17.5416 62.5375 15.786C61.0328 14.1942 59.1053 12.8033 56.8098 11.6555C56.1728 11.3365 55.4456 11.2372 54.8042 11.1491L54.6391 11.1268C54.5298 11.1112 54.4183 11.1034 54.3101 11.1034C53.4345 11.1034 52.6949 11.5998 52.3782 12.3984C52.0948 13.11 52.0402 13.9053 52.0235 14.5188C52.0145 14.8858 52.0714 15.2271 52.1272 15.5573C52.1707 15.8161 52.212 16.0604 52.2131 16.2846C52.2209 17.3911 51.7156 17.9309 50.6236 17.9833C50.347 17.9967 50.0603 18.0112 49.7792 18.0112C49.371 18.0112 49.0508 17.9811 48.7698 17.9175L48.6973 17.9019C46.6649 17.4401 44.5635 16.9627 42.5546 16.3448C40.8268 15.8138 39.186 15.5562 37.5363 15.5562C35.6412 15.5562 33.8108 15.8975 31.9402 16.5991C29.9369 17.3509 28.0574 18.4083 26.353 19.7401C24.6821 21.0441 23.2164 22.5856 21.9951 24.319C20.7681 26.0613 19.8155 27.9564 19.1674 29.9541C18.4993 32.0098 18.1658 34.1336 18.1781 36.2652C18.1892 38.6332 18.5138 41.0203 19.1719 43.5634C19.7218 45.6906 20.5138 47.9471 21.5924 50.4601C21.6437 50.5806 21.6972 50.6955 21.7485 50.807C22.1244 51.6202 22.1668 51.8287 21.772 52.198C21.6348 52.3262 21.5868 52.4723 21.5678 52.5337C20.6097 55.1237 21.125 57.6312 23.0971 59.987C24.4311 61.5776 25.9236 62.384 27.5343 62.384C28.063 62.384 28.6006 62.2926 29.1405 62.1152C29.3714 62.4153 29.6023 62.7175 29.8276 63.012C30.0607 63.3165 30.2938 63.6222 30.527 63.9256C30.6519 64.0895 30.7813 64.2591 30.9051 64.4241C31.3289 64.9863 31.7662 65.5663 32.2614 66.0917C32.6362 66.4888 33.0478 66.848 33.4449 67.196C33.5241 67.2663 33.6044 67.3354 33.6825 67.4046C34.3674 68.0091 35.0835 68.5958 35.8096 69.148C36.5592 69.718 37.3634 70.1798 38.1219 70.6025L38.1252 70.6047C39.6155 71.4368 41.0309 72.0883 42.4531 72.598C43.9991 73.1524 45.5573 73.5305 47.0888 73.7257C47.9008 73.8294 48.724 73.883 49.5394 73.8863C49.6487 73.8863 49.7591 73.8897 49.8685 73.8908C49.999 73.893 50.135 73.8952 50.27 73.8952C50.4674 73.8952 50.6325 73.8897 50.7898 73.8785C51.2282 73.8462 51.6989 73.8027 52.1673 73.6945C52.4217 73.6365 52.6637 73.5628 52.8868 73.4736C52.966 73.4424 53.0608 73.4145 53.1601 73.3855C53.2527 73.3576 53.3497 73.3297 53.4512 73.294C53.4735 73.2851 53.4969 73.2784 53.5192 73.2695C53.7167 73.1981 53.9141 73.1189 54.106 73.033C54.9035 72.6761 55.6151 72.2109 56.2665 71.7614C56.5956 71.5328 56.9458 71.2829 57.2738 70.9962C57.4567 70.8356 57.6162 70.6795 57.7601 70.5166C57.8415 70.4251 57.9073 70.3326 57.9642 70.2511C58.01 70.1864 58.0557 70.1206 58.0891 70.0872C58.6391 69.544 59.1533 68.9461 59.6151 68.3081C60.5297 67.0499 61.2815 65.6377 61.8526 64.1163C62.1928 63.2094 62.475 62.2424 62.6914 61.2429C64.4482 53.1472 63.2748 45.5467 62.0322 37.4989L62.0244 37.4509L62.0121 37.375C61.8704 36.4559 61.6752 35.1966 62.2252 34.5854C62.4906 34.2909 62.8342 34.0422 63.1989 33.7789C63.6953 33.4209 64.2073 33.0505 64.6345 32.4995C65.8358 30.9491 66.5497 29.2135 66.7571 27.3407C66.9412 25.6776 66.7292 23.8538 66.1258 21.923L66.1269 21.9219ZM62.1671 50.9565C62.0679 55.697 61.8069 59.5787 60.4684 63.3009C59.7958 65.1704 58.8666 66.9004 57.556 68.4073C55.3318 70.9639 52.6448 72.3348 49.4781 72.3348C48.8389 72.3348 48.1808 72.279 47.5026 72.1663C42.2401 71.2885 37.5642 69.1524 33.7093 65.3834C32.3049 64.0114 31.1494 62.4443 30.3072 60.6685C30.1299 60.2948 29.9358 60.1253 29.6948 60.1253C29.5387 60.1253 29.3613 60.1967 29.1572 60.3294C28.6408 60.6674 28.1232 60.818 27.6056 60.818C27.0357 60.818 26.4668 60.6339 25.9013 60.3138C23.6582 59.0422 22.2795 56.2057 22.7658 53.8867C23.0714 52.4255 24.0519 51.5733 25.2354 51.5733C25.7574 51.5733 26.3173 51.7384 26.8773 52.0898C27.599 52.5426 28.2247 53.1751 28.8159 53.7997C29.1427 54.1444 29.4651 54.3931 29.8677 54.3931C29.9971 54.3931 30.1354 54.3675 30.2849 54.3106C30.8058 54.1131 31.0322 53.4528 30.8527 52.7322C30.5916 51.686 30.2325 50.6564 30.0752 49.5968C29.9681 48.8773 29.9335 48.0263 30.2169 47.3905C31.5431 44.4223 31.3881 41.4029 30.74 38.3477C30.3463 36.4894 30.9185 35.0683 32.402 33.896C35.2987 31.6083 38.5324 30.0088 42.0605 28.9904C42.4509 28.8788 42.8402 28.8309 43.225 28.8309C44.0984 28.8309 44.9572 29.0718 45.7905 29.3417C47.216 29.8035 48.6114 30.3612 50.0001 30.9245C52.3525 31.8782 54.7295 32.6824 57.2983 32.6824C57.4522 32.6824 57.6062 32.6791 57.7601 32.6735C57.7634 32.6735 57.7668 32.6735 57.769 32.6735C57.9787 32.6735 58.2988 32.929 58.3881 33.1398C60.0947 37.1352 61.2079 41.2969 61.7176 45.6091C61.9597 47.6582 62.0634 49.7228 62.1627 50.9554L62.1671 50.9565Z" fill="#EC2227"/>
<path id="Vector_5" d="M61.7221 45.6103C61.2113 41.2992 60.0992 37.1364 58.3926 33.1409C58.3022 32.9301 57.9821 32.6747 57.7735 32.6747C57.7702 32.6747 57.7679 32.6747 57.7646 32.6747C57.6107 32.6803 57.4556 32.6836 57.3028 32.6836C54.734 32.6836 52.357 31.8794 50.0046 30.9257C48.6148 30.3624 47.2205 29.8047 45.7949 29.3429C44.9617 29.073 44.1028 28.832 43.2295 28.832C42.8435 28.832 42.4542 28.8789 42.065 28.9915C38.5369 30.0099 35.3032 31.6094 32.4065 33.8972C30.9218 35.0695 30.3507 36.4906 30.7445 38.3489C31.3926 41.4029 31.5476 44.4224 30.2214 47.3916C29.938 48.0274 29.9726 48.8774 30.0797 49.5979C30.237 50.6576 30.5961 51.6871 30.8572 52.7334C31.0367 53.454 30.8103 54.1154 30.2894 54.3117C30.1399 54.3686 30.0016 54.3943 29.8722 54.3943C29.4684 54.3943 29.1472 54.1455 28.8204 53.8009C28.2292 53.1762 27.6035 52.5438 26.8818 52.0909C26.3218 51.7396 25.7619 51.5745 25.2399 51.5745C24.0564 51.5745 23.077 52.4255 22.7703 53.8879C22.284 56.2068 23.6626 59.0445 25.9058 60.315C26.4702 60.6351 27.039 60.8191 27.6101 60.8191C28.1277 60.8191 28.6453 60.6685 29.1617 60.3306C29.3658 60.1967 29.5432 60.1264 29.6993 60.1264C29.9403 60.1264 30.1344 60.296 30.3117 60.6697C31.1539 62.4454 32.3094 64.0126 33.7138 65.3846C37.5687 69.1536 42.2445 71.2896 47.5071 72.1675C48.1853 72.2801 48.8434 72.3359 49.4826 72.3359C52.6493 72.3359 55.3363 70.9639 57.5605 68.4085C58.8711 66.9004 59.8003 65.1715 60.4729 63.3021C61.8125 59.5799 62.0724 55.6982 62.1717 50.9576C62.0724 49.724 61.9686 47.6593 61.7266 45.6114L61.7221 45.6103ZM27.9749 58.9084C27.9024 58.9162 27.8321 58.9207 27.7618 58.9207C27.1874 58.9207 26.71 58.6574 26.3408 58.1388C25.7518 57.3089 25.7228 56.5582 26.2605 55.5153C26.1043 55.4115 25.985 55.3669 25.8712 55.3669C25.6291 55.3669 25.3034 55.5543 24.6632 56.0574L24.236 56.3931L24.2047 55.8499C24.1646 55.1784 24.3163 54.6408 24.6431 54.295C24.9097 54.0106 25.2912 53.8611 25.7429 53.8611C25.8522 53.8611 25.966 53.87 26.0831 53.8868C26.6977 53.9749 27.2722 54.3095 27.647 54.5739C27.9827 54.8114 28.2839 55.0524 28.2906 55.3814C28.295 55.7116 28.0128 55.9536 27.6425 56.2347C27.4294 56.3965 27.3023 56.6441 27.2844 56.9308C27.261 57.3011 27.4161 57.6792 27.7094 57.9681C27.744 58.0027 27.7819 58.0361 27.8232 58.0718C27.9425 58.1778 28.0775 58.2994 28.1868 58.4767L28.4222 58.8593L27.9749 58.9073V58.9084ZM54.0413 36.4816C54.1305 36.3232 54.3648 36.0723 54.6035 36.012C54.7128 35.9841 54.8299 35.9708 54.9548 35.9708C56.3224 35.9708 58.5744 37.6863 58.7841 39.2267L58.9369 40.3477L58.2732 39.4308C57.4166 38.2485 56.2577 37.9718 55.0318 37.6763C54.908 37.6461 54.7842 37.6171 54.6604 37.5859C54.3146 37.5 54.0681 37.0739 53.9867 36.8107C53.9554 36.7081 53.9733 36.5976 54.0402 36.4805L54.0413 36.4816ZM58.6324 46.1981C58.5264 46.7982 57.8639 47.4485 57.2682 47.5344C57.2136 47.5433 57.1567 47.5467 57.0987 47.5467C56.5611 47.5467 55.8126 47.1842 55.5572 46.6454C55.2705 46.0397 55.121 45.4485 54.9783 44.8752C54.9426 44.7336 54.9069 44.5908 54.8678 44.4458C54.8076 44.2171 54.7396 43.9583 54.7184 43.675C54.715 43.6449 54.715 43.6148 54.7139 43.5847C54.6927 43.0225 54.9459 42.3845 55.3575 41.9584C55.6631 41.6416 56.0413 41.4654 56.4194 41.4654C56.7306 41.4654 57.1879 41.5814 57.5895 42.129C58.5164 43.3995 58.8778 44.8061 58.6324 46.197V46.1981ZM53.0285 50.0173C52.5734 49.1027 52.0592 48.1936 51.5628 47.3147C51.2895 46.8306 51.0073 46.3308 50.7363 45.8345C50.1206 44.7034 49.7926 43.4575 49.7625 42.1324L49.7369 40.9857L50.2946 41.9874L50.695 42.7068C50.9995 43.2534 51.304 43.7999 51.6086 44.3465C51.8841 44.8418 52.1674 45.3437 52.4418 45.83C53.0631 46.9309 53.7067 48.0687 54.309 49.2075C55.1969 50.8851 54.8734 52.5672 53.4646 53.5967C52.9426 53.9782 52.3626 54.1723 51.7413 54.1723C51.4424 54.1723 51.13 54.1266 50.8155 54.0373C50.6582 53.9927 50.5266 53.9113 50.3738 53.8165C50.3002 53.7707 50.2176 53.7194 50.1206 53.6659L49.4792 53.3078L50.1942 53.1416C50.4217 53.0881 50.6281 53.0457 50.8289 53.0044C51.2182 52.923 51.5539 52.8528 51.8707 52.7434C52.5366 52.5137 52.9928 52.1366 53.1914 51.6514C53.3832 51.183 53.3274 50.6174 53.0296 50.0173H53.0285ZM36.973 41.2702L36.5369 42.0855L36.441 41.1664C36.3417 40.2183 36.6719 39.3092 37.4237 38.4637C38.0773 37.7276 38.8603 37.1342 39.7426 36.4894C39.959 36.3299 40.249 36.2976 40.4532 36.2976C40.6394 36.2976 40.8291 36.3255 40.9875 36.3779C41.2797 36.4738 41.4771 36.7571 41.4883 37.1018C41.5006 37.452 41.3187 37.7554 41.0265 37.8726C39.0834 38.6589 37.7973 39.7398 36.9742 41.2713L36.973 41.2702ZM40.1899 47.3637C39.9166 46.4257 39.7226 45.4497 39.6155 44.4625C39.5441 43.8122 39.8296 43.1932 40.3405 42.8886C40.5736 42.7503 40.8168 42.6801 41.0644 42.6789C41.5095 42.6789 41.8575 42.8965 42.1665 43.1307C43.0354 43.7888 43.6132 44.7737 43.747 45.8334C43.7805 46.091 43.7783 46.3844 43.7415 46.6833C43.6823 47.1574 43.486 48.0196 42.829 48.4602C42.5401 48.6532 42.2167 48.7569 41.8921 48.7569C41.128 48.7569 40.4275 48.1836 40.1888 47.3649L40.1899 47.3637ZM55.0285 64.0193C54.686 65.3076 53.0798 65.8932 51.7301 65.8932C50.627 65.8932 49.6599 65.5419 49.0777 64.9295L48.5791 64.4052L49.3007 64.451C49.7146 64.4766 50.0938 64.49 50.4574 64.49C52.0625 64.49 53.3921 64.2346 54.6392 63.688L55.179 63.4504L55.0285 64.0204V64.0193ZM59.6441 57.6491C59.5917 58.5693 59.2381 59.7628 58.3993 60.3529L57.8572 60.7332L57.9542 60.0785L57.9843 59.8733C55.7557 61.504 53.4747 62.2982 51.0297 62.2982C48.5846 62.2982 45.9991 61.485 43.148 59.8152L43.2072 60.1744L43.3053 60.7745L43.4091 61.4025L42.8725 61.0601C42.8 61.0132 42.7365 60.9775 42.6807 60.9463C42.5636 60.8794 42.4609 60.8214 42.3784 60.7232C41.7973 60.0361 41.5206 59.0478 41.6154 58.0083C41.7103 56.9876 42.1553 56.083 42.838 55.5253C43.051 55.3513 43.3321 55.3045 43.5808 55.2632C43.6823 55.2476 43.7783 55.2308 43.8619 55.2085L44.1899 55.1215L44.2177 55.4595L44.2624 55.9871L44.2847 56.2537C46.066 56.9207 48.0046 57.2598 50.0503 57.2598C50.6248 57.2598 51.2104 57.2319 51.7926 57.1784C53.0999 57.0557 54.4228 56.7657 55.7011 56.4846C56.2153 56.3719 56.7473 56.2548 57.2738 56.1488C57.6006 56.083 57.6921 56.0261 57.7166 55.7517C57.7479 55.3725 58.0145 55.1081 58.3625 55.1081C58.5566 55.1081 58.7562 55.1918 58.9269 55.3435C59.1555 55.5476 59.3351 55.8332 59.4578 56.179C59.4957 56.2838 59.5281 56.3942 59.5549 56.5091C59.6352 56.8527 59.6675 57.2397 59.6441 57.648V57.6491Z" fill="white"/>
</g>
<g id="Group_4">
<path id="Vector_6" d="M56.4199 59.5041C56.5571 59.4104 56.6932 59.3122 56.8282 59.2085C56.6932 59.3111 56.5571 59.4093 56.4199 59.5041Z" fill="#EC2227"/>
<path id="Vector_7" d="M56.4199 59.5041C56.5571 59.4104 56.6932 59.3122 56.8282 59.2085C56.6932 59.3111 56.5571 59.4093 56.4199 59.5041ZM56.4199 59.5041C56.5571 59.4104 56.6932 59.3122 56.8282 59.2085C56.6932 59.3111 56.5571 59.4093 56.4199 59.5041ZM56.4199 59.5041C56.5571 59.4104 56.6932 59.3122 56.8282 59.2085C56.6932 59.3111 56.5571 59.4093 56.4199 59.5041ZM56.4199 59.5041C56.5571 59.4104 56.6932 59.3122 56.8282 59.2085C56.6932 59.3111 56.5571 59.4093 56.4199 59.5041ZM56.4199 59.5041C56.5571 59.4104 56.6932 59.3122 56.8282 59.2085C56.6932 59.3111 56.5571 59.4093 56.4199 59.5041Z" fill="#EC2227"/>
<path id="Vector_8" d="M59.5547 56.5091C59.5279 56.3931 59.4956 56.2838 59.4577 56.179C59.335 55.8332 59.1554 55.5476 58.9267 55.3435C58.7561 55.1918 58.5564 55.1082 58.3623 55.1082C58.0143 55.1082 57.7477 55.3725 57.7165 55.7518C57.6931 56.0262 57.6005 56.083 57.2737 56.1488C56.7483 56.2537 56.2162 56.3719 55.7009 56.4846C54.4226 56.7657 53.0986 57.0568 51.7925 57.1784C51.2102 57.2319 50.6235 57.2598 50.0502 57.2598C48.0045 57.2598 46.0659 56.9207 44.2845 56.2537L44.2622 55.9871L44.2176 55.4595L44.1897 55.1215L43.8618 55.2085C43.777 55.2309 43.6822 55.2476 43.5807 55.2632C43.3331 55.3045 43.0509 55.3513 42.8378 55.5253C42.1552 56.0819 41.7101 56.9876 41.6153 58.0083C41.5194 59.0467 41.7971 60.0361 42.3783 60.7232C42.4608 60.8214 42.5634 60.8794 42.6805 60.9463C42.7363 60.9775 42.7999 61.0132 42.8724 61.0601L43.4089 61.4025L43.3052 60.7745L43.207 60.1744L43.1479 59.8153C46 61.4851 48.5834 62.2982 51.0295 62.2982C53.4756 62.2982 55.7556 61.504 57.9842 59.8733L57.9541 60.0785L57.857 60.7333L58.3991 60.3529C59.2368 59.7628 59.5915 58.5693 59.6439 57.6491C59.6674 57.2409 59.635 56.8549 59.5547 56.5102V56.5091ZM56.8275 59.2085C56.6925 59.3122 56.5564 59.4104 56.4193 59.5041C56.1437 59.6926 55.8638 59.8643 55.5793 60.0183C55.4366 60.0952 55.2927 60.1677 55.1477 60.2369C53.9162 60.8203 52.5978 61.1002 51.1991 61.1002C50.2922 61.1002 49.3508 60.9831 48.3793 60.7544C46.4317 60.2971 44.6147 59.6089 43.1702 58.1577C42.7542 57.7406 42.7575 57.7372 43.0642 57.0936C45.5885 58.0083 48.1149 58.4433 50.6737 58.4433C53.2325 58.4433 55.8794 57.9993 58.5586 57.1561C58.4426 57.4294 58.3924 57.7629 58.2006 57.9659C57.8849 58.3005 57.5614 58.6072 57.2302 58.8861C57.0974 58.9976 56.9636 59.1047 56.8286 59.2085H56.8275Z" fill="#EC2227"/>
</g>
<path id="Vector_9" d="M53.4649 53.5956C52.9429 53.9771 52.3629 54.1712 51.7416 54.1712C51.4426 54.1712 51.1303 54.1255 50.8158 54.0362C50.6585 53.9916 50.5269 53.9102 50.3741 53.8154C50.3004 53.7696 50.2179 53.7183 50.1209 53.6648L49.4795 53.3067L50.1945 53.1405C50.422 53.087 50.6284 53.0446 50.8292 53.0033C51.2184 52.9219 51.5542 52.8516 51.871 52.7423C52.5369 52.5126 52.9931 52.1355 53.1916 51.6503C53.3835 51.1819 53.3277 50.6163 53.0299 50.0162C52.5748 49.1016 52.0606 48.1925 51.5642 47.3136C51.2909 46.8295 51.0087 46.3297 50.7377 45.8334C50.122 44.7023 49.794 43.4564 49.7639 42.1313L49.7383 40.9846L50.296 41.9863L50.6964 42.7057C51.0009 43.2523 51.3054 43.7988 51.61 44.3454C51.8855 44.8407 52.1688 45.3426 52.4432 45.8289C53.0645 46.9298 53.7081 48.0676 54.3104 49.2064C55.1983 50.884 54.8748 52.5661 53.466 53.5956H53.4649Z" fill="#EC2227"/>
<path id="Vector_10" d="M43.7424 46.6822C43.6833 47.1563 43.487 48.0185 42.83 48.4591C42.5411 48.6521 42.2176 48.7558 41.893 48.7558C41.129 48.7558 40.4285 48.1825 40.1898 47.3637C39.9165 46.4257 39.7224 45.4497 39.6153 44.4625C39.5439 43.8122 39.8295 43.1932 40.3404 42.8887C40.5735 42.7503 40.8167 42.6801 41.0643 42.679C41.5093 42.679 41.8573 42.8965 42.1663 43.1307C43.0352 43.7888 43.613 44.7737 43.7469 45.8334C43.7803 46.091 43.7781 46.3844 43.7413 46.6833L43.7424 46.6822Z" fill="#EC2227"/>
<path id="Vector_11" d="M58.6326 46.197C58.5267 46.7971 57.8641 47.4474 57.2685 47.5333C57.2138 47.5422 57.1569 47.5455 57.0989 47.5455C56.5613 47.5455 55.8128 47.183 55.5574 46.6443C55.2707 46.0386 55.1213 45.4474 54.9785 44.8741C54.9428 44.7324 54.9071 44.5897 54.8681 44.4447C54.8078 44.216 54.7398 43.9572 54.7186 43.6739C54.7152 43.6438 54.7152 43.6137 54.7141 43.5835C54.6929 43.0214 54.9461 42.3833 55.3577 41.9573C55.6634 41.6405 56.0415 41.4642 56.4196 41.4642C56.7308 41.4642 57.1881 41.5802 57.5897 42.1279C58.5166 43.3984 58.878 44.8049 58.6326 46.1959V46.197Z" fill="#EC2227"/>
<path id="Vector_12" d="M28.422 58.8593L27.9747 58.9073C27.9022 58.9151 27.8319 58.9196 27.7617 58.9196C27.1872 58.9196 26.7098 58.6563 26.3406 58.1376C25.7517 57.3078 25.7227 56.5571 26.2603 55.5142C26.1041 55.4104 25.9848 55.3658 25.871 55.3658C25.629 55.3658 25.3033 55.5532 24.663 56.0563L24.2358 56.392L24.2046 55.8488C24.1644 55.1773 24.3161 54.6397 24.6429 54.2939C24.9095 54.0095 25.291 53.86 25.7427 53.86C25.852 53.86 25.9658 53.8689 26.0829 53.8856C26.6975 53.9738 27.272 54.3084 27.6468 54.5727C27.9825 54.8103 28.2837 55.0513 28.2904 55.3803C28.2948 55.7105 28.0126 55.9525 27.6423 56.2336C27.4293 56.3954 27.3021 56.643 27.2843 56.9296C27.2608 57.3 27.4159 57.6781 27.7092 57.967C27.7438 58.0016 27.7817 58.035 27.823 58.0707C27.9424 58.1767 28.0773 58.2983 28.1866 58.4756L28.422 58.8582V58.8593Z" fill="#EC2227"/>
<path id="Vector_13" d="M41.4872 37.0985C41.4995 37.4488 41.3177 37.7522 41.0255 37.8693C39.0824 38.6557 37.7963 39.7365 36.9731 41.268L36.537 42.0834L36.4411 41.1642C36.3418 40.2161 36.6719 39.3071 37.4237 38.4616C38.0774 37.7254 38.8604 37.132 39.7427 36.4873C39.9591 36.3278 40.2491 36.2954 40.4532 36.2954C40.6395 36.2954 40.8291 36.3233 40.9875 36.3757C41.2798 36.4716 41.4772 36.755 41.4884 37.0996L41.4872 37.0985Z" fill="#EC2227"/>
<path id="Vector_14" d="M55.1801 63.4482L55.0295 64.0182C54.687 65.3065 53.0808 65.8921 51.7312 65.8921C50.628 65.8921 49.6609 65.5408 49.0787 64.9284L48.5801 64.4042L49.3018 64.4499C49.7156 64.4755 50.0948 64.4889 50.4585 64.4889C52.0636 64.4889 53.3931 64.2335 54.6402 63.6869L55.1801 63.4494V63.4482Z" fill="#EC2227"/>
<path id="Vector_15" d="M58.9398 40.3477L58.2761 39.4308C57.4195 38.2484 56.2605 37.9718 55.0347 37.6762C54.9109 37.6461 54.787 37.6171 54.6632 37.5859C54.3175 37.5 54.0709 37.0739 53.9895 36.8106C53.9583 36.708 53.9761 36.5976 54.0431 36.4805C54.1323 36.3221 54.3665 36.0711 54.6052 36.0109C54.7145 35.983 54.8317 35.9696 54.9566 35.9696C56.3241 35.9696 58.5761 37.6851 58.7858 39.2255L58.9387 40.3465L58.9398 40.3477Z" fill="#EC2227"/>
<g id="Group_5">
<path id="Vector_16" d="M58.5584 57.1561C58.4424 57.4294 58.3922 57.7629 58.2004 57.9659C57.8847 58.3005 57.5612 58.6073 57.2299 58.8861C57.0972 58.9977 56.9634 59.1047 56.8284 59.2085C56.6934 59.3111 56.5573 59.4093 56.4201 59.5041C56.1446 59.6926 55.8647 59.8643 55.5802 60.0183C55.4375 60.0952 55.2936 60.1677 55.1486 60.2369C53.9171 60.8203 52.5987 61.1002 51.2 61.1002C50.2931 61.1002 49.3517 60.9831 48.3802 60.7545C46.4326 60.2971 44.6156 59.6089 43.1711 58.1577C42.7551 57.7406 42.7584 57.7372 43.0651 57.0936C45.5894 58.0083 48.1158 58.4433 50.6746 58.4433C53.2334 58.4433 55.8803 57.9994 58.5595 57.1561H58.5584Z" fill="white"/>
<path id="Vector_17" d="M56.8282 59.2085C56.6932 59.3122 56.5571 59.4104 56.4199 59.5041C56.5571 59.4093 56.6932 59.3111 56.8282 59.2085Z" fill="#EC2227"/>
<path id="Vector_18" d="M56.4199 59.5041C56.5571 59.4104 56.6932 59.3122 56.8282 59.2085C56.6932 59.3111 56.5571 59.4093 56.4199 59.5041Z" fill="#EC2227"/>
</g>
</g>
</g>
</svg>
