<svg width="43" height="25" viewBox="0 0 43 25" fill="none" xmlns="http://www.w3.org/2000/svg">
<path fill-rule="evenodd" clip-rule="evenodd" d="M0.606756 0.450418C-0.0111299 0.81074 3.73214e-05 0.72896 3.73214e-05 4.87461V8.55366L0.185245 8.81827C0.494557 9.26037 0.72496 9.37402 1.48223 9.45805C5.4092 9.8938 5.4092 15.107 1.48223 15.5427C0.72496 15.6268 0.494557 15.7404 0.185245 16.1825L3.73214e-05 16.4471V20.1395C3.73214e-05 24.3327 -0.0167135 24.22 0.659537 24.5679L1.01362 24.75H6.80321H12.5928V12.5004V0.250786L6.76971 0.251503L0.946514 0.252323L0.606756 0.450418ZM15.2266 12.5004V24.75H28.1637C40.9665 24.75 41.1045 24.7484 41.4356 24.5887C42.1314 24.2533 42.0965 24.4759 42.1223 20.2216L42.1452 16.4538L41.9577 16.1858C41.6474 15.7422 41.4161 15.6268 40.6717 15.5442C36.7328 15.1072 36.7241 9.89462 40.6616 9.45774C41.4057 9.37514 41.7861 9.17213 42.0196 8.7329C42.238 8.32195 42.1608 1.09307 41.9349 0.792396C41.4941 0.206002 42.6327 0.250786 28.1637 0.250786H15.2266V12.5004Z" fill="#FFFDFC"/>
</svg>
