<svg width="40" height="41" viewBox="0 0 40 41" fill="none" xmlns="http://www.w3.org/2000/svg">
<path fill-rule="evenodd" clip-rule="evenodd" d="M14.8608 0.184721C13.1417 0.637222 11.4677 1.649 9.51814 3.41395L9.02427 3.86104L10.3711 5.21659L11.718 6.57203L11.941 6.27641C13.9953 3.55152 17.2249 2.14678 20.8096 2.41884C21.7698 2.4917 21.7824 2.47883 21.2136 2.00668C19.147 0.290922 16.9029 -0.352717 14.8608 0.184721ZM31.886 1.45637C29.1543 1.82416 25.8482 3.28717 23.094 5.34693C21.8858 6.25044 21.659 6.58915 21.8802 7.15957C22.0025 7.47473 33.2817 18.8306 33.6426 19.0018C34.3341 19.33 34.6445 19.1497 35.6082 17.8612C42.1473 9.1175 40.1564 0.342757 31.886 1.45637ZM4.29456 2.0592C3.3899 2.96386 3.40393 3.22637 4.41225 4.27665C5.31047 5.21234 5.1537 5.23038 6.32524 4.05528L7.30472 3.0727L6.68935 2.41654C5.52632 1.17638 5.22266 1.1311 4.29456 2.0592ZM6.73475 4.54376L5.70401 5.57737L7.90215 7.77689C9.11116 8.9867 10.1418 9.97653 10.1924 9.97653C10.243 9.97653 10.7278 9.53173 11.2698 8.98808L12.255 7.99975L10.0102 5.75495L7.76538 3.51015L6.73475 4.54376ZM5.45725 7.48208C0.00804588 12.1414 -1.15545 15.5684 1.30268 19.719C2.07263 21.0192 2.02401 21.0295 2.02413 19.566C2.02424 15.8609 3.98504 12.8057 8.03651 10.1974C8.48097 9.91124 8.8629 9.66229 8.8852 9.64402C8.93565 9.60299 6.268 6.9235 6.17674 6.9235C6.14031 6.9235 5.81654 7.17486 5.45725 7.48208ZM11.6492 9.41668C11.1191 9.94848 10.6854 10.4234 10.6854 10.4721C10.6854 10.5896 18.9655 18.866 19.083 18.866C19.1329 18.866 19.6173 18.4213 20.1592 17.8776L21.1444 16.8894L16.9255 12.6697C14.605 10.3488 12.6854 8.44995 12.6597 8.44995C12.6339 8.44995 12.1792 8.88498 11.6492 9.41668ZM18.0707 20.7742C13.6138 25.2316 9.96708 28.9193 9.96708 28.9694C9.96708 29.0195 10.422 29.5142 10.9781 30.0686L11.989 31.0767L20.1369 22.9284C24.6184 18.4468 28.2849 14.739 28.2849 14.6889C28.2849 14.5718 26.3802 12.6703 26.2629 12.6703C26.2142 12.6703 22.5277 16.3171 18.0707 20.7742ZM23.0529 20.8204C22.5229 21.3521 22.0892 21.8273 22.0892 21.8762C22.0892 21.9253 25.4132 25.2884 29.4759 29.3501L36.8627 36.7349H37.3029C38.0666 36.7349 39.0958 35.5561 38.9299 34.8716C38.8779 34.6576 24.2238 19.8537 24.0638 19.8537C24.0378 19.8537 23.5829 20.2888 23.0529 20.8204ZM7.40793 28.5054C6.20237 29.0866 0.210332 32.3587 0.112292 32.4893C0.0504566 32.5714 0 32.8219 0 33.0459V33.453L3.77046 37.2266L7.5408 41H7.9364C8.19363 41 8.39534 40.9426 8.51349 40.8358C8.84278 40.5377 12.6608 33.2798 12.6608 32.9519C12.6608 32.6866 12.4458 32.4416 10.5283 30.5215C8.14915 28.1392 8.15685 28.1442 7.40793 28.5054ZM8.73383 32.2241C9.31333 32.8051 9.78744 33.3082 9.78744 33.3421C9.78744 33.3759 9.28988 34.3327 8.68165 35.4682L7.57585 37.5327L5.51644 35.4628C4.38375 34.3242 3.49748 33.3761 3.54679 33.3558C3.59621 33.3354 4.52558 32.8372 5.61207 32.2486C6.69855 31.6601 7.60838 31.1761 7.63378 31.1731C7.65929 31.1701 8.15432 31.6431 8.73383 32.2241Z" fill="#FFFDFC"/>
</svg>
