<svg width="41" height="41" viewBox="0 0 41 41" fill="none" xmlns="http://www.w3.org/2000/svg">
<path fill-rule="evenodd" clip-rule="evenodd" d="M17.3005 0.300325L16.9632 0.600547L16.3523 3.09232L15.7414 5.5841L15.0177 5.84517C14.6196 5.98877 14.0163 6.24533 13.677 6.41547L13.06 6.72472L11.1145 5.54576L9.16893 4.36691L8.64516 4.36558C7.98475 4.36394 8.00535 4.34795 5.8344 6.5395C3.53307 8.86256 3.5672 8.55332 5.29361 11.4469L6.50086 13.4701L6.22452 14.0823C6.07251 14.4189 5.86546 14.9286 5.76439 15.2149L5.58061 15.7354L3.09058 16.3499L0.600547 16.9643L0.300325 17.3011L0 17.6378V20.5V23.3622L0.300325 23.6995L0.600547 24.0368L3.09437 24.6482L5.5882 25.2596L5.76778 25.7826C5.86649 26.0703 6.10859 26.6539 6.3057 27.0795L6.66414 27.8532L5.6622 29.5218C3.94594 32.3801 3.87942 31.9279 6.38749 34.451C9.01836 37.0975 8.69794 37.0338 11.36 35.4412L13.1884 34.3474L13.8323 34.6588C14.1865 34.8301 14.7611 35.0715 15.1093 35.1952L15.7425 35.4201L16.3528 37.9097L16.9632 40.3995L17.3005 40.6997L17.6378 41H20.5H23.3622L23.6995 40.6997L24.0368 40.3995L24.6477 37.9077L25.2586 35.4159L25.9823 35.1549C26.3804 35.0113 26.9484 34.7723 27.2446 34.6237C27.9393 34.2751 27.7212 34.2089 29.6166 35.3445C31.9791 36.7601 31.969 36.7564 32.6292 36.4368C33.0267 36.2444 36.4661 32.8126 36.5912 32.4837C36.8197 31.8825 36.7489 31.6939 35.5293 29.6561L34.3828 27.7405L34.6772 27.1303C34.839 26.7947 35.0722 26.2367 35.1953 25.8903L35.4191 25.2604L37.9092 24.6486L40.3995 24.0368L40.6997 23.6994L41 23.3622V20.5V17.6378L40.6997 17.3006L40.3995 16.9632L37.9092 16.3514L35.4191 15.7396L35.1947 15.1079C35.0712 14.7605 34.8312 14.1889 34.6614 13.8377L34.3527 13.1991L35.4794 11.3231C37.1323 8.57095 37.1813 8.89177 34.733 6.4289C32.1142 3.79445 32.4356 3.85513 29.7178 5.4817L27.7839 6.63913L27.1538 6.3345C26.8072 6.16691 26.2395 5.9288 25.8921 5.80529L25.2604 5.58092L24.6486 3.09078L24.0368 0.600547L23.6994 0.300325L23.3622 0H20.5H17.6378L17.3005 0.300325ZM22.542 12.3919C29.9513 14.4519 31.1223 24.3611 24.3721 27.8792C16.9862 31.7288 9.14946 23.5469 13.2905 16.3094C15.0832 13.1762 19.1574 11.451 22.542 12.3919Z" fill="#FFFDFC"/>
</svg>
