<svg width="11" height="15" viewBox="0 0 11 15" fill="none" xmlns="http://www.w3.org/2000/svg">
<g id="svgg">
<path id="path0" fill-rule="evenodd" clip-rule="evenodd" d="M5.14865 0.0729328C4.91151 0.217542 4.90667 0.243022 4.90667 1.3444C4.90667 2.2703 4.91078 2.33804 4.97313 2.44034C5.17439 2.77041 5.70898 2.77041 5.91024 2.44034C6.01254 2.27257 6.01254 0.416236 5.91024 0.24846C5.76563 0.011312 5.39124 -0.0749741 5.14865 0.0729328ZM10.3093 2.03131C10.2909 2.03666 10.2307 2.05105 10.1755 2.06321C10.0661 2.08732 8.82256 3.29151 8.73439 3.45873C8.4969 3.90931 9.0153 4.44668 9.46682 4.21792C9.57546 4.1629 10.7906 2.9492 10.8507 2.83568C11.0434 2.47186 10.6747 1.92412 10.3093 2.03131ZM0.367116 2.08381C0.0799519 2.16692 -0.0794314 2.52025 0.039999 2.80913C0.0960529 2.94461 1.24359 4.12384 1.40037 4.20705C1.76058 4.39812 2.19617 4.13515 2.19647 3.72637C2.19664 3.47415 2.16868 3.43595 1.48794 2.75911C0.773367 2.04861 0.681 1.99298 0.367116 2.08381ZM4.70305 3.26976C0.92697 3.95358 -0.146362 8.99043 3.04237 11.063L3.29973 11.2302L3.30016 11.5063L3.30059 11.7822H5.44169H7.58278L7.58321 11.5063L7.58364 11.2302L7.8425 11.0635C9.60047 9.93101 10.244 7.44897 9.27301 5.54622C8.42565 3.88584 6.52619 2.93965 4.70305 3.26976ZM3.30059 13.2649C3.30059 14.1257 3.68633 14.706 4.40762 14.9305C4.68712 15.0175 6.15947 15.0249 6.44762 14.9408C7.18043 14.7269 7.58278 14.134 7.58278 13.268V12.8528H5.44169H3.30059V13.2649Z" fill="#FFD700"/>
</g>
</svg>
