<svg width="45" height="45" viewBox="0 0 45 45" fill="none" xmlns="http://www.w3.org/2000/svg">
<g id="Group 62">
<rect id="Rectangle 39" width="45" height="45" rx="22.5" fill="#F40009"/>
<g id="svgg">
<path id="path0" fill-rule="evenodd" clip-rule="evenodd" d="M14.2735 31.5749C14.9739 32.3587 15.5634 33 15.5835 33C15.6036 33 17.7305 30.6375 20.31 27.75L25 22.5L20.31 17.25C17.7305 14.3625 15.6034 12 15.5831 12C15.5352 12 13 14.8382 13 14.8918C13 14.9141 14.5211 16.6352 16.3801 18.7162L19.7602 22.5L16.3801 26.2838C14.5211 28.3648 13 30.0861 13 30.1087C13 30.1313 13.5731 30.7911 14.2735 31.5749Z" fill="#FFFDFC"/>
<path id="path0_2" fill-rule="evenodd" clip-rule="evenodd" d="M30.7265 13.4251C30.0261 12.6413 29.4366 12 29.4165 12C29.3964 12 27.2695 14.3625 24.69 17.25L20 22.5L24.69 27.75C27.2695 30.6375 29.3966 33 29.4169 33C29.4648 33 32 30.1618 32 30.1082C32 30.0859 30.4789 28.3648 28.6199 26.2838L25.2398 22.5L28.6199 18.7162C30.4789 16.6352 32 14.9139 32 14.8913C32 14.8687 31.4269 14.2089 30.7265 13.4251Z" fill="#FFFDFC"/>
</g>
</g>
</svg>
