<svg width="23" height="23" viewBox="0 0 23 23" fill="none" xmlns="http://www.w3.org/2000/svg">
<path id="path0" fill-rule="evenodd" clip-rule="evenodd" d="M10.8506 0.103074C9.86626 0.438597 9.80774 0.555639 8.84058 4.12303C8.41613 5.68847 8.04877 7.00704 8.0241 7.05322C7.98285 7.13045 7.93769 7.13492 7.45713 7.10922C4.84691 6.96975 1.7785 6.89516 1.49823 6.9643C0.0113264 7.33126 -0.512784 9.25311 0.588507 10.3002C0.754662 10.4582 1.67666 11.063 3.32673 12.0964C5.09396 13.2032 5.81819 13.6799 5.82748 13.7426C5.83465 13.791 5.35162 15.1107 4.75402 16.6753L3.66747 19.5198L3.66518 20.06C3.66024 21.2174 4.47989 22.0562 5.6109 22.0512C6.32686 22.048 6.39979 22.0002 9.05665 19.7902C10.3469 18.717 11.4409 17.8389 11.488 17.8389C11.535 17.8389 12.606 18.6992 13.8679 19.7508C16.3282 21.8008 16.4322 21.879 16.8391 21.9836C18.153 22.3214 19.3094 21.4191 19.3041 20.06L19.3021 19.5198L18.2154 16.6748C17.6176 15.1101 17.1345 13.7907 17.1417 13.743C17.1508 13.682 17.899 13.1897 19.6424 12.0974C21.2952 11.0619 22.2141 10.4588 22.3806 10.3005C23.5104 9.22523 22.9245 7.25174 21.3835 6.94226C21.1604 6.89746 17.7227 6.99499 15.5342 7.10825C15.0321 7.13424 14.986 7.12988 14.9449 7.05288C14.9204 7.00687 14.5531 5.68847 14.1287 4.12303C13.7043 2.55753 13.3072 1.17826 13.2463 1.05783C12.8169 0.209847 11.7661 -0.208982 10.8506 0.103074Z" fill="#B2B2B2" fill-opacity="0.5"/>
</svg>
