<svg id="svg" xmlns="http://www.w3.org/2000/svg" xmlns:xlink="http://www.w3.org/1999/xlink" width="400" height="400" viewBox="0, 0, 400,400"><g id="svgg"><path id="path0" d="M73.074 1.538 C 34.309 9.966,7.040 41.210,3.464 81.292 C 1.150 107.229,20.071 145.341,60.461 196.094 C 88.302 231.078,91.322 232.198,107.339 213.476 C 152.083 161.174,177.090 117.563,178.696 89.032 C 181.740 34.930,127.217 -10.235,73.074 1.538 M101.704 52.258 C 141.800 66.053,133.161 124.219,91.016 124.219 C 57.995 124.219,41.890 84.404,65.507 61.161 C 74.990 51.829,89.840 48.176,101.704 52.258 M178.192 157.245 C 168.130 174.388,154.928 193.152,138.764 213.281 C 113.229 245.080,108.191 248.828,90.975 248.828 C 75.228 248.828,69.510 245.066,50.813 222.404 C 46.319 216.957,42.422 212.500,42.154 212.500 C 41.357 212.500,11.542 347.732,11.481 351.629 C 11.324 361.537,21.944 367.360,30.859 362.254 C 34.799 359.998,302.851 174.557,305.380 172.339 C 311.814 166.693,310.957 155.972,303.718 151.558 C 301.236 150.045,299.683 150.006,241.797 150.022 L 182.422 150.037 178.192 157.245 M341.797 177.207 C 339.146 178.460,224.707 257.252,218.602 262.028 C 211.833 267.324,212.605 278.274,220.087 283.094 C 232.889 291.342,378.914 367.423,382.613 367.773 C 389.789 368.453,395.504 364.282,396.483 357.650 C 397.024 353.986,360.518 187.290,358.189 182.784 C 355.228 177.060,347.600 174.464,341.797 177.207 M174.219 293.128 C 168.834 295.945,53.026 376.328,50.624 378.916 C 45.283 384.669,46.642 394.374,53.363 398.472 C 57.287 400.865,340.369 400.865,344.293 398.472 C 350.953 394.411,352.316 384.630,347.022 378.889 C 345.708 377.464,314.985 360.767,264.926 334.274 C 177.187 287.838,181.012 289.573,174.219 293.128 " stroke="none" fill="#000000" fill-rule="evenodd"></path></g></svg>