<svg xmlns="http://www.w3.org/2000/svg" width="20" height="20" viewBox="0 0 20 20" fill="none">
<path fill-rule="evenodd" clip-rule="evenodd" d="M7.48639 0.369718C1.66133 1.0225 -1.48869 7.48806 1.59556 12.461C3.90719 16.1881 8.93775 17.3156 12.6155 14.9308L12.8235 14.796L15.119 17.0809C17.045 18.998 17.4521 19.3853 17.6478 19.487C18.7026 20.0353 19.9346 19.3504 19.9904 18.1846C20.0266 17.4271 20.1023 17.5255 17.3856 14.803L15.0513 12.4636L15.1924 12.2312C16.013 10.8804 16.4016 8.96062 16.1929 7.28928C15.6571 2.99976 11.7471 -0.107751 7.48639 0.369718ZM8.9211 2.97047C13.3103 3.49353 15.2147 8.83613 12.1286 11.9686C9.26767 14.8725 4.40386 13.6753 3.22772 9.77756C2.134 6.15296 5.16972 2.52342 8.9211 2.97047Z" fill="#B2B2B2"/>
</svg>