<svg id="svg" xmlns="http://www.w3.org/2000/svg" xmlns:xlink="http://www.w3.org/1999/xlink" width="400" height="400" viewBox="0, 0, 400,400"><g id="svgg"><path id="path0" d="M367.578 1.164 C 365.859 1.719,285.792 27.516,189.650 58.492 C 93.508 89.467,13.503 115.496,11.862 116.333 C -2.036 123.423,-4.350 143.793,7.511 154.633 L 11.691 158.453 83.014 182.229 L 154.337 206.005 191.426 180.247 C 211.825 166.080,241.028 145.802,256.320 135.185 L 284.125 115.882 253.176 160.090 C 236.153 184.404,215.830 213.472,208.012 224.686 L 193.799 245.076 217.673 316.693 L 241.547 388.309 245.367 392.489 C 256.235 404.381,276.577 402.035,283.702 388.069 C 288.456 378.751,400.000 28.683,400.000 23.082 C 400.000 6.578,384.099 -4.172,367.578 1.164 " stroke="none" fill="#000000" fill-rule="evenodd"></path></g></svg>