<svg width="59" height="59" viewBox="0 0 59 59" fill="none" xmlns="http://www.w3.org/2000/svg">
<g id="Group 127">
<rect id="Rectangle 89" width="59" height="59" rx="29.5" fill="#F40009"/>
<g id="svgg">
<path id="path0" fill-rule="evenodd" clip-rule="evenodd" d="M40.5686 16.0868C40.4397 16.1284 34.4347 18.0632 27.224 20.3864C20.0134 22.7095 14.013 24.6617 13.8899 24.7245C12.8476 25.2562 12.674 26.784 13.5636 27.597L13.8771 27.8835L19.2263 29.6667L24.5756 31.4499L27.3572 29.518C28.8872 28.4555 31.0774 26.9347 32.2243 26.1384L34.3097 24.6907L31.9885 28.0063C30.7118 29.8298 29.1875 32.0099 28.6012 32.851L27.5352 34.3802L29.3258 39.7515L31.1163 45.1227L31.4028 45.4362C32.2179 46.3281 33.7436 46.1521 34.2779 45.1047C34.6345 44.4058 43.0003 18.1507 43.0003 17.7307C43.0003 16.4929 41.8077 15.6866 40.5686 16.0868Z" fill="#FFFDFC"/>
</g>
</g>
</svg>
