<svg id="svg" xmlns="http://www.w3.org/2000/svg" xmlns:xlink="http://www.w3.org/1999/xlink" width="400" height="400" viewBox="0, 0, 400,400"><g id="svgg"><path id="path0" d="M187.500 35.547 L 187.500 71.094 200.000 71.094 L 212.500 71.094 212.500 35.547 L 212.500 0.000 200.000 0.000 L 187.500 0.000 187.500 35.547 M56.046 35.750 C 51.432 40.379,47.656 44.514,47.656 44.939 C 47.656 45.364,58.822 56.874,72.470 70.517 L 97.283 95.321 106.059 86.519 L 114.836 77.718 89.636 52.526 L 64.435 27.335 56.046 35.750 M310.339 52.552 L 285.148 77.752 293.950 86.528 L 302.751 95.305 327.547 70.499 C 341.185 56.857,352.344 45.339,352.344 44.904 C 352.344 44.470,348.561 40.343,343.937 35.733 L 335.530 27.352 310.339 52.552 M151.172 94.876 C 132.456 99.041,117.545 111.939,111.182 129.468 C 109.874 133.072,74.267 306.956,74.222 309.961 C 74.220 310.068,99.883 310.156,131.250 310.156 L 188.281 310.156 188.281 295.466 L 188.281 280.776 183.008 279.075 C 152.018 269.074,136.685 232.707,151.227 203.696 C 176.010 154.257,248.755 168.190,254.350 223.448 C 256.704 246.699,239.933 271.672,216.992 279.075 L 211.719 280.776 211.719 295.466 L 211.719 310.156 268.803 310.156 C 322.798 310.156,325.865 310.082,325.493 308.789 C 325.276 308.037,316.600 268.398,306.214 220.703 C 295.827 173.008,286.533 131.790,285.561 129.108 C 280.068 113.961,267.249 101.724,251.172 96.282 L 244.922 94.166 200.391 93.999 C 165.615 93.869,154.832 94.061,151.172 94.876 M3.576 145.733 C 2.358 151.980,1.574 157.303,1.833 157.562 C 2.644 158.373,70.677 171.777,71.186 171.226 C 71.726 170.642,75.983 148.373,75.621 148.027 C 75.262 147.684,8.354 134.372,6.997 134.374 C 6.067 134.375,5.284 136.973,3.576 145.733 M357.813 141.217 C 339.551 144.893,324.521 147.964,324.413 148.041 C 324.147 148.229,328.830 171.278,329.211 171.659 C 329.475 171.923,395.889 158.987,398.139 158.233 C 399.941 157.630,394.581 134.362,392.661 134.454 C 391.756 134.497,376.074 137.540,357.813 141.217 M189.453 197.459 C 163.697 206.689,160.929 242.492,184.979 255.311 C 211.944 269.683,241.375 241.540,228.588 213.611 C 222.322 199.923,203.851 192.299,189.453 197.459 M68.930 334.018 C 60.255 336.366,53.185 342.264,49.511 350.217 L 47.266 355.078 47.037 377.539 L 46.807 400.000 200.000 400.000 L 353.193 400.000 352.963 377.539 L 352.734 355.078 350.468 350.170 C 347.590 343.937,340.931 337.584,334.597 335.027 L 330.078 333.203 201.563 333.053 C 92.388 332.926,72.427 333.071,68.930 334.018 " stroke="none" fill="#f6ff00" fill-rule="evenodd"></path></g></svg>