<svg id="svg" xmlns="http://www.w3.org/2000/svg" xmlns:xlink="http://www.w3.org/1999/xlink" width="400" height="400" viewBox="0, 0, 400,400"><g id="svgg"><path id="path0" d="M188.950 9.622 C 171.794 15.470,170.774 17.510,153.917 79.688 C 146.519 106.973,140.116 129.955,139.686 130.760 C 138.967 132.106,138.180 132.184,129.804 131.736 C 84.309 129.305,30.828 128.005,25.943 129.210 C 0.027 135.606,-9.108 169.103,10.087 187.354 C 12.983 190.108,29.053 200.649,57.813 218.660 C 88.615 237.951,101.238 246.260,101.400 247.352 C 101.525 248.197,93.106 271.199,82.690 298.468 L 63.752 348.047 63.712 357.462 C 63.626 377.635,77.912 392.255,97.625 392.168 C 110.104 392.113,111.375 391.279,157.683 352.760 C 180.171 334.054,199.240 318.750,200.060 318.750 C 200.880 318.750,219.546 333.745,241.541 352.073 C 284.422 387.804,286.235 389.167,293.328 390.990 C 316.229 396.878,336.383 381.150,336.292 357.462 L 336.256 348.047 317.315 298.460 C 306.897 271.187,298.476 248.192,298.601 247.359 C 298.760 246.297,311.801 237.716,342.188 218.678 C 370.996 200.629,387.012 190.118,389.913 187.358 C 409.606 168.617,399.394 134.220,372.535 128.826 C 368.645 128.045,308.728 129.745,270.583 131.719 C 261.833 132.172,261.028 132.096,260.312 130.754 C 259.885 129.952,253.483 106.973,246.086 79.688 C 238.689 52.402,231.768 28.362,230.706 26.263 C 223.223 11.483,204.907 4.183,188.950 9.622 " stroke="none" fill="#000000" fill-rule="evenodd"></path></g></svg>