<svg id="svg" xmlns="http://www.w3.org/2000/svg" xmlns:xlink="http://www.w3.org/1999/xlink" width="400" height="400" viewBox="0, 0, 400,400"><g id="svgg"><path id="path0" d="M5.759 82.417 C -0.106 85.933,-0.000 85.135,0.000 125.588 L 0.000 161.488 1.758 164.070 C 4.694 168.384,6.881 169.493,14.069 170.313 C 51.344 174.565,51.344 225.435,14.069 229.687 C 6.881 230.507,4.694 231.616,1.758 235.930 L 0.000 238.512 0.000 274.542 C 0.000 315.459,-0.159 314.359,6.260 317.754 L 9.621 319.531 64.576 319.531 L 119.531 319.531 119.531 200.000 L 119.531 80.469 64.258 80.476 L 8.984 80.484 5.759 82.417 M144.531 200.000 L 144.531 319.531 267.331 319.531 C 388.855 319.531,390.165 319.515,393.308 317.957 C 399.913 314.684,399.581 316.856,399.826 275.343 L 400.044 238.577 398.264 235.962 C 395.318 231.633,393.123 230.507,386.057 229.701 C 348.669 225.437,348.586 174.573,385.961 170.310 C 393.024 169.504,396.635 167.523,398.851 163.237 C 400.924 159.227,400.192 88.688,398.047 85.754 C 393.863 80.032,404.671 80.469,267.331 80.469 L 144.531 80.469 144.531 200.000 " stroke="none" fill="#000000" fill-rule="evenodd"></path></g></svg>